<?xml version="1.0" encoding="utf-8"?>
<!-- Generator: Adobe Illustrator 16.0.0, SVG Export Plug-In . SVG Version: 6.00 Build 0)  -->
<!DOCTYPE svg PUBLIC "-//W3C//DTD SVG 1.1//EN" "http://www.w3.org/Graphics/SVG/1.1/DTD/svg11.dtd">
<svg version="1.1" xmlns="http://www.w3.org/2000/svg" xmlns:xlink="http://www.w3.org/1999/xlink" x="0px" y="0px" width="900px"
	 height="900px" viewBox="0 0 900 900" enable-background="new 0 0 900 900" xml:space="preserve">
<g id="Straw_2">
	<g>
		<circle fill="#098A9B" cx="455.37" cy="369.021" r="364.999"/>
		<g>
			<path fill="#FFFFFF" d="M422.857,241.498l2.704,9.813l9.049-4.258l2.574,10.189l10.125-5.551l2.14,10.561l8.736-4.7
				c7.516,12.109,231.512,368.285,240.889,383.195c12.814-11.541,24.857-23.896,35.928-37.127L486.58,204.564l2.037-11.002
				l-11.422-0.119l-1.064-12.167l-12.092,4.411l-5.289-12.167l-10.529,8.896l-9.2-9.505l-7.144,11.222
				c-49.271,9.638-249.692,87.161-249.692,87.161s-10.929,19.52-4.282,34.605c6.631,15.055,23.972,18.67,23.972,18.67
				L422.857,241.498"/>
		</g>
		<line fill="#8EB5E1" x1="440.152" y1="179.394" x2="440.152" y2="179.394"/>

			<radialGradient id="SVGID_1_" cx="58.8047" cy="690.418" r="0.5339" gradientTransform="matrix(366.8362 -161.5894 -161.5891 -366.837 90283.3906 263272.0312)" gradientUnits="userSpaceOnUse">
			<stop  offset="0" style="stop-color:#AAC36A"/>
			<stop  offset="0.19" style="stop-color:#ABBF6D"/>
			<stop  offset="0.4352" style="stop-color:#ABB573"/>
			<stop  offset="0.7095" style="stop-color:#AAA47B"/>
			<stop  offset="0.8352" style="stop-color:#AA997D"/>
			<stop  offset="1" style="stop-color:#A78568"/>
		</radialGradient>
		<path fill="url(#SVGID_1_)" d="M184.727,315.433c3.941,3.893,7.638,5.472,7.638,5.472l0.037-0.007
			C189.907,319.555,187.216,317.768,184.727,315.433l-1.321,0.391"/>
		<path fill="#AFCBEC" d="M424.849,241.797L424.849,241.797 M397.994,247.909 M184.727,315.433c2.489,2.335,5.18,4.122,7.675,5.465
			l230.455-79.399c-0.805-2.424,2.51-20.951,1.992-23.538L184.727,315.433"/>
		<path fill="#AFCBEC" d="M714.941,625.619L474.41,253.408l-8.686,8.317c0,0,191.998,303.222,237.896,374.87
			C707.474,633.018,711.246,629.357,714.941,625.619z"/>
		<g>
			<path opacity="0.79" fill="#F9EF88" d="M538.724,288.333l19.676,32.389c0.029-0.201,0.064-0.399,0.092-0.602L538.724,288.333z"/>
		</g>
		<path fill="#FFFFFF" d="M448.523,266.558"/>
		<path fill="#AECBEC" d="M439.02,172.912l9.2,9.505c0,0-0.606,15.064-2.508,23.961c-1.9,8.896-15.816,35.359-15.816,35.359
			s8.25-27.079,9.162-38.333S439.02,172.912,439.02,172.912z"/>
		<path fill="#AECBEC" d="M458.75,173.521l5.289,12.167c0,0-0.986,13.541-3.801,24.637c-2.812,11.096-17.49,34.759-17.49,34.759
			s9.495-22.078,11.825-37.758C456.902,191.645,458.75,173.521,458.75,173.521z"/>
		<path fill="#AECBEC" d="M476.13,181.276l1.064,12.167c0,0-2.889,14.865-7.225,26.044c-4.334,11.178-14.591,25.596-14.591,25.596
			s9.503-21.872,12.767-33.01S476.13,181.276,476.13,181.276z"/>
		<path fill="#AECBEC" d="M449.449,262.253c0,0,12.342-14.416,16.838-21.55c4.496-7.135,12.582-19.961,12.582-19.961
			s-4.562,13.855-8.555,20.995c-3.992,7.141-12.129,15.815-12.129,15.815L449.449,262.253z"/>
	</g>
</g>
<g id="SIPPER_MODIF">
	<g>
		<path fill="#098A9B" d="M220.429,779.16c-6.079-2.504-12.667-4.486-20.43-4.486c-9.804,0-16.982,2.494-22.722,5.537
			c-4.896,2.596-8.02,7.467-8.02,12.389c0,6.236,2.226,9.09,6.684,12.209c4.453,3.119,10.817,5.379,19.093,6.777
			c7.51,1.273,14.511,3.025,21.003,5.25c6.491,2.229,12.125,5.189,16.897,8.879c4.774,3.693,8.526,8.182,11.266,13.461
			c2.735,5.283,4.104,11.551,4.104,18.809c0,6.365-1.401,12.027-4.2,16.992c-2.801,4.965-6.652,9.164-11.552,12.602
			c-4.901,3.438-10.662,6.08-17.278,7.924c-6.621,1.844-13.686,2.768-21.194,2.768c-7.002,0-13.271-0.924-18.808-2.768
			s-10.438-4.201-14.702-7.064c-4.266-2.863-7.923-5.92-10.979-9.166c-3.055-3.246-5.537-6.33-7.446-9.26l6.492-7.85
			c1.652,2.418,3.818,5.092,6.491,8.018c2.674,2.93,5.854,5.633,9.547,8.115c3.691,2.482,7.987,4.553,12.888,6.205
			c4.898,1.656,10.406,2.482,16.517,2.482c10.945,0,18.773-2.225,23.484-6.682c4.708-4.453,7.065-6.852,7.065-14.488
			c0-7.256-2.611-13.109-7.828-17.566c-5.222-4.455-12.477-7.381-21.768-8.783c-6.748-1.018-13.112-2.482-19.093-4.393
			c-5.985-1.908-11.203-4.391-15.657-7.445c-4.456-3.055-7.988-6.873-10.597-11.455c-2.61-4.584-3.914-10.055-3.914-16.422
			c0-6.109,1.304-11.52,3.914-16.229c2.608-4.709,6.234-8.688,10.883-11.936c4.646-3.244,10.149-5.727,16.516-7.445
			c6.364-1.719,13.301-2.578,20.812-2.578c5.728,0,10.884,0.572,15.466,1.719s8.654,2.643,12.22,4.486
			c3.562,1.848,6.587,3.885,9.069,6.111c2.482,2.229,4.612,4.424,6.396,6.588l-6.641,7.699
			C229.244,783.979,224.85,780.98,220.429,779.16z"/>
		<path fill="#098A9B" d="M267.015,762.324H292.6v133.654h-25.585V762.324z"/>
		<path fill="#098A9B" d="M340.331,895.979h-25.776V762.324h55.944c8.654,0,16.134,1.051,22.435,3.15
			c6.3,2.102,11.519,4.807,15.656,8.115c4.136,3.312,7.19,7.064,9.165,11.266c1.972,4.201,2.96,8.467,2.96,12.791
			c0,4.33-0.988,13.156-2.96,17.357c-1.975,4.199-5.029,7.955-9.165,11.264c-4.138,3.312-9.356,5.984-15.656,8.02
			c-6.301,2.037-13.78,3.055-22.435,3.055h-30.168V895.979z M367.252,822.93c4.707,0,8.846-0.73,12.41-2.195
			c3.562-1.463,6.555-3.438,8.975-5.92c2.417-2.482,4.229-5.408,5.441-8.781c1.209-3.373,1.813-6.904,1.813-10.598
			c0-3.691-0.604-7.223-1.813-10.598c-1.212-3.371-3.024-6.33-5.441-8.877c-2.42-2.545-5.412-4.551-8.975-6.016
			c-3.564-1.461-7.703-2.195-12.41-2.195h-26.922v55.18H367.252z"/>
		<path fill="#098A9B" d="M464.818,895.979h-25.776V762.324h55.944c8.654,0,16.135,1.051,22.436,3.15
			c6.299,2.102,11.52,4.807,15.658,8.115c4.133,3.312,7.188,7.064,9.164,11.266c1.971,4.201,2.957,8.467,2.957,12.791
			c0,4.33-0.986,13.156-2.957,17.357c-1.977,4.199-5.031,7.955-9.164,11.264c-4.139,3.312-9.359,5.984-15.658,8.02
			c-6.301,2.037-13.781,3.055-22.436,3.055h-30.168V895.979z M491.74,822.93c4.709,0,8.848-0.73,12.41-2.195
			c3.562-1.463,6.555-3.438,8.975-5.92c2.418-2.482,4.23-5.408,5.443-8.781c1.207-3.373,1.812-6.904,1.812-10.598
			c0-3.691-0.605-7.223-1.812-10.598c-1.213-3.371-3.025-6.33-5.443-8.877c-2.42-2.545-5.412-4.551-8.975-6.016
			c-3.562-1.461-7.701-2.195-12.41-2.195h-26.922v55.18H491.74z"/>
		<path fill="#098A9B" d="M588.542,769.963v51.934h57.281v12.199h-57.281v49.684h61.1v12.199h-86.875V762.324h86.875v7.639H588.542z
			"/>
		<path fill="#098A9B" d="M667.589,895.979V762.324h47.924c8.145,0,15.18,0.955,21.098,2.865c5.92,1.91,10.789,4.457,14.607,7.637
			c3.818,3.184,6.65,6.873,8.498,11.074c1.844,4.201,2.768,8.531,2.768,12.984c0,4.965-0.924,14.012-2.768,18.021
			c-1.848,4.012-4.297,7.385-7.352,10.121c-3.057,2.738-6.559,4.869-10.502,6.396c-3.947,1.527-8.02,2.291-12.221,2.291
			l38.951,62.264h-29.977l-41.814-72.172h18.711c3.818,0,7.127-0.764,9.928-2.293c2.799-1.525,5.125-3.562,6.971-6.109
			c1.844-2.545,3.246-5.441,4.199-8.688c0.957-3.246,1.434-6.521,1.434-9.832c0-3.438-0.477-6.746-1.434-9.93
			c-0.953-3.18-2.418-6.043-4.391-8.592c-1.975-2.545-4.424-4.582-7.352-6.109s-6.365-2.291-10.311-2.291h-21.193v126.016H667.589z"
			/>
	</g>
</g>
</svg>
