<?xml version="1.0" encoding="utf-8"?>
<!-- Generator: Adobe Illustrator 16.0.0, SVG Export Plug-In . SVG Version: 6.00 Build 0)  -->
<!DOCTYPE svg PUBLIC "-//W3C//DTD SVG 1.1//EN" "http://www.w3.org/Graphics/SVG/1.1/DTD/svg11.dtd">
<svg version="1.1" xmlns="http://www.w3.org/2000/svg" xmlns:xlink="http://www.w3.org/1999/xlink" x="0px" y="0px" width="1000px"
	 height="1000px" viewBox="0 0 1000 1000" enable-background="new 0 0 1000 1000" xml:space="preserve">
<g id="Background" display="none">
	<rect x="115" y="40.009" fill="#098A9B" width="805" height="753"/>
</g>
<g id="background_splash" display="none">
	<rect x="-1038.331" y="-895.363" display="inline" fill="#FFFFFF" width="3485.303" height="3815.237"/>
</g>
<g id="Straw_0" display="none">
	<path display="inline" fill="#FFFFFF" d="M493.003,509.005l2.259-1.503l-3.204-1.206l1.998-2.403l-3.474-0.261l1.071-3.213
		l-3.339,0.936l-0.135-2.673l-2.538,1.071l-1.332-2.403l-1.467,1.755c-11.898-2.682-65.844-11.592-65.844-11.592
		s-2.997,3.492-2.997,7.497c0,3.996,3.501,6.498,3.501,6.498l57.717,9.468c0,0,0.153,0.09,0.414,0.262l0.243,0.17l-1.593,2.638
		l2.988-1.611l0.126,0.099l-1.377,3.123l2.781-1.898l0.072,0.072l-1.377,2.889l2.88-1.179l0.027,0.036l-1.305,2.619l2.403-0.189
		c0.495,3.501,18.495,125.505,18.495,125.505s6.507,3.996,12.006-1.503L493.003,509.005"/>
	<path display="inline" fill="#E52629" d="M433.873,501.517c0.009,0.99,0.117,1.899,0.279,2.727l4.338,0.711
		c-0.315-0.908-0.621-2.133-0.612-3.438c0.099-2.691,0.909-5.598,6.534-7.992c0.918-0.369,1.818-0.675,2.7-0.936
		c-2.466-0.423-4.896-0.846-7.254-1.242C435.358,494.164,433.792,498.223,433.873,501.517 M510.553,631.899
		c-0.99,1.396-2.043,2.61-3.051,3.447c-1.179,0.973-2.232,1.395-3.078,1.387c-0.152,0-0.297-0.01-0.441-0.037
		c-1.817-0.287-3.555-0.72-5.166-1.205c0.252,1.691,0.459,3.141,0.639,4.328c1.242,0.324,2.538,0.612,3.897,0.828
		c0.351,0.055,0.711,0.09,1.07,0.09c2.754-0.035,4.995-1.565,6.895-3.5L510.553,631.899 M458.866,494.623
		c-1.881,0.63-3.681,1.467-5.211,2.682c-1.71,1.359-3.087,3.249-3.609,5.599c-0.315,1.403-0.495,2.682-0.558,3.852l3.978,0.656
		c0.027-1.025,0.162-2.213,0.486-3.627c0.315-1.377,1.035-2.411,2.196-3.348c3.33-2.771,10.521-3.582,15.192-3.582
		C467.587,496.161,463.321,495.405,458.866,494.623 M424.468,488.755c-2.79,1.566-5.49,4.186-6.714,8.343
		c-0.414,1.386-0.612,2.754-0.639,4.104c0.234,0.197,0.387,0.306,0.387,0.306l3.618,0.594c-0.009-0.18-0.018-0.368-0.018-0.549
		c0-1.099,0.144-2.196,0.477-3.303c1.143-3.735,3.6-5.589,6.264-6.705c2.421-0.99,4.905-1.188,6.057-1.206
		C430.336,489.735,427.123,489.196,424.468,488.755 M485.146,498.862l-0.837-1.513l-1.467,1.755
		c-1.449-0.332-3.537-0.746-6.066-1.232c-1.395,0.521-2.988,1.296-4.833,2.438c-3.942,2.503-5.913,6.021-6.903,8.991l4.023,0.666
		c0.846-2.214,2.34-4.662,4.986-6.264c4.005-2.475,6.354-2.826,7.371-2.826c0.333,0,0.531,0.036,0.612,0.054l0.009,0.009
		l1.764,0.883L485.146,498.862 M506.044,600.337l-0.64-4.491c-2.043,1.665-4.409,2.925-6.947,3.177
		c-0.801,0.082-1.593,0.117-2.376,0.117c-0.909,0-1.791-0.054-2.646-0.152c0.198,1.377,0.396,2.727,0.594,4.067
		c0.675,0.045,1.35,0.081,2.052,0.081c0.909,0,1.836-0.036,2.79-0.135C501.589,602.704,503.975,601.687,506.044,600.337
		 M502.354,581.419c0.279-0.441,0.549-0.883,0.801-1.323l-1.025-7.19c0.036,1.106-0.387,3.582-1.791,5.769
		c-1.71,2.574-4.743,3.699-6.624,3.753c-0.936,0-1.899-0.207-2.799-0.504c0.216,1.432,0.423,2.861,0.63,4.284
		c0.693,0.126,1.422,0.206,2.169,0.216C496.666,586.477,500.077,585.063,502.354,581.419 M502.462,622.954
		c2.547-0.657,4.581-2.143,6.246-3.969l-0.801-5.644l-0.144,0.243c-1.729,2.799-3.934,4.959-6.229,5.48
		c-0.405,0.09-0.801,0.135-1.197,0.135c-1.269,0.037-2.7-0.485-4.122-1.34c0.243,1.638,0.477,3.213,0.702,4.733
		c1.08,0.369,2.223,0.595,3.42,0.612C501.04,623.206,501.751,623.125,502.462,622.954 M494.929,522.505l-0.918-6.391
		c-1.062,2.205-2.655,4.906-4.806,7.191c-1.917,2.061-4.356,2.799-6.489,2.997c0.18,1.215,0.378,2.538,0.585,3.97
		c2.754-0.289,6.102-1.332,8.82-4.23C493.192,524.899,494.11,523.692,494.929,522.505 M497.674,541.737l-1.341-9.422
		c-0.378,4.733-1.8,7.469-3.438,9.08c-1.908,1.872-4.374,2.467-6.642,2.475c-0.324,0-0.648-0.008-0.954-0.035
		c0.198,1.305,0.396,2.654,0.594,4.023c0.126,0,0.234,0.008,0.36,0.008c2.943,0.01,6.57-0.791,9.441-3.617
		C496.432,543.528,497.089,542.692,497.674,541.737 M500.5,563.338l-0.504-5.994c-0.144,0.315-0.486,2.205-0.666,2.502
		c-1.404,2.214-3.006,5.103-7.668,5.166c-1.188,0-2.259-0.036-3.258-0.09c0.198,1.332,0.396,2.673,0.594,4.022
		c0.846,0.037,1.728,0.063,2.664,0.063C495.784,569.053,498.502,567.01,500.5,563.338"/>
	<path display="inline" fill="#8EB5E1" d="M488.179,498.682L488.179,498.682c0,0-1.008,1.998-3.177,5.661
		s-8.982,11.312-8.982,11.312s4.977-4.311,7.146-6.65c2.169-2.331,5.148-7.65,5.148-7.65L488.179,498.682"/>
	<path display="inline" fill="#8EB5E1" d="M485.146,498.862L485.146,498.862l-1.341,2.961l-0.654-0.328
		c-0.801,1.102-1.715,2.416-2.487,3.676c-1.827,3.006-4.329,7.173-4.329,7.173s4.662-4.338,6.165-7.002s3.141-5.589,3.141-5.589l0,0
		L485.146,498.862"/>
	<path display="inline" fill="#81428C" d="M485.146,498.862c0,0-0.89,1.113-1.995,2.633l0.654,0.328L485.146,498.862"/>
	<path display="inline" fill="#8EB5E1" d="M493.336,504.172l-10.17,9.504l8.892-7.38L493.336,504.172 M491.653,500.419
		c0,0-3.654,6.093-5.985,8.253c-2.331,2.169-5.67,6.174-5.67,6.174s10.341-10.269,10.584-11.214
		C490.834,502.678,491.653,500.419,491.653,500.419"/>
	
		<radialGradient id="SVGID_1_" cx="104.3037" cy="739.208" r="0.4756" gradientTransform="matrix(400.8497 0 0 -400.8497 -41150.25 296829.5938)" gradientUnits="userSpaceOnUse">
		<stop  offset="0" style="stop-color:#87B089"/>
		<stop  offset="0.2005" style="stop-color:#88AD8B"/>
		<stop  offset="0.455" style="stop-color:#87A490"/>
		<stop  offset="0.7376" style="stop-color:#869595"/>
		<stop  offset="0.8352" style="stop-color:#868F97"/>
		<stop  offset="1" style="stop-color:#848189"/>
	</radialGradient>
	<path display="inline" fill="url(#SVGID_1_)" d="M481.204,518.028l-2.106,0.166c0.175,0.016,0.35,0.022,0.526,0.022
		C480.148,518.217,480.677,518.149,481.204,518.028"/>
	<path display="inline" fill="#8EB5E1" d="M491.338,510.508c0,0-3.672,3.33-5.841,5.004c-2.16,1.665-6.399,2.683-6.399,2.683l0,0
		l0,0l2.106-0.166C486.329,516.846,491.338,510.508,491.338,510.508"/>
	
		<radialGradient id="SVGID_2_" cx="104.3062" cy="738.4072" r="0.9789" gradientTransform="matrix(400.8497 0 0 -400.8497 -41150.25 296829.5938)" gradientUnits="userSpaceOnUse">
		<stop  offset="0" style="stop-color:#AAC36A"/>
		<stop  offset="0.19" style="stop-color:#ABBF6D"/>
		<stop  offset="0.4352" style="stop-color:#ABB573"/>
		<stop  offset="0.7095" style="stop-color:#AAA47B"/>
		<stop  offset="0.8352" style="stop-color:#AA997D"/>
		<stop  offset="1" style="stop-color:#A78568"/>
	</radialGradient>
	<path display="inline" fill="url(#SVGID_2_)" d="M468.676,509.903l6.957,1.334c-0.261-0.172-0.414-0.262-0.414-0.262l-6.155-1.01
		c0,0.001,0,0.002,0,0.002L468.676,509.903 M414.253,497.755c0.495,1.251,1.494,2.007,1.494,2.007l0.009,0.002
		c-0.423-0.543-0.847-1.204-1.171-1.966L414.253,497.755"/>
	<path display="inline" fill="#AFCBEC" d="M472.098,505.214c-1.475,1.436-2.423,3.154-3.034,4.752l6.155,1.01
		c0,0,0.153,0.09,0.414,0.262l0,0l2.619-5.229L472.098,505.214 M454.225,502.909c-0.111,0.277-0.202,0.567-0.272,0.875
		c-0.281,1.225-0.419,2.281-0.469,3.209l11.587,2.22c0.498-1.468,1.235-3.065,2.331-4.604L454.225,502.909 M437.923,500.808
		c-0.022,0.237-0.036,0.475-0.045,0.709c-0.006,0.918,0.144,1.795,0.342,2.551l11.303,2.166c0.083-1.025,0.254-2.132,0.522-3.33
		c0.039-0.175,0.083-0.347,0.131-0.516L437.923,500.808 M421.458,498.685c-0.182,0.705-0.288,1.406-0.332,2.107l12.866,2.466
		c-0.07-0.55-0.114-1.13-0.119-1.741c-0.01-0.398,0.005-0.809,0.045-1.226L421.458,498.685 M414.585,497.798
		c0.325,0.762,0.748,1.423,1.171,1.966l1.425,0.272c0.059-0.617,0.155-1.24,0.294-1.865L414.585,497.798"/>
	<path display="inline" fill="#A1366D" d="M467.4,504.608c-1.096,1.539-1.833,3.137-2.331,4.604l3.606,0.69l0.387,0.064
		c0,0,0-0.001,0-0.002c0.611-1.598,1.559-3.316,3.034-4.752L467.4,504.608 M450.177,502.388c-0.048,0.169-0.092,0.341-0.131,0.516
		c-0.269,1.198-0.439,2.305-0.522,3.33l3.959,0.76c0.05-0.928,0.188-1.984,0.469-3.209c0.07-0.308,0.161-0.598,0.272-0.875
		L450.177,502.388 M433.918,500.291c-0.041,0.417-0.055,0.827-0.045,1.226c0.005,0.611,0.049,1.191,0.119,1.741l4.228,0.81
		c-0.199-0.756-0.349-1.633-0.342-2.551c0.009-0.234,0.023-0.472,0.045-0.709L433.918,500.291 M417.476,498.171
		c-0.139,0.625-0.235,1.248-0.294,1.865l3.944,0.756c0.044-0.701,0.15-1.402,0.332-2.107L417.476,498.171"/>
	<path display="inline" fill="#AFCBEC" d="M488.899,547.649c-0.679,0.117-1.346,0.182-1.987,0.205
		c0.734,3.992,1.495,8.105,2.25,12.153h1.613L488.899,547.649 M486.174,529.701c-0.85,0.255-1.684,0.422-2.475,0.524
		c0.718,3.972,1.569,8.656,2.482,13.645c0.024,0,0.048,0,0.072,0c0.671-0.002,1.359-0.057,2.045-0.18L486.174,529.701
		 M484.246,517.006l-2.745,0.999c0,0,0.57,3.195,1.484,8.27c0.835-0.094,1.71-0.275,2.579-0.587L484.246,517.006"/>
	<path display="inline" fill="#A1366D" d="M488.298,543.69c-0.686,0.123-1.374,0.178-2.045,0.18c-0.024,0-0.048,0-0.072,0
		c0.24,1.31,0.484,2.641,0.731,3.984c0.641-0.023,1.308-0.088,1.987-0.205L488.298,543.69 M485.564,525.688
		c-0.869,0.312-1.744,0.493-2.579,0.587c0.219,1.215,0.458,2.539,0.713,3.951c0.792-0.103,1.625-0.27,2.475-0.524L485.564,525.688"
		/>
	
		<radialGradient id="SVGID_3_" cx="104.2817" cy="738.3711" r="1.002" gradientTransform="matrix(400.8497 0 0 -400.8497 -41150.25 296829.5938)" gradientUnits="userSpaceOnUse">
		<stop  offset="0" style="stop-color:#F5E829"/>
		<stop  offset="0.2724" style="stop-color:#F7E527"/>
		<stop  offset="0.6175" style="stop-color:#FBDE23"/>
		<stop  offset="0.8352" style="stop-color:#FED720"/>
		<stop  offset="1" style="stop-color:#FBC711"/>
	</radialGradient>
	<path display="inline" fill="url(#SVGID_3_)" d="M494.278,517.929l2.055,14.387l0,0l0.06,0.42l1.339,9.369
		C496.611,532.436,495.415,523.591,494.278,517.929"/>
	<path display="inline" fill="#F9EF88" d="M496.393,532.735l1.281,9.002c-0.585,0.955-1.242,1.791-1.98,2.512
		c-0.498,0.49-1.02,0.92-1.556,1.295c0.993,5.125,1.906,9.967,2.738,14.464h2.352c0.034-0.054,0.068-0.108,0.103-0.162
		c0.062-0.103,0.144-0.396,0.229-0.747c-0.569-5.643-1.186-11.453-1.828-16.994L496.393,532.735 M494.256,517.823l0.673,4.682
		c-0.819,1.188-1.737,2.395-2.808,3.537c-0.346,0.369-0.702,0.707-1.065,1.018c0.44,3.68,1.142,8.259,2.209,13.949
		c1.479-1.652,2.719-4.319,3.068-8.693l-2.055-14.387C494.271,517.894,494.264,517.859,494.256,517.823 M492,511.521
		c-0.188,0-0.37,0.173-0.545,0.535c0,0-1.513,0.76-0.91,9.689c1.438-1.828,2.562-3.779,3.383-5.461
		C493.25,513.28,492.598,511.521,492,511.521"/>
	<path display="inline" fill="#F1891A" d="M499.56,559.099c-0.086,0.352-0.167,0.645-0.229,0.747
		c-0.034,0.054-0.068,0.108-0.103,0.162h0.423C499.621,559.706,499.59,559.401,499.56,559.099 M496.333,532.315L496.333,532.315
		c-0.35,4.374-1.59,7.041-3.068,8.693c0.141,0.749,0.287,1.516,0.44,2.305c0.146,0.748,0.291,1.492,0.433,2.23
		c0.536-0.375,1.058-0.805,1.556-1.295c0.738-0.721,1.395-1.557,1.98-2.512l-1.281-9.002L496.333,532.315 M493.928,516.284
		c-0.821,1.682-1.945,3.633-3.383,5.461c0.103,1.521,0.267,3.281,0.511,5.314c0.363-0.311,0.72-0.648,1.065-1.018
		c1.071-1.143,1.989-2.35,2.808-3.537l-0.673-4.682C494.146,517.28,494.037,516.767,493.928,516.284"/>
	<path display="inline" fill="#F8EE7B" d="M470.676,496.86c-2.758,0.043-6.222,0.361-9.25,1.16c1.469,0.143,2.838,0.303,4.074,0.49
		c3.183,0.482,5.75,0.798,7.818,0.99c1.228-0.688,2.334-1.2,3.338-1.583C475.007,497.624,472.979,497.266,470.676,496.86
		 M446.79,492.687c-0.779,0.238-1.571,0.514-2.378,0.838c-2.317,0.986-3.817,2.061-4.787,3.169c4.624,0.29,9.414,0.498,13.856,0.752
		c0.057-0.048,0.115-0.095,0.173-0.141c1.442-1.145,3.123-1.954,4.886-2.57C454.738,494.07,450.738,493.373,446.79,492.687
		 M433.39,490.356c-1.282,0.064-3.438,0.326-5.547,1.188c-1.677,0.702-3.273,1.698-4.51,3.272c3.251,0.723,7.335,1.2,11.752,1.555
		c0.916-1.777,2.399-3.5,4.608-4.92C437.514,491.073,435.397,490.704,433.39,490.356 M416.998,487.513L416.998,487.513
		c-2.097,2.816-0.896,4.74,2.314,6.091c1.363-2.185,3.201-3.737,5.084-4.808C419.87,488.011,416.998,487.513,416.998,487.513
		L416.998,487.513"/>
	<path display="inline" fill="#F4941B" d="M476.656,497.918c-1.004,0.383-2.11,0.896-3.338,1.583
		c1.958,0.182,3.466,0.253,4.622,0.253c3.95,0,3.776-0.839,3.31-0.991C481.13,498.723,479.431,498.412,476.656,497.918
		 M458.541,494.734c-1.763,0.616-3.444,1.426-4.886,2.57c-0.058,0.046-0.116,0.093-0.173,0.141c2.835,0.162,5.526,0.343,7.943,0.575
		c3.028-0.799,6.493-1.117,9.25-1.16C467.146,496.239,462.977,495.509,458.541,494.734 M439.694,491.452
		c-2.209,1.42-3.692,3.143-4.608,4.92c1.481,0.119,3.002,0.225,4.54,0.321c0.97-1.108,2.469-2.183,4.787-3.169
		c0.807-0.324,1.599-0.6,2.378-0.838C444.388,492.268,442.006,491.854,439.694,491.452 M424.396,488.796
		c-1.884,1.07-3.721,2.623-5.084,4.808c1.116,0.47,2.474,0.869,4.021,1.214c1.237-1.574,2.833-2.57,4.51-3.272
		c2.109-0.862,4.265-1.124,5.547-1.188C430.011,489.77,426.942,489.237,424.396,488.796"/>
</g>
<g id="straw_1" display="none">
	<linearGradient id="SVGID_4_" gradientUnits="userSpaceOnUse" x1="575.2734" y1="439.333" x2="664.58" y2="420.1956">
		<stop  offset="0" style="stop-color:#FFED00"/>
		<stop  offset="0.2254" style="stop-color:#FFEC00"/>
		<stop  offset="0.3662" style="stop-color:#FFE600"/>
		<stop  offset="0.4838" style="stop-color:#FFDD00"/>
		<stop  offset="0.5886" style="stop-color:#FFCF00"/>
		<stop  offset="0.6849" style="stop-color:#FCBC00"/>
		<stop  offset="0.7737" style="stop-color:#F7A400"/>
		<stop  offset="0.8242" style="stop-color:#F39200"/>
		<stop  offset="0.8491" style="stop-color:#F49900"/>
		<stop  offset="0.8896" style="stop-color:#F6AC00"/>
		<stop  offset="0.9407" style="stop-color:#F9C800"/>
		<stop  offset="1" style="stop-color:#FCEA10"/>
	</linearGradient>
	<polyline display="inline" fill-rule="evenodd" clip-rule="evenodd" fill="url(#SVGID_4_)" points="709.234,843.962 
		484.203,14.347 528.207,6.875 755.648,845.182 	"/>
	<linearGradient id="SVGID_5_" gradientUnits="userSpaceOnUse" x1="273.5967" y1="59.8525" x2="335.8698" y2="123.6069">
		<stop  offset="0" style="stop-color:#FCEA10"/>
		<stop  offset="0.2254" style="stop-color:#FCE90F"/>
		<stop  offset="0.3662" style="stop-color:#FCE40C"/>
		<stop  offset="0.4838" style="stop-color:#FBDB07"/>
		<stop  offset="0.5886" style="stop-color:#FACE00"/>
		<stop  offset="0.6849" style="stop-color:#F8BC00"/>
		<stop  offset="0.7737" style="stop-color:#F5A300"/>
		<stop  offset="0.8242" style="stop-color:#F39200"/>
		<stop  offset="0.8491" style="stop-color:#F49900"/>
		<stop  offset="0.8896" style="stop-color:#F6AC00"/>
		<stop  offset="0.9407" style="stop-color:#F9C800"/>
		<stop  offset="1" style="stop-color:#FCEA10"/>
	</linearGradient>
	<polygon display="inline" fill-rule="evenodd" clip-rule="evenodd" fill="url(#SVGID_5_)" points="449.869,7.244 191.132,202.459 
		160.048,176.678 418.864,-18.594 	"/>
	<path display="inline" fill="#2B307B" d="M164.068,179.987l258.9-195.086l2.855,2.325L166.928,182.313L164.068,179.987z
		 M444.932,3.075l-260.29,193.996l-2.793-2.325L442.071,0.751L444.932,3.075z"/>
	<polyline display="inline" fill-rule="evenodd" clip-rule="evenodd" fill="#2B307B" points="717.516,844.261 492.856,12.873 
		496.891,12.207 721.763,844.387 	"/>
	<polyline display="inline" fill-rule="evenodd" clip-rule="evenodd" fill="#2B307B" points="744.584,844.997 520.247,8.222 
		524.192,7.556 748.759,845.061 	"/>
	<linearGradient id="SVGID_6_" gradientUnits="userSpaceOnUse" x1="449.5225" y1="-40.6211" x2="513.0526" y2="48.8227">
		<stop  offset="0" style="stop-color:#FCEA10"/>
		<stop  offset="0.2254" style="stop-color:#FCE90F"/>
		<stop  offset="0.3662" style="stop-color:#FCE40C"/>
		<stop  offset="0.4838" style="stop-color:#FBDB07"/>
		<stop  offset="0.5886" style="stop-color:#FACE00"/>
		<stop  offset="0.6849" style="stop-color:#F8BC00"/>
		<stop  offset="0.7737" style="stop-color:#F5A300"/>
		<stop  offset="0.8242" style="stop-color:#F39200"/>
		<stop  offset="0.8491" style="stop-color:#F49900"/>
		<stop  offset="0.8896" style="stop-color:#F6AC00"/>
		<stop  offset="0.9407" style="stop-color:#F9C800"/>
		<stop  offset="1" style="stop-color:#FCEA10"/>
	</linearGradient>
	<path display="inline" fill-rule="evenodd" clip-rule="evenodd" fill="url(#SVGID_6_)" d="M446.951-31.638l-7.512,6.735
		l-20.575,6.372c9.28,8.932,19.414,17.814,30.778,26.753l0,0l0.626-6.182l4.781,4.346l2.393-6.671l3.104,6.486l3.475-6.798
		l2.179,6.557l4.709-5.635l2.016,6.975l6.8-5.204l-0.765,7.898l7.116-2.694l-1.784,7.415c15.311-1.957,30.46-4.104,43.986-7.897
		l-16.238-19.841l-2.394-8.202l-12.364-0.553l-4.427-6.011l-10.973,1.716l-4.87-6.054"/>
	<linearGradient id="SVGID_7_" gradientUnits="userSpaceOnUse" x1="451.9263" y1="-35.2041" x2="458.4001" y2="-26.0896">
		<stop  offset="0" style="stop-color:#FCEA10"/>
		<stop  offset="0.2254" style="stop-color:#FCE90F"/>
		<stop  offset="0.3662" style="stop-color:#FCE40C"/>
		<stop  offset="0.4838" style="stop-color:#FBDB07"/>
		<stop  offset="0.5886" style="stop-color:#FACE00"/>
		<stop  offset="0.6849" style="stop-color:#F8BC00"/>
		<stop  offset="0.7737" style="stop-color:#F5A300"/>
		<stop  offset="0.8242" style="stop-color:#F39200"/>
		<stop  offset="0.8491" style="stop-color:#F49900"/>
		<stop  offset="0.8896" style="stop-color:#F6AC00"/>
		<stop  offset="0.9407" style="stop-color:#F9C800"/>
		<stop  offset="1" style="stop-color:#FCEA10"/>
	</linearGradient>
	<polyline display="inline" fill-rule="evenodd" clip-rule="evenodd" fill="url(#SVGID_7_)" points="461.398,-32.438 
		455.281,-27.052 446.951,-31.638 	"/>
	<linearGradient id="SVGID_8_" gradientUnits="userSpaceOnUse" x1="466.4971" y1="-36.0957" x2="473.5269" y2="-26.1984">
		<stop  offset="0" style="stop-color:#FCEA10"/>
		<stop  offset="0.2254" style="stop-color:#FCE90F"/>
		<stop  offset="0.3662" style="stop-color:#FCE40C"/>
		<stop  offset="0.4838" style="stop-color:#FBDB07"/>
		<stop  offset="0.5886" style="stop-color:#FACE00"/>
		<stop  offset="0.6849" style="stop-color:#F8BC00"/>
		<stop  offset="0.7737" style="stop-color:#F5A300"/>
		<stop  offset="0.8242" style="stop-color:#F39200"/>
		<stop  offset="0.8491" style="stop-color:#F49900"/>
		<stop  offset="0.8896" style="stop-color:#F6AC00"/>
		<stop  offset="0.9407" style="stop-color:#F9C800"/>
		<stop  offset="1" style="stop-color:#FCEA10"/>
	</linearGradient>
	<polyline display="inline" fill-rule="evenodd" clip-rule="evenodd" fill="url(#SVGID_8_)" points="477.014,-32.126 
		468.356,-27.292 461.398,-32.438 	"/>
	<linearGradient id="SVGID_9_" gradientUnits="userSpaceOnUse" x1="453.1211" y1="-40.0449" x2="444.6156" y2="4.9632">
		<stop  offset="0" style="stop-color:#F2FAFF"/>
		<stop  offset="0.2739" style="stop-color:#EFF6FB"/>
		<stop  offset="0.514" style="stop-color:#E5EAEE"/>
		<stop  offset="0.7415" style="stop-color:#D4D7DA"/>
		<stop  offset="0.96" style="stop-color:#BDBEBE"/>
		<stop  offset="1" style="stop-color:#B8B8B8"/>
	</linearGradient>
	<polyline display="inline" fill-rule="evenodd" clip-rule="evenodd" fill="url(#SVGID_9_)" points="446.951,-31.638 
		439.508,-24.967 450.18,2.778 450.269,2.041 455.05,6.387 455.212,5.84 447.014,-31.575 	"/>
	<linearGradient id="SVGID_10_" gradientUnits="userSpaceOnUse" x1="463.2749" y1="-38.7866" x2="454.6859" y2="6.663">
		<stop  offset="0" style="stop-color:#F2FAFF"/>
		<stop  offset="0.2739" style="stop-color:#EFF6FB"/>
		<stop  offset="0.514" style="stop-color:#E5EAEE"/>
		<stop  offset="0.7415" style="stop-color:#D4D7DA"/>
		<stop  offset="0.96" style="stop-color:#BDBEBE"/>
		<stop  offset="1" style="stop-color:#B8B8B8"/>
	</linearGradient>
	<polyline display="inline" fill-rule="evenodd" clip-rule="evenodd" fill="url(#SVGID_10_)" points="461.398,-32.438 
		455.281,-27.052 455.281,-27.052 455.281,-26.923 457.443,-0.165 457.443,-0.284 460.477,6.024 460.626,5.777 461.471,-32.375 	"/>
	<linearGradient id="SVGID_11_" gradientUnits="userSpaceOnUse" x1="474.1011" y1="-37.395" x2="465.4272" y2="8.5042">
		<stop  offset="0" style="stop-color:#F2FAFF"/>
		<stop  offset="0.2739" style="stop-color:#EFF6FB"/>
		<stop  offset="0.514" style="stop-color:#E5EAEE"/>
		<stop  offset="0.7415" style="stop-color:#D4D7DA"/>
		<stop  offset="0.96" style="stop-color:#BDBEBE"/>
		<stop  offset="1" style="stop-color:#B8B8B8"/>
	</linearGradient>
	<polyline display="inline" fill-rule="evenodd" clip-rule="evenodd" fill="url(#SVGID_11_)" points="476.941,-32.07 
		468.356,-27.35 463.951,-0.468 464.021,-0.596 466.04,5.408 476.941,-32.07 	"/>
	<linearGradient id="SVGID_12_" gradientUnits="userSpaceOnUse" x1="485.9204" y1="-35.8521" x2="477.1685" y2="10.4596">
		<stop  offset="0" style="stop-color:#F2FAFF"/>
		<stop  offset="0.2739" style="stop-color:#EFF6FB"/>
		<stop  offset="0.514" style="stop-color:#E5EAEE"/>
		<stop  offset="0.7415" style="stop-color:#D4D7DA"/>
		<stop  offset="0.96" style="stop-color:#BDBEBE"/>
		<stop  offset="1" style="stop-color:#B8B8B8"/>
	</linearGradient>
	<polygon display="inline" fill-rule="evenodd" clip-rule="evenodd" fill="url(#SVGID_12_)" points="470.91,0.326 472.835,7.06 
		473.158,7.124 473.462,6.875 492.555,-27.717 482.277,-26.13 482.277,-26.002 	"/>
	<linearGradient id="SVGID_13_" gradientUnits="userSpaceOnUse" x1="499.3535" y1="-34.2041" x2="490.4882" y2="12.7078">
		<stop  offset="0" style="stop-color:#F2FAFF"/>
		<stop  offset="0.2739" style="stop-color:#EFF6FB"/>
		<stop  offset="0.514" style="stop-color:#E5EAEE"/>
		<stop  offset="0.7415" style="stop-color:#D4D7DA"/>
		<stop  offset="0.96" style="stop-color:#BDBEBE"/>
		<stop  offset="1" style="stop-color:#B8B8B8"/>
	</linearGradient>
	<polygon display="inline" fill-rule="evenodd" clip-rule="evenodd" fill="url(#SVGID_13_)" points="479.42,2.409 479.726,2.097 
		478.961,9.995 479.332,9.881 509.812,-20.678 509.647,-21.225 497.425,-21.777 	"/>
	<linearGradient id="SVGID_14_" gradientUnits="userSpaceOnUse" x1="514.3164" y1="-31.7275" x2="505.448" y2="15.2008">
		<stop  offset="0" style="stop-color:#F2FAFF"/>
		<stop  offset="0.2739" style="stop-color:#EFF6FB"/>
		<stop  offset="0.514" style="stop-color:#E5EAEE"/>
		<stop  offset="0.7415" style="stop-color:#D4D7DA"/>
		<stop  offset="0.96" style="stop-color:#BDBEBE"/>
		<stop  offset="1" style="stop-color:#B8B8B8"/>
	</linearGradient>
	<path display="inline" fill-rule="evenodd" clip-rule="evenodd" fill="url(#SVGID_14_)" d="M486.077,7.493l-1.784,7.223
		c15.311-1.957,30.46-4.104,43.986-7.897l-16.238-19.841l-0.073-0.305l-0.3,0.184L486.077,7.493z"/>
</g>
<g id="Straw_2-2" display="none">
	<path display="inline" fill="#FFFFFF" d="M608.938,281.817l10.175-15.914l-23.8,1.306l5.985-20.921l-22.868,8.089l-2.193-23.475
		l-18.646,15.334l-8.362-16.654l-13.165,13.948l-15.232-11.574l-4.421,15.304C433.071,263.563,64.342,358.199,64.342,358.199
		s-9.294,30.661,1.947,56.178c11.215,25.463,40.544,31.579,40.544,31.579l394.321-101.667c0,0,1.229,0.145,3.37,0.503l2.03,0.404
		l-2.746,21.273l14.515-18.65l1.08,0.278l-0.01,23.764l12.391-19.905l0.661,0.254l-0.666,22.274l15.042-15.593l0.27,0.151
		l-0.959,20.349l14.778-7.949c7.105,11.451,147.304,234.446,272.749,433.947c22.109-19.823,42.442-41.585,60.732-65.02
		L608.938,281.817z"/>
	<path display="inline" fill="#E52629" d="M211.168,400.062c2.835,6.283,6.078,11.773,9.43,16.593l29.638-7.646
		c-4.56-4.905-9.944-11.846-13.55-20.187c-6.921-17.424-9.918-38.218,19.203-69.259c4.813-4.93,9.688-9.406,14.575-13.541
		c-16.898,4.227-33.57,8.349-49.707,12.445C199.992,349.048,201.406,379.302,211.168,400.062 M351.067,285.994
		c-10.22,9.293-19.34,19.675-25.679,31.713c-7.082,13.458-10.551,29.365-7.282,45.797c1.933,9.827,4.373,18.478,7.255,26.109
		l27.19-6.98c-2.704-6.614-5.182-14.562-7.082-24.475c-1.858-9.656-0.176-18.271,4.595-27.493
		c13.439-27.007,56.982-52.352,86.743-65.462C410.948,271.319,381.646,278.476,351.067,285.994 M115.424,345.146
		c-13.38,17.809-23.233,42.075-19.363,72c1.251,9.994,3.83,19.264,7.448,27.942c2.047,0.605,3.324,0.866,3.324,0.866l24.719-6.374
		c-0.563-1.117-1.149-2.295-1.655-3.445c-3.082-6.997-5.245-14.396-6.229-22.383c-3.201-27.006,7.25-45.716,21.091-60.301
		c12.649-13.106,27.919-21.336,35.208-24.686C155.566,334.928,133.58,340.505,115.424,345.146 M530.407,239.242l-9.577-7.286
		l-4.421,15.304c-10.166,1.942-24.632,5.165-42.111,9.163c-7.424,7.244-15.4,16.648-23.95,29.106
		c-18.093,27.008-20.776,54.963-18.746,76.664l27.501-7.048c-0.821-16.481,1.825-36.272,14.188-53.906
		c18.573-27.009,32.553-35.837,39.033-38.693c2.122-0.935,3.487-1.261,4.052-1.376l0.083,0.034l13.714,0.668L530.407,239.242
		 M871.758,716.966c0.539-3.594,1.021-7.16,1.389-10.68l-26.718-42.938c3.335,6.951,7.588,23.91,4.779,41.783
		c-3.669,21.203-19.836,36.881-31.673,42.504c-5.964,2.627-12.681,4.012-19.246,4.646c5.392,8.514,10.723,17.043,16.037,25.529
		c4.769-1.143,9.638-2.68,14.425-4.713C849.713,765.153,867.48,746.577,871.758,716.966 M659.099,362.429l-23.785-38.14
		c-0.576,17.031-3.149,38.708-10.438,59.307c-6.43,18.513-19.896,30.061-32.934,37.31c4.556,7.233,9.529,15.109,14.866,23.647
		c16.742-9.565,35.142-25.613,44.328-51.708C654.748,382.558,657.213,372.295,659.099,362.429 M730.567,477.271l-34.99-56.276
		c10.879,31.222,9.497,52.645,3.581,67.508c-6.902,17.281-20.948,27.988-35.375,34.411c-2.063,0.909-4.154,1.759-6.178,2.45
		c4.926,7.756,9.973,15.803,15.077,23.966c0.801-0.354,1.513-0.603,2.314-0.956c18.78-8.2,39.643-23.486,50.003-49.547
		C727.684,492.165,729.519,484.989,730.567,477.271 M811.027,606.456l-21.745-34.934c-0.034,2.412,2.973,14.078,2.662,16.475
		c-2.733,18.047-4.831,40.951-34.358,54.436c-7.571,3.336-14.498,6.111-21.014,8.572c5,7.932,10.025,15.92,15.079,23.967
		c5.486-2.143,11.185-4.449,17.149-7.076C795.189,656.61,808.604,635.458,811.027,606.456"/>
	<path display="inline" fill="#8EB5E1" d="M549.228,229.582L549.228,229.582c0,0-0.815,15.56-4.355,44.986
		c-3.538,29.429-25.479,97.293-25.479,97.293s19.614-41.438,26.866-62.433c7.277-20.94,11.33-63.192,11.33-63.192L549.228,229.582"
		/>
	<path display="inline" fill="#8EB5E1" d="M530.407,239.242L530.407,239.242l-0.234,22.63l-5.086-0.248
		c-2.013,9.266-4.149,20.208-5.529,30.395c-3.206,24.282-7.451,57.854-7.451,57.854s17.53-40.725,19.629-61.917
		c2.101-21.193,4.327-44.427,4.327-44.427l0,0L530.407,239.242"/>
	<path display="inline" fill="#81428C" d="M530.407,239.242c0,0-2.542,9.593-5.32,22.383l5.086,0.248L530.407,239.242"/>
	<path display="inline" fill="#8EB5E1" d="M597.492,250.09l-38.123,89.098l35.943-71.98L597.492,250.09 M576.236,230.901
		c0,0-6.182,49.075-14.97,69.381c-8.765,20.361-18.799,55.251-18.799,55.251s37.066-94.454,35.962-101.158
		C577.359,247.591,576.236,230.901,576.236,230.901"/>
	
		<radialGradient id="SVGID_15_" cx="107.1626" cy="739.4473" r="3.2449" gradientTransform="matrix(366.837 -161.5894 -161.5894 -366.837 81851.9297 288454.1562)" gradientUnits="userSpaceOnUse">
		<stop  offset="0" style="stop-color:#87B089"/>
		<stop  offset="0.2005" style="stop-color:#88AD8B"/>
		<stop  offset="0.455" style="stop-color:#87A490"/>
		<stop  offset="0.7376" style="stop-color:#869595"/>
		<stop  offset="0.8352" style="stop-color:#868F97"/>
		<stop  offset="1" style="stop-color:#848189"/>
	</radialGradient>
	<path display="inline" fill="url(#SVGID_15_)" d="M559.084,372.427l-12.952,6.964c1.157-0.39,2.293-0.835,3.414-1.328
		C552.887,376.591,556.065,374.679,559.084,372.427"/>
	<path display="inline" fill="#8EB5E1" d="M602.546,296.066c0,0-14.049,31.523-23.17,48.276
		c-9.092,16.673-33.244,35.049-33.244,35.049l0,0l0,0l12.952-6.964C588.416,350.508,602.546,296.066,602.546,296.066"/>
	
		<radialGradient id="SVGID_16_" cx="107.2354" cy="733.8164" r="6.8627" gradientTransform="matrix(366.837 -161.5894 -161.5894 -366.837 81851.9297 288454.1562)" gradientUnits="userSpaceOnUse">
		<stop  offset="0" style="stop-color:#AAC36A"/>
		<stop  offset="0.19" style="stop-color:#ABBF6D"/>
		<stop  offset="0.4352" style="stop-color:#ABB573"/>
		<stop  offset="0.7095" style="stop-color:#AAA47B"/>
		<stop  offset="0.8352" style="stop-color:#AA997D"/>
		<stop  offset="1" style="stop-color:#A78568"/>
	</radialGradient>
	<path display="inline" fill="url(#SVGID_16_)" d="M456.456,355.823l48.068-11.031c-2.141-0.359-3.37-0.503-3.37-0.503
		l-42.054,10.843c0.003,0.004,0,0.01,0.002,0.013L456.456,355.823 M75.598,431.16c6.666,6.583,15.153,8.595,15.153,8.595
		l0.064-0.014c-4.221-2.271-8.773-5.293-12.983-9.241L75.598,431.16"/>
	<path display="inline" fill="#AFCBEC" d="M465.098,316.34c-5.371,13.283-6.588,26.901-5.997,38.792l42.054-10.843
		c0,0,1.229,0.145,3.37,0.503l0,0l2.014-40.668L465.098,316.34 M344.749,351.815c0.067,2.076,0.302,4.182,0.72,6.343
		c1.65,8.591,3.729,15.707,6.013,21.758l80.061-18.375c-0.95-10.748-0.734-22.994,1.926-35.88L344.749,351.815 M234.98,384.174
		c0.527,1.579,1.103,3.125,1.706,4.648c2.536,5.866,5.952,11.031,9.34,15.294l78.099-17.923c-2.346-6.771-4.367-14.3-6.019-22.69
		c-0.239-1.222-0.442-2.439-0.613-3.654L234.98,384.174 M124.115,416.858c0.82,5.003,2.114,9.776,3.801,14.366l88.897-20.401
		c-1.989-3.302-3.896-6.88-5.646-10.76c-1.181-2.512-2.237-5.162-3.151-7.938L124.115,416.858 M77.833,430.5
		c4.21,3.948,8.762,6.97,12.983,9.241l9.848-2.264c-1.362-4.102-2.491-8.337-3.366-12.713L77.833,430.5"/>
	<path display="inline" fill="#A1366D" d="M433.469,325.662c-2.66,12.886-2.876,25.132-1.926,35.88l24.913-5.719l2.646-0.679
		c-0.002-0.003,0.001-0.008-0.002-0.013c-0.591-11.89,0.626-25.509,5.997-38.792L433.469,325.662 M317.493,359.85
		c0.17,1.215,0.374,2.432,0.613,3.654c1.652,8.39,3.673,15.919,6.019,22.69l27.357-6.277c-2.285-6.052-4.363-13.167-6.013-21.758
		c-0.418-2.161-0.653-4.268-0.72-6.343L317.493,359.85 M208.017,392.125c0.914,2.775,1.97,5.426,3.151,7.938
		c1.75,3.88,3.656,7.458,5.646,10.76l29.212-6.706c-3.388-4.263-6.804-9.428-9.34-15.294c-0.603-1.523-1.178-3.07-1.706-4.648
		L208.017,392.125 M97.298,424.764c0.875,4.376,2.004,8.612,3.366,12.713l27.252-6.253c-1.688-4.59-2.981-9.363-3.801-14.366
		L97.298,424.764"/>
	<g display="inline">
		<path fill="#AFCBEC" d="M663.321,523.113c0.157-0.07,0.311-0.134,0.462-0.199c4.269-1.899,8.499-4.175,12.525-6.885
			l-52.798-83.177c-4.696,4.012-9.542,7.415-14.297,10.289C624.938,466.433,643.503,493.89,663.321,523.113z"/>
		<path fill="#AFCBEC" d="M608.364,408.99l-32.767-51.617l-14.688,14.069c0,0,12.599,18.757,32.67,48.529
			C598.634,417.024,603.705,413.415,608.364,408.99z"/>
		<path fill="#AFCBEC" d="M691.251,539.567c-4.002,2.646-8.072,4.929-12.087,6.885c7.465,10.986,82.393,128.613,161.389,252.651
			c3.316-3.086,6.586-6.221,9.816-9.395L691.251,539.567z"/>
	</g>
	<path display="inline" fill="#A1366D" d="M676.309,516.029c-4.026,2.71-8.257,4.985-12.525,6.885
		c-0.151,0.065-0.305,0.129-0.462,0.199c5.203,7.671,10.494,15.464,15.843,23.339c4.015-1.956,8.085-4.239,12.087-6.885
		L676.309,516.029 M608.364,408.99c-4.659,4.424-9.73,8.034-14.784,10.982c4.806,7.124,10.041,14.886,15.634,23.168
		c4.755-2.874,9.601-6.276,14.297-10.289L608.364,408.99"/>
	
		<radialGradient id="SVGID_17_" cx="107.1777" cy="733.6504" r="6.9909" gradientTransform="matrix(366.837 -161.5894 -161.5894 -366.837 81851.9297 288454.1562)" gradientUnits="userSpaceOnUse">
		<stop  offset="0" style="stop-color:#F5E829"/>
		<stop  offset="0.2724" style="stop-color:#F7E527"/>
		<stop  offset="0.6175" style="stop-color:#FBDE23"/>
		<stop  offset="0.8352" style="stop-color:#FED720"/>
		<stop  offset="1" style="stop-color:#FBC711"/>
	</radialGradient>
	<path display="inline" fill="url(#SVGID_17_)" d="M642.106,335.099L695.579,421l-0.002-0.006l1.558,2.51l34.83,55.939
		C697.688,420.981,665.24,367.979,642.106,335.099"/>
	<g display="inline">
		<path opacity="0.79" fill="#F9EF88" d="M635.266,325.603c-12.75-17.237-21.848-26.621-25.656-24.942
			c-1.194,0.526-1.869,2.138-1.974,4.939c0,0-7.507,9.084,21.396,64.292C633.062,354.206,634.748,338.625,635.266,325.603z"/>
		<path opacity="0.79" fill="#F9EF88" d="M647.202,402.324c13.133,22.202,30.455,49.411,53.224,82.673
			c4.784-14.674,5.202-35.148-4.847-63.997l-53.473-85.902c-0.147-0.207-0.285-0.4-0.432-0.609l17.424,27.939
			c-1.886,9.867-4.351,20.129-7.963,30.417C649.967,396.167,648.645,399.323,647.202,402.324z"/>
		<path opacity="0.79" fill="#F9EF88" d="M718.722,511.44c9.471,13.661,79.922,129.333,155.316,253.382
			c6.078-6.846,11.964-13.865,17.664-21.039L730.415,478.287c-1.069,7.331-2.851,14.173-5.415,20.54
			C723.202,503.349,721.085,507.547,718.722,511.44z"/>
		<path opacity="0.79" fill="#F9EF88" d="M697.135,423.505l33.28,54.782c0.05-0.34,0.105-0.675,0.152-1.017L697.135,423.505z"/>
	</g>
	<path display="inline" fill="#F1891A" d="M695.577,420.995l0.002,0.006c10.049,28.848,9.631,49.323,4.847,63.997
		c3,4.379,6.079,8.852,9.274,13.447c3.031,4.359,6.044,8.699,9.021,12.996c2.363-3.894,4.48-8.092,6.278-12.613
		c2.684-6.662,4.519-13.838,5.567-21.557l-33.433-53.766L695.577,420.995 M635.266,325.603c-0.518,13.021-2.204,28.603-6.233,44.289
		c4.927,9.409,10.91,20.157,18.17,32.432c1.442-3.001,2.765-6.158,3.934-9.479c3.612-10.287,6.077-20.55,7.963-30.417
		l-17.424-27.939C639.446,331.333,637.311,328.369,635.266,325.603"/>
	<path display="inline" fill="#F8EE7B" d="M432.592,267.103c-17.45,8.016-38.63,19.768-55.685,33.357
		c9.761-3.221,18.936-6.042,27.333-8.313c21.633-5.856,38.878-11.055,52.593-15.637c5.896-7.822,11.504-14.196,16.829-19.453
		C462.329,259.812,448.399,263.222,432.592,267.103 M268.686,307.544c-4.292,3.707-8.568,7.689-12.797,12.02
		c-11.998,12.786-18.538,23.836-21.605,33.623c30.276-11.13,61.377-23.249,90.398-34.1c0.231-0.462,0.466-0.922,0.707-1.38
		c5.973-11.339,14.416-21.213,23.919-30.092C323.214,294.055,295.771,300.841,268.686,307.544 M176.765,330.312
		c-7.988,4.013-20.99,11.727-32.006,23.14c-8.715,9.185-16.087,20.005-19.553,33.505c22.749-4.516,50.109-12.938,79.249-23.073
		c0.848-13.896,5.46-29.038,15.551-44.289C205.052,323.3,190.532,326.895,176.765,330.312 M64.342,358.199L64.342,358.199
		c-5.457,23.829,7.593,32.718,31.839,32.312c2.553-17.748,9.904-32.797,18.902-44.905C84.036,353.307,64.342,358.199,64.342,358.199
		L64.342,358.199"/>
	<path display="inline" fill="#F4941B" d="M473.662,257.058c-5.325,5.257-10.934,11.63-16.829,19.453
		c12.985-4.339,22.796-8.114,30.162-11.358c25.167-11.086,21.701-15.944,18.304-15.604
		C504.43,249.625,492.728,252.417,473.662,257.058 M349.307,287.614c-9.503,8.879-17.946,18.753-23.919,30.092
		c-0.241,0.458-0.476,0.918-0.707,1.38c18.518-6.924,36.169-13.325,52.226-18.626c17.055-13.589,38.234-25.341,55.685-33.357
		C408.361,273.05,379.741,280.1,349.307,287.614 M220.006,319.595c-10.091,15.251-14.704,30.393-15.551,44.289
		c9.773-3.398,19.761-6.997,29.828-10.698c3.067-9.787,9.607-20.837,21.605-33.623c4.229-4.331,8.505-8.313,12.797-12.02
		C252.207,311.619,235.869,315.666,220.006,319.595 M115.083,345.606c-8.998,12.107-16.349,27.157-18.902,44.905
		c8.426-0.14,18.204-1.406,29.025-3.554c3.465-13.5,10.837-24.321,19.553-33.505c11.017-11.414,24.019-19.127,32.006-23.14
		C153.592,336.054,132.543,341.272,115.083,345.606"/>
</g>
<g id="Straw_2">
	<g>
		<circle fill="#098A9B" cx="499.999" cy="417.875" r="364.999"/>
		<g>
			<path fill="#FFFFFF" d="M467.486,290.353l2.704,9.813l9.049-4.258l2.574,10.189l10.125-5.551l2.14,10.561l8.736-4.7
				c7.516,12.109,231.512,368.285,240.889,383.195c12.814-11.541,24.857-23.896,35.928-37.127L531.209,253.419l2.037-11.002
				l-11.422-0.119l-1.064-12.167l-12.092,4.411l-5.289-12.167l-10.529,8.896l-9.2-9.505l-7.144,11.222
				c-49.271,9.638-249.692,87.161-249.692,87.161s-10.929,19.52-4.282,34.605c6.631,15.055,23.972,18.67,23.972,18.67
				L467.486,290.353"/>
		</g>
		<line fill="#8EB5E1" x1="484.781" y1="228.248" x2="484.781" y2="228.248"/>
		
			<radialGradient id="SVGID_18_" cx="103.4341" cy="739.2725" r="0.5339" gradientTransform="matrix(366.8362 -161.5894 -161.5891 -366.837 81850.7031 288454.1562)" gradientUnits="userSpaceOnUse">
			<stop  offset="0" style="stop-color:#AAC36A"/>
			<stop  offset="0.19" style="stop-color:#ABBF6D"/>
			<stop  offset="0.4352" style="stop-color:#ABB573"/>
			<stop  offset="0.7095" style="stop-color:#AAA47B"/>
			<stop  offset="0.8352" style="stop-color:#AA997D"/>
			<stop  offset="1" style="stop-color:#A78568"/>
		</radialGradient>
		<path fill="url(#SVGID_18_)" d="M229.356,364.287c3.941,3.893,7.638,5.472,7.638,5.472l0.037-0.007
			C234.536,368.409,231.846,366.622,229.356,364.287l-1.321,0.391"/>
		<path fill="#AFCBEC" d="M469.479,290.651L469.479,290.651 M442.623,296.764 M229.356,364.287c2.489,2.335,5.18,4.122,7.675,5.465
			l230.455-79.399c-0.805-2.424,2.51-20.951,1.992-23.538L229.356,364.287"/>
		<path fill="#AFCBEC" d="M759.57,674.474L519.039,302.263l-8.686,8.317c0,0,191.998,303.222,237.896,374.87
			C752.104,681.872,755.875,678.212,759.57,674.474z"/>
		<g>
			<path opacity="0.79" fill="#F9EF88" d="M583.354,337.188l19.676,32.389c0.029-0.201,0.064-0.399,0.092-0.602L583.354,337.188z"/>
		</g>
		<path fill="#FFFFFF" d="M493.152,315.412"/>
		<path fill="#AECBEC" d="M483.649,221.767l9.2,9.505c0,0-0.606,15.064-2.508,23.961c-1.9,8.896-15.816,35.359-15.816,35.359
			s8.25-27.079,9.162-38.333S483.649,221.767,483.649,221.767z"/>
		<path fill="#AECBEC" d="M503.379,222.375l5.289,12.167c0,0-0.986,13.541-3.801,24.637c-2.812,11.096-17.49,34.759-17.49,34.759
			s9.495-22.078,11.825-37.758C501.531,240.499,503.379,222.375,503.379,222.375z"/>
		<path fill="#AECBEC" d="M520.76,230.131l1.064,12.167c0,0-2.889,14.865-7.225,26.044c-4.334,11.178-14.591,25.596-14.591,25.596
			s9.503-21.872,12.767-33.01S520.76,230.131,520.76,230.131z"/>
		<path fill="#AECBEC" d="M494.078,311.107c0,0,12.342-14.416,16.838-21.55c4.496-7.135,12.582-19.961,12.582-19.961
			s-4.562,13.855-8.555,20.995c-3.992,7.141-12.129,15.815-12.129,15.815L494.078,311.107z"/>
	</g>
</g>
<g id="icon" display="none">
	<circle display="inline" fill="#098A9B" cx="500.509" cy="417.188" r="364.999"/>
	<g display="inline">
		<path fill="#FFFFFF" d="M467.996,289.665l2.704,9.813l9.049-4.258l2.574,10.189l10.125-5.551l2.14,10.561l8.736-4.7
			c7.516,12.109,312.512,504.371,321.889,519.281c12.814-11.541,24.857-23.896,35.928-37.127L531.719,252.731l2.037-11.002
			l-11.422-0.119l-1.064-12.167l-12.092,4.411l-5.289-12.167l-10.529,8.896l-9.2-9.505l-7.144,11.222
			c-49.271,9.638-249.692,87.161-249.692,87.161s-10.929,19.52-4.282,34.605c6.631,15.055,23.972,18.67,23.972,18.67
			L467.996,289.665"/>
	</g>
	<line display="inline" fill="#8EB5E1" x1="485.291" y1="227.561" x2="485.291" y2="227.561"/>
	
		<radialGradient id="SVGID_19_" cx="103.436" cy="739.2744" r="0.5329" gradientTransform="matrix(366.8362 -161.5894 -161.5891 -366.837 81850.7031 288454.1562)" gradientUnits="userSpaceOnUse">
		<stop  offset="0" style="stop-color:#AAC36A"/>
		<stop  offset="0.19" style="stop-color:#ABBF6D"/>
		<stop  offset="0.4352" style="stop-color:#ABB573"/>
		<stop  offset="0.7095" style="stop-color:#AAA47B"/>
		<stop  offset="0.8352" style="stop-color:#AA997D"/>
		<stop  offset="1" style="stop-color:#A78568"/>
	</radialGradient>
	<path display="inline" fill="url(#SVGID_19_)" d="M229.866,363.6c3.941,3.893,7.638,5.472,7.638,5.472l0.037-0.007
		C235.046,367.722,232.355,365.935,229.866,363.6l-1.321,0.391"/>
	<path display="inline" fill="#AFCBEC" d="M469.988,289.964L469.988,289.964 M443.133,296.076 M229.866,363.6
		c2.489,2.335,5.18,4.122,7.675,5.465l230.455-79.399c-0.805-2.424,2.51-20.951,1.992-23.538L229.866,363.6"/>
	<path display="inline" fill="#AFCBEC" d="M840.08,789.874L519.549,301.575l-8.686,8.317c0,0,271.998,419.31,317.896,490.958
		C832.613,797.272,836.385,793.612,840.08,789.874z"/>
	<g display="inline">
		<path opacity="0.79" fill="#F9EF88" d="M583.863,336.5l19.676,32.389c0.029-0.201,0.064-0.399,0.092-0.602L583.863,336.5z"/>
	</g>
	<path display="inline" fill="#FFFFFF" d="M493.662,314.725"/>
	<path display="inline" fill="#AECBEC" d="M484.159,221.079l9.2,9.505c0,0-0.606,15.064-2.508,23.961
		c-1.9,8.896-15.816,35.359-15.816,35.359s8.25-27.079,9.162-38.333S484.159,221.079,484.159,221.079z"/>
	<path display="inline" fill="#AECBEC" d="M503.889,221.688l5.289,12.167c0,0-0.986,13.541-3.801,24.637
		c-2.812,11.096-17.49,34.759-17.49,34.759s9.495-22.078,11.825-37.758C502.041,239.812,503.889,221.688,503.889,221.688z"/>
	<path display="inline" fill="#AECBEC" d="M521.27,229.443l1.064,12.167c0,0-2.889,14.865-7.225,26.044
		c-4.334,11.178-14.591,25.596-14.591,25.596s9.503-21.872,12.767-33.01S521.27,229.443,521.27,229.443z"/>
	<path display="inline" fill="#AECBEC" d="M494.588,310.42c0,0,12.342-14.416,16.838-21.55c4.496-7.135,12.582-19.961,12.582-19.961
		s-4.562,13.855-8.555,20.995c-3.992,7.141-12.129,15.815-12.129,15.815L494.588,310.42z"/>
</g>
<g id="Name_1_vec" display="none">
	<path display="inline" fill="#FBBB0F" d="M365.813,543.035c1.742,4.952,3.658,11.467,5.758,19.54
		c2.092,8.075,3.779,16.83,5.066,26.276c1.277,9.441,1.945,19.257,2.004,29.439c0.051,10.185-1.136,19.718-3.572,28.617
		c-2.438,8.894-6.325,16.833-11.662,23.812c-5.337,6.978-12.634,12.094-21.874,15.344c-12.552,4.413-23.776,3.875-33.677-1.607
		c-9.912-5.485-16.744-13.59-20.517-24.32c-0.195-0.555-0.383-1.88-0.563-3.977c-0.183-2.103-0.226-4.326-0.123-6.681
		c0.095-2.353,0.455-4.493,1.085-6.41c0.62-1.922,1.755-3.169,3.412-3.751c3.297-1.159,6.576-0.537,9.841,1.873
		c3.255,2.406,6.284,5.21,9.076,8.402s5.649,6.05,8.581,8.576c2.922,2.523,5.879,3.267,8.851,2.222
		c5.61-1.973,9.214-7.03,10.807-15.162c1.59-8.14,1.957-17.384,1.095-27.747c-0.862-10.364-2.559-20.978-5.074-31.839
		c-2.525-10.865-5.04-19.872-7.555-27.024c-2.419-6.881-6.193-15.757-11.312-26.63c-5.129-10.878-11.221-22.416-18.292-34.611
		c-7.073-12.201-15.046-24.317-23.91-36.345c-8.874-12.031-18.133-22.536-27.775-31.508c-9.651-8.975-19.53-15.704-29.637-20.187
		c-10.116-4.486-20.052-5.318-29.818-2.5c-5.813,1.421-10.272,6.395-13.398,14.914c-3.126,8.52-5.364,19.045-6.706,31.575
		c-1.35,12.533-2.021,26.45-2.014,41.752c-0.001,15.304,0.191,30.613,0.573,45.942c0.379,15.323,0.518,29.962,0.415,43.911
		s-0.685,25.748-1.745,35.396c-1.157,9.371-3.01,19.682-5.54,30.934c-2.541,11.248-6.119,22.166-10.741,32.762
		c-4.624,10.59-10.644,20.127-18.045,28.606c-7.411,8.475-16.729,14.693-27.95,18.64c-10.571,3.717-20.338,4.673-29.314,2.888
		c-8.978-1.792-17.141-5.494-24.493-11.098c-7.347-5.611-13.742-12.718-19.181-21.312c-5.434-8.604-9.896-17.854-13.378-27.759
		C6.675,651.7,1.617,629.131-0.669,606.283c-2.279-22.851-2.119-45.863,0.488-69.04c0.788-8.32,2.33-17.362,4.647-27.141
		c2.308-9.783,5.689-19.16,10.138-28.145c4.441-8.982,9.934-17.102,16.482-24.347c6.538-7.248,14.765-12.612,24.67-16.095
		c4.953-1.742,10.218-2.594,15.802-2.542c5.581,0.045,10.957,1.089,16.129,3.14c5.171,2.044,9.866,5.109,14.084,9.191
		c4.218,4.082,7.488,9.425,9.81,16.028c0.483,1.374,0.894,3.085,1.247,5.127c0.343,2.039,0.266,3.921-0.24,5.649
		c-0.507,1.723-1.426,2.82-2.741,3.283c-1.323,0.465-3.457-0.335-6.404-2.386c-4.951-3.521-9.234-6.724-12.846-9.628
		c-3.62-2.9-7.047-5.253-10.272-7.055c-3.234-1.804-6.301-2.885-9.213-3.253c-2.912-0.367-6.024,0.031-9.32,1.191
		c-4.953,1.741-9.285,4.729-12.984,8.971c-3.709,4.239-6.86,8.978-9.466,14.228c-2.608,5.243-4.697,10.384-6.265,15.42
		c-1.57,5.03-2.65,9.353-3.233,12.963c-5.253,24.107-7.082,48.707-5.488,73.812c1.591,25.1,6.451,49.209,14.579,72.322
		c1.451,4.127,3.531,9.497,6.228,16.128c2.703,6.622,6.203,12.892,10.506,18.799c4.303,5.906,9.256,10.498,14.865,13.787
		c5.606,3.282,12.203,3.593,19.802,0.921c9.906-3.483,17.519-10.566,22.856-21.255c5.329-10.686,9.371-22.933,12.128-36.728
		c2.748-13.8,4.333-28.038,4.739-42.71c0.404-14.678,0.677-27.6,0.831-38.784c-0.158-32.104,0.001-59.594,0.489-82.489
		c0.48-22.894,2.237-41.909,5.265-57.039c3.025-15.136,7.509-26.916,13.452-35.338c5.94-8.429,14.455-14.286,25.545-17.562
		c15.806-4.63,31.035-5.116,45.679-1.454s28.405,10.105,41.301,19.331c12.886,9.222,24.881,20.388,35.984,33.491
		c11.093,13.099,21.042,26.607,29.832,40.523c8.787,13.91,16.368,27.556,22.74,40.931
		C357.547,521.898,362.426,533.4,365.813,543.035z"/>
	<path display="inline" fill="#FBBB0F" d="M196.602,689.996c5.319-6.502,10.384-9.82,15.204-9.945
		c4.815-0.131,8.695,1.464,11.639,4.774c2.939,3.316,4.431,7.474,4.481,12.484c0.04,5.016-2.048,9.411-6.268,13.188
		c-4.895,4.135-10.729,9.537-17.501,16.205c-6.779,6.665-13.053,13.294-18.813,19.881c-5.771,6.588-10.365,12.548-13.789,17.887
		c-3.429,5.335-4.122,8.836-2.091,10.498c1.354,1.108,4.703,0.352,10.063-2.279c5.349-2.629,11.258-6.052,17.723-10.26
		c6.459-4.211,12.807-8.515,19.043-12.908c6.231-4.397,10.791-7.896,13.687-10.508c2.891-2.15,5.514-3.057,7.875-2.714
		c2.351,0.343,4.098,1.316,5.236,2.927c1.133,1.605,1.546,3.638,1.232,6.095c-0.315,2.456-1.808,4.626-4.479,6.51
		c-1.785,1.252-5.009,3.703-9.682,7.34c-4.673,3.639-10.021,7.52-16.03,11.646c-6.018,4.127-12.479,8.222-19.385,12.289
		c-6.917,4.07-13.607,7.183-20.084,9.345c-6.483,2.158-12.409,3.074-17.79,2.742c-5.381-0.333-9.547-2.841-12.503-7.519
		c-4.324-7.15-5.405-14.702-3.229-22.651c2.167-7.946,6.192-15.962,12.053-24.055c5.868-8.087,12.794-16.433,20.784-25.052
		C181.961,707.302,189.505,698.667,196.602,689.996z"/>
	<path display="inline" fill="#FBBB0F" d="M273.228,671.224c-2.341,3.118-5.15,5.374-8.439,6.769c-3.294,1.4-6.792,2.08-10.504,2.05
		c-3.712-0.029-7.422-0.676-11.122-1.945c-3.707-1.264-7.138-3.008-10.292-5.218c-5.865-4.463-10.255-10.164-13.166-17.121
		c-2.916-6.951-2.059-13.318,2.567-19.098c4.669-6.225,10.729-9.424,18.176-9.598c7.442-0.169,14.753,2.15,21.941,6.951
		c7.177,4.802,11.933,10.757,14.273,17.872C278.993,659.001,277.853,665.445,273.228,671.224z"/>
	<path display="inline" fill="#FBBB0F" d="M265.016,694.126c3.698-5.521,8.292-8.975,13.779-10.348
		c5.481-1.376,10.48-1.494,14.988-0.362c4.507,1.133,7.809,3.145,9.914,6.032c2.095,2.891,1.639,6.063-1.373,9.515
		c-2.634,2.875-5.875,6.805-9.746,11.795c-3.87,4.989-8.291,10.666-13.252,17.027c4.362-1.278,9.202-1.82,14.519-1.626
		c5.307,0.196,10.043,1.908,14.208,5.123c7.107,5.628,10.742,12.915,10.889,21.87c0.141,8.951-1.764,18.217-5.716,27.787
		c-3.962,9.573-9.635,18.827-17.029,27.773c-7.399,8.943-15.403,16.432-23.998,22.456c-8.605,6.027-17.095,9.918-25.46,11.668
		c-8.375,1.754-15.633,0.146-21.776-4.833c-4.357-2.929-7.545-7.603-9.564-14.021c-0.338-1.067-0.676-2.135-1.01-3.209
		c-0.338-1.067-0.576-2.285-0.717-3.646c-8.086,11.012-15.445,21.346-22.094,31.011c-6.649,9.654-11.916,17.393-15.815,23.212
		c-2.142,3.196-5.195,4.732-9.144,4.607c-3.954-0.128-7.551-1.182-10.795-3.145c-3.245-1.974-5.661-4.655-7.253-8.039
		c-1.588-3.39-0.974-6.664,1.846-9.829c4.387-5.492,10.029-12.868,16.94-22.14c6.917-9.268,14.35-19.453,22.311-30.549
		s16.057-22.517,24.286-34.282c8.23-11.755,15.807-22.684,22.754-32.781c6.936-10.095,12.95-18.812,18.042-26.144
		C259.839,701.717,263.262,696.743,265.016,694.126z M269.515,750.289c-6.27,4.642-12.168,10.166-17.689,16.576
		c-5.526,6.406-10.091,12.826-13.695,19.261c-3.609,6.431-5.907,12.477-6.889,18.143c-0.988,5.662-0.223,9.764,2.294,12.296
		c2.024,2.211,5.242,2.259,9.639,0.154c4.392-2.109,9.056-5.398,13.996-9.886c4.93-4.484,9.958-9.754,15.068-15.808
		c5.109-6.055,9.428-12.106,12.964-18.171c3.532-6.057,5.946-11.501,7.248-16.319c1.297-4.821,0.711-8.27-1.753-10.352
		c-2.475-2.078-5.667-2.545-9.6-1.393C277.167,745.943,273.305,747.776,269.515,750.289z"/>
	<path display="inline" fill="#FBBB0F" d="M335.667,743.661c2.242-6.255,5.857-10.729,10.846-13.401
		c4.982-2.676,9.804-4.014,14.454-4.021c4.65-0.006,8.344,1.136,11.091,3.419c2.738,2.289,3.07,5.476,0.989,9.557
		c-1.854,3.432-4.041,8.033-6.579,13.815c-2.538,5.783-5.442,12.367-8.705,19.746c3.92-2.307,8.484-4.017,13.69-5.131
		c5.197-1.108,10.21-0.609,15.037,1.487c8.269,3.714,13.572,9.886,15.899,18.527c2.32,8.641,2.732,18.086,1.232,28.328
		c-1.509,10.248-4.756,20.604-9.748,31.084c-4.998,10.479-10.938,19.695-17.807,27.637c-6.879,7.947-14.168,13.796-21.857,17.54
		c-7.698,3.75-15.133,3.969-22.308,0.647c-4.942-1.772-9.175-5.521-12.7-11.246c-0.588-0.952-1.177-1.903-1.762-2.863
		c-0.588-0.951-1.116-2.073-1.585-3.356c-5.159,12.651-9.779,24.467-13.873,35.461c-4.097,10.984-7.32,19.771-9.684,26.366
		c-1.298,3.622-3.886,5.857-7.748,6.704c-3.868,0.844-7.615,0.703-11.241-0.405c-3.629-1.118-6.628-3.126-8.998-6.015
		c-2.368-2.896-2.571-6.22-0.606-9.978c2.917-6.396,6.592-14.926,11.036-25.603c4.451-10.674,9.178-22.364,14.196-35.066
		s10.087-25.751,15.202-39.168c5.118-13.406,9.804-25.853,14.081-37.338c4.268-11.48,7.977-21.401,11.129-29.752
		C332.496,752.284,334.604,746.626,335.667,743.661z M353.733,796.986c-4.951,6.033-9.327,12.83-13.12,20.395
		c-3.8,7.561-6.663,14.9-8.589,22.018c-1.933,7.115-2.688,13.537-2.259,19.268c0.423,5.729,2.166,9.518,5.226,11.355
		c2.503,1.646,5.637,0.905,9.39-2.211c3.747-3.118,7.47-7.448,11.168-13.006c3.69-5.554,7.283-11.891,10.764-19.008
		c3.481-7.118,6.195-14.04,8.146-20.782c1.949-6.735,2.963-12.603,3.052-17.59c0.082-4.99-1.328-8.188-4.227-9.603
		c-2.908-1.408-6.12-1.079-9.654,1.001C360.097,790.902,356.798,793.623,353.733,796.986z"/>
	<path display="inline" fill="#FBBB0F" d="M482.134,841.454c-2.723,3.6-5.944,6.438-9.678,8.517
		c-3.734,2.087-7.716,3.703-11.938,4.857c-4.229,1.154-8.481,1.869-12.756,2.136c-4.283,0.274-8.036,0.422-11.262,0.44
		c-1.627,7.223-2.876,14.311-3.739,21.257c-0.871,6.953-1.227,13.249-1.076,18.888c0.144,5.646,0.821,10.464,2.023,14.453
		c1.194,3.996,3.194,6.656,5.99,7.995c3.624,1.777,7.771,1.407,12.431-1.113c4.658-2.513,9.285-6.182,13.893-10.991
		c4.601-4.811,9.148-10.5,13.644-17.085c4.488-6.578,8.521-12.938,12.092-19.09c3.563-6.144,6.645-11.81,9.237-17.005
		c2.584-5.188,4.296-8.972,5.133-11.352c1.195-3.045,2.785-4.995,4.784-5.848c1.991-0.853,3.843-1.012,5.549-0.492
		c1.704,0.527,3.036,1.809,4.001,3.836c0.958,2.035,0.989,4.586,0.087,7.66c-0.801,2.03-2.238,6.023-4.317,11.963
		c-2.086,5.948-4.899,12.613-8.446,19.987c-3.555,7.382-7.707,14.967-12.471,22.745c-4.765,7.786-10.259,14.79-16.47,21.02
		c-6.218,6.229-13.115,11.243-20.691,15.051c-7.582,3.799-15.719,5.266-24.425,4.382c-10.446-1.06-18.123-6.241-23.023-15.527
		c-4.908-9.288-7.69-20.651-8.347-34.092c-0.658-13.433,0.444-27.659,3.317-42.671c2.874-15.012,6.953-28.928,12.24-41.766
		c5.287-12.829,11.353-23.295,18.205-31.397c6.844-8.095,13.899-11.782,21.156-11.046c6.964,0.706,12.829,4.204,17.607,10.493
		c4.771,6.289,8.212,13.415,10.324,21.363c2.104,7.956,2.966,15.959,2.573,24.008C487.386,831.087,485.5,837.228,482.134,841.454z
		 M459.958,792.239c-2.142,0.839-4.777,5.057-7.907,12.654c-3.137,7.598-6.295,16.866-9.475,27.798
		c3.189,0.324,6.424,0.215,9.711-0.334c3.279-0.541,5.787-2.134,7.532-4.776c1.372-1.972,2.415-4.941,3.122-8.918
		c0.7-3.969,1.056-8.072,1.053-12.294s-0.371-7.771-1.095-10.665C462.167,792.818,461.187,791.663,459.958,792.239z"/>
	<path display="inline" fill="#FBBB0F" d="M512.116,853.319c-2.07-0.416-3.741-1.552-5.007-3.415
		c-1.267-1.855-1.406-4.395-0.419-7.602l2.131-9.05c-2.795-3.007-4.45-6.6-4.975-10.777c-0.518-4.179-0.154-8.141,1.099-11.887
		c1.252-3.747,3.188-7.004,5.815-9.771c2.62-2.768,5.681-4.243,9.176-4.429c6.117-0.324,9.61,2.21,10.496,7.593
		c0.878,5.392,0.337,11.467-1.626,18.224c1.805,0.956,4.655,0.986,8.548,0.073c3.894-0.904,7.584-1.535,11.068-1.899
		c3.486-0.357,6.438,0.274,8.868,1.896c2.425,1.63,3.226,5.612,2.411,11.965c-0.821,6.352-1.643,13.937-2.474,22.737
		c-0.828,8.809-1.32,17.156-1.469,25.051c-0.154,7.894,0.217,14.626,1.111,20.181c0.888,5.564,2.646,8.272,5.268,8.134
		c1.747-0.093,3.831-3.267,6.267-9.532c2.428-6.257,4.878-13.483,7.351-21.682c2.465-8.188,4.64-16.453,6.521-24.792
		c1.877-8.33,2.989-14.615,3.346-18.841c0.389-3.52,1.488-6.034,3.309-7.535c1.815-1.492,3.747-2.211,5.798-2.147
		c2.044,0.073,3.78,1.032,5.196,2.88c1.418,1.855,2.071,4.54,1.978,8.044c-0.197,1.769-0.722,5.559-1.564,11.387
		c-0.85,5.827-2.098,12.384-3.738,19.65c-1.646,7.274-3.711,14.917-6.187,22.934c-2.482,8.018-5.577,15.459-9.288,22.31
		c-3.716,6.858-7.936,12.43-12.663,16.706c-4.735,4.274-10.164,6.403-16.299,6.383c-7.01,0.018-12.316-3.472-15.912-10.461
		c-3.602-6.989-6.107-15.449-7.53-25.362c-1.422-9.914-1.784-20.492-1.09-31.75c0.696-11.25,1.973-21.134,3.846-29.645
		c-1.441,0.43-2.886,0.679-4.34,0.756c-1.462,0.077-2.915,0.154-4.369,0.231c-0.777,1.799-1.505,6.647-2.22,8.643"/>
</g>
<g id="Name_1" display="none">
	<circle display="inline" fill="none" cx="1574.024" cy="-364.033" r="500"/>
	
		<text transform="matrix(0.4146 1.1792 -1.4151 0.4976 1046.1172 -357.6406)" display="inline" fill="#FBBB0F" font-family="'RemachineScriptPersonalUse'" font-size="350">S</text>
	
		<text transform="matrix(0.8768 0.8909 -1.0692 1.052 1197.5215 -33.7764)" display="inline" fill="#FBBB0F" font-family="'RemachineScriptPersonalUse'" font-size="350">i</text>
	
		<text transform="matrix(1.0374 0.6974 -0.8349 1.2462 1253.5684 23.0811)" display="inline" fill="#FBBB0F" font-family="'RemachineScriptPersonalUse'" font-size="350">p</text>
	
		<text transform="matrix(1.1767 0.4219 -0.5061 1.412 1357.4951 89.6455)" display="inline" fill="#FBBB0F" font-family="'RemachineScriptPersonalUse'" font-size="350">p</text>
	
		<text transform="matrix(1.2436 0.1262 -0.1544 1.492 1474.4453 128.4697)" display="inline" fill="#FBBB0F" font-family="'RemachineScriptPersonalUse'" font-size="350">e</text>
	
		<text transform="matrix(1.2417 -0.1436 0.1755 1.4897 1593.6279 137.0811)" display="inline" fill="#FBBB0F" font-family="'RemachineScriptPersonalUse'" font-size="350">r</text>
</g>
<g id="Name_2_vec" display="none">
	<path display="inline" fill="#FFFFFF" d="M331.349,744.081c1.293-11.094-1.127-24.375-7.253-39.852
		c-2.483-6.166-6.976-12.803-13.472-19.916c-6.5-7.113-13.703-13.012-21.607-17.693c-16.789-10.295-28.644-11.098-35.571-2.395
		c-0.95,1.062-1.61,5.609-1.98,13.641c-0.24,6.242-0.264,16.523-0.07,30.85c0.292,21.988,0.378,34.707,0.267,38.162
		c8.606,9.189,16.9,18.957,24.883,29.305c1.791,2.32,2.702,4.814,2.741,7.48c0.032,2.666-0.82,4.67-2.562,6.012
		c-1.746,1.344-3.903,1.656-6.471,0.943c-2.576-0.713-4.753-2.23-6.544-4.553c-4.562-5.912-9.364-11.807-14.403-17.686l-0.449,2.365
		c-7.407,21.18-17.874,34.541-31.405,40.084c-13.535,5.539-28.686,3.828-45.453-5.135c-14.99-7.643-28.524-20.443-40.612-38.396
		c-12.083-17.957-19.788-37.268-23.102-57.938c-2.624-16.494,0.19-27.748,8.436-33.758c6.656-5.125,16.486-5.967,29.503-2.523
		c9.317,2.584,19.417,6.836,30.306,12.76c10.881,5.924,20.448,12.1,28.702,18.539c9.375,6.918,18.766,14.832,28.171,23.744
		l-0.319-23.986c-0.363-15.205-0.345-25.986,0.05-32.35c0.321-11.691,1.901-19.307,4.739-22.832
		c6.457-7.67,14.816-11.078,25.078-10.223c10.254,0.852,20.792,4.688,31.61,11.504c9.841,5.879,18.986,13.312,27.431,22.293
		c8.282,9.1,14.41,18.518,18.385,28.25c7.938,19.131,11.043,35.924,9.314,50.381c-0.289,2.572-1.465,4.408-3.529,5.494
		c-2.068,1.086-4.311,1.127-6.722,0.127c-2.418-1.002-4.442-2.811-6.075-5.418C331.73,748.749,331.056,746.325,331.349,744.081z
		 M232.739,750.343c-11.688-11.873-23.352-22.24-34.993-31.113c-7.437-5.379-15.912-10.717-25.427-16.012
		c-9.518-5.293-18.049-8.906-25.598-10.832c-8.037-2.229-13.715-2.061-17.042,0.502c-3.647,2.809-4.687,8.988-3.115,18.553
		c1.75,11.439,5.221,22.484,10.406,33.133c5.184,10.648,11.145,19.602,17.887,26.867c6.737,7.258,13.814,12.916,21.237,16.967
		c7.251,3.834,14.241,5.773,20.969,5.814c6.72,0.039,13.167-2.74,19.34-8.33c6.166-5.59,11.016-14.121,14.548-25.59
		C231.715,758.024,232.316,754.706,232.739,750.343z"/>
	<path display="inline" fill="#FFFFFF" d="M296.237,784.097c-1.061,1.049-5.364,4.938-12.919,11.667
		c-7.122,6.128-13.125,11.738-18.003,16.839c-6.562,6.598-11.328,12.155-14.294,16.681c-3.112,5.136-4.486,8.699-4.126,10.689
		c0.356,1.993,0.852,3.376,1.493,4.151c0.56,0.469,1.617,0.871,3.172,1.205c5.065,0.858,12.345-0.298,21.83-3.48
		c9.187-3.186,22.799-9.797,40.835-19.841c1.83-0.883,3.954-0.916,6.367-0.109c2.406,0.809,4.403,2.301,5.983,4.468
		c1.577,2.168,2.286,4.395,2.135,6.683c-0.158,2.288-1.112,4.026-2.868,5.215c-18.847,10.329-33.213,17.158-43.098,20.485
		c-11.801,3.899-21.551,5.165-29.247,3.797c-6.144-1.035-11.197-3.573-15.16-7.618c-4.448-4.211-7.287-9.608-8.516-16.196
		c-1.154-6.282,0.712-13.424,5.595-21.428c3.62-5.43,8.931-11.741,15.927-18.94c4.441-4.496,10.448-10.109,18.003-16.839
		c7.556-6.729,11.806-10.542,12.756-11.44c1.678-1.497,3.662-2.067,5.959-1.72c2.29,0.347,4.43,1.534,6.414,3.557
		c1.98,2.022,3.113,4.184,3.406,6.48C298.166,780.696,297.617,782.596,296.237,784.097z M325.176,747.764
		c0.619,2.458,0.334,4.513-0.862,6.169c-1.199,1.66-2.979,2.463-5.341,2.419c-2.368-0.045-4.573-0.929-6.624-2.646
		c-2.056-1.721-3.394-3.804-4.013-6.26c-0.626-2.457-0.336-4.511,0.862-6.169c1.197-1.656,2.973-2.465,5.341-2.42
		c2.361,0.047,4.569,0.926,6.625,2.646C323.215,743.22,324.55,745.309,325.176,747.764z"/>
	<path display="inline" fill="#FFFFFF" d="M351.041,903.213c-13.768-2.554-28.336-9.77-43.69-21.651
		c-3.302,7.844-8.625,21.286-15.974,40.324c-7.346,19.034-13.253,33.626-17.715,43.777c-0.784,2.03-2.442,3.307-4.96,3.829
		c-2.525,0.518-5.072,0.216-7.643-0.906c-2.576-1.124-4.431-2.854-5.579-5.188c-1.147-2.338-1.329-4.522-0.544-6.553
		c3.798-9.144,10.971-27.016,21.514-53.619c10.541-26.609,19.062-46.913,25.563-60.921c2.012-4.517,5.7-11.766,11.054-21.738
		c5.349-9.976,9.213-17.684,11.589-23.127c0.785-2.03,2.437-3.309,4.961-3.827c2.519-0.521,5.066-0.22,7.642,0.903
		c2.57,1.123,4.45,2.808,5.633,5.05c1.181,2.246,1.417,4.291,0.704,6.139c4.249-1.817,8.326-3.171,12.223-4.063
		c12.06-2.943,22.909-1.666,32.537,3.828c8.691,5.089,14.752,12.216,18.183,21.376c3.43,9.163,4.636,18.598,3.624,28.305
		c-0.447,8.227-2.929,16.432-7.449,24.606c-4.527,8.179-10.487,14.432-17.894,18.757c8.051,1.787,15.083,1.614,21.099-0.514
		c1.665-0.781,3.465-1.728,5.395-2.829c1.925-1.104,3.626-2.145,5.098-3.122c1.467-0.979,3.417-2.664,5.847-5.061
		c2.423-2.395,4.276-4.177,5.55-5.354c1.271-1.171,3.604-3.499,7-6.985c3.394-3.486,5.834-6.091,7.321-7.82
		c1.644-1.44,3.818-2.111,6.516-2.019c2.691,0.098,5.145,1.005,7.351,2.722c2.205,1.722,3.532,3.758,3.992,6.116
		c0.454,2.359-0.06,4.401-1.545,6.126l-6.825,7.065l-7.633,7.035l-6.504,6.232c-2.617,2.533-4.868,4.467-6.747,5.804
		c-1.887,1.337-4.092,2.805-6.617,4.401c-2.532,1.598-5.051,2.818-7.562,3.666c-8.296,3.077-17.637,3.754-28.034,2.022
		C378.122,914.272,365.63,910.008,351.041,903.213z M313.938,866.62c0.932,0.406,1.797,1.001,2.592,1.778
		c21.283,17.06,38.832,22.559,52.648,16.489c5.921-2.601,10.801-7.111,14.648-13.53c3.842-6.422,5.999-13.419,6.462-20.99
		c0.764-7.653,0.105-14.258-1.982-19.813c-2.095-5.557-4.94-9.332-8.535-11.335c-3.765-2.291-8.846-2.565-15.254-0.826
		c-9.556,2.098-20.261,7.9-32.127,17.406c-1.437,0.886-3.032,1.486-4.791,1.796c-2.842,5.239-5.132,9.748-6.86,13.528
		L313.938,866.62z"/>
	<path display="inline" fill="#FFFFFF" d="M505.885,923.741c-14.704,1.238-31.38-1.822-50.016-9.186
		c-1.433,8.48-3.543,22.93-6.339,43.342c-2.794,20.406-5.218,36.123-7.264,47.152c-0.298,2.178-1.677,3.859-4.123,5.043
		c-2.452,1.182-5.13,1.576-8.035,1.184c-2.911-0.395-5.235-1.568-6.987-3.518c-1.751-1.955-2.477-4.021-2.179-6.199
		c1.618-9.875,4.522-29.107,8.709-57.703c4.182-28.6,7.863-50.553,11.039-65.865c0.938-4.914,2.912-12.926,5.914-24.023
		c2.996-11.1,5.037-19.602,6.118-25.51c0.298-2.18,1.67-3.861,4.123-5.043c2.445-1.184,5.124-1.578,8.035-1.186
		c2.905,0.395,5.243,1.52,7.008,3.371c1.764,1.855,2.511,3.773,2.24,5.752c3.892-2.904,7.724-5.314,11.486-7.227
		c11.597-6.1,23-7.787,34.204-5.062c10.143,2.582,18.102,7.85,23.879,15.793c5.775,7.947,9.344,16.754,10.713,26.424
		c1.58,8.084,1.076,16.695-1.518,25.83c-2.602,9.137-7.145,16.795-13.645,22.979c8.672-0.441,15.816-2.502,21.438-6.184
		c1.508-1.205,3.113-2.605,4.812-4.193c1.693-1.586,3.176-3.051,4.438-4.395c1.258-1.344,2.832-3.5,4.723-6.475
		c1.883-2.973,3.336-5.197,4.346-6.678c1.01-1.477,2.818-4.359,5.424-8.652c2.607-4.287,4.455-7.467,5.547-9.543
		c1.324-1.836,3.379-3.072,6.16-3.707c2.773-0.633,5.506-0.414,8.188,0.652c2.678,1.072,4.539,2.686,5.594,4.844
		c1.047,2.162,1.029,4.277-0.062,6.35l-5.225,8.678l-6.061,8.867l-5.104,7.787c-2.047,3.156-3.869,5.635-5.459,7.436
		c-1.596,1.803-3.488,3.818-5.672,6.043c-2.191,2.23-4.465,4.09-6.82,5.588c-7.717,5.213-17.098,8.387-28.152,9.512
		C536.305,927.149,522.48,926.388,505.885,923.741z M458.9,898.315c1.053,0.143,2.084,0.484,3.09,1.023
		c25.978,10.777,45.275,11.373,57.895,1.773c5.408-4.111,9.277-9.795,11.621-17.047c2.336-7.252,2.807-14.605,1.406-22.061
		c-1.115-7.613-3.424-13.83-6.936-18.646c-3.516-4.812-7.359-7.703-11.529-8.674c-4.414-1.201-9.676-0.098-15.796,3.314
		c-9.248,4.605-18.751,13.105-28.524,25.508c-1.25,1.244-2.731,2.256-4.453,3.029c-1.606,5.838-2.831,10.818-3.661,14.945
		L458.9,898.315z"/>
	<path display="inline" fill="#FFFFFF" d="M605.23,878.343c1.551,5.65,4.146,10.051,7.789,13.207
		c7.572,6.482,19.246,7.287,35.014,2.414c12.906-4.094,22.373-11.875,28.398-23.348c2.145-4.107,4.01-8.334,5.596-12.676
		c1.578-4.336,3.209-9.34,4.885-15.004c1.676-5.662,3.191-10.496,4.549-14.506c0.793-2.115,2.457-3.797,4.986-5.033
		c2.523-1.234,5.23-1.633,8.111-1.203c2.881,0.434,5.047,1.566,6.498,3.391c1.451,1.83,1.787,3.904,1.02,6.221l-3.91,13.213
		c-1.916,5.898-3.75,11.377-5.504,16.445s-3.814,9.873-6.174,14.414c-8.383,16.016-22.271,26.988-41.662,32.936
		c-25.055,7.889-44.414,5.863-58.088-6.074c-10.9-9.273-15.77-22.76-14.598-40.459c0.795-16.439,6.031-30.83,15.705-43.18
		c5.299-6.738,11.729-12.059,19.283-15.965c7.557-3.9,15.971-5.348,25.25-4.334c15.596,2.012,24.598,9.111,27.008,21.301
		c2.045,9.416-0.527,19.533-7.711,30.344c-7.396,11.246-17.369,19.299-29.906,24.15C623.062,877.948,614.219,879.194,605.23,878.343
		z M603.359,861.04c6.713,1.955,13.268,1.709,19.672-0.738c7.908-3.242,14.447-8.729,19.621-16.461
		c4.928-7.494,6.74-14.186,5.432-20.066c-0.945-5.119-4.549-7.979-10.811-8.58c-7.4-1.053-14.43,2.779-21.08,11.508
		C608.588,836.364,604.305,847.81,603.359,861.04z"/>
	<path display="inline" fill="#FFFFFF" d="M699.014,786.672c11.084-2.562,21.767-5.714,32.06-9.46l0.367-0.158
		c0.411-0.39,1.475-0.956,3.192-1.691c5.65-3.067,10.615-3.664,14.892-1.796c2.102,0.846,3.62,2.368,4.562,4.576
		c0.395,0.922,0.778,2.17,1.165,3.743c0.46,1.762,0.904,4.507,1.342,8.235l0.68,11.779c0.325,5.521,0.632,9.63,0.915,12.334
		c0.906,10.271,2.123,18.56,3.658,24.863c1.592,7.802,3.792,12.953,6.597,15.449c1.998,1.977,4.421,3.225,7.255,3.752
		c2.838,0.529,5.559,0.127,8.181-1.213c8.671-4.14,14.217-14.231,16.649-30.277c1.964-12.366,2.043-25.777,0.222-40.226
		c-0.621-2.125-0.02-4.283,1.802-6.479c1.818-2.188,4.052-3.576,6.7-4.168c2.646-0.584,5.141-0.347,7.483,0.718
		c2.339,1.069,3.535,2.679,3.585,4.829c2.122,15.844,2.192,30.603,0.204,44.282c-3.336,22.745-13.189,38.042-29.548,45.905
		c-7.446,3.615-14.796,4.742-22.043,3.384c-7.25-1.354-12.999-4.119-17.239-8.291c-4.246-4.165-7.512-11.308-9.799-21.424
		c-1.771-6.853-3.102-15.745-3.995-26.676c-0.044-2.805-0.346-6.917-0.918-12.331l-0.93-11.348l-0.207-2.522
		c-8.248,3.093-16.413,5.71-24.483,7.854l1.122,6.699c0.285,2.707,0.416,4.716,0.397,6.027c0.069,0.844,0.055,1.829-0.043,2.956
		l-0.217,6.617c-0.209,2.918-0.493,5.978-0.867,9.18c-0.117,2.446-1.165,4.575-3.14,6.397c-1.979,1.825-4.35,2.896-7.113,3.204
		c-2.767,0.316-5.093-0.214-6.981-1.584c-1.889-1.363-2.736-3.179-2.541-5.439c0.047-3.282,0.135-6.306,0.254-9.08
		c0.124-2.77,0.248-4.674,0.391-5.713c0.134-1.035,0.169-1.973,0.1-2.816c-0.07-0.836-0.292-2.373-0.662-4.61l-1.298-11.19
		c-0.156-0.366-0.192-0.783-0.104-1.261c-0.392-0.918-0.624-1.796-0.693-2.64c-0.373-2.23,0.309-4.373,2.045-6.42
		S696.075,787.274,699.014,786.672z"/>
</g>
<g id="Name_2" display="none">
	<path display="inline" fill="none" d="M998.884,416.713c0-276.142-223.857-500-500-500c-276.142,0-500,223.857-500,500
		c0,276.145,223.857,500.002,500,500.002C775.026,916.716,998.884,692.858,998.884,416.713z"/>
	
		<text transform="matrix(1.2217 1.5835 -1.1885 0.9151 49.436 652.7393)" display="inline" fill="#AECBEC" font-family="'AlwaysInMyHeart'" font-size="200">S</text>
	
		<text transform="matrix(1.5782 1.2286 -0.9203 1.1845 168.7373 793.3779)" display="inline" fill="#AECBEC" font-family="'AlwaysInMyHeart'" font-size="200">i</text>
	
		<text transform="matrix(1.8093 0.8523 -0.638 1.3575 221.9233 839.0752)" display="inline" fill="#AECBEC" font-family="'AlwaysInMyHeart'" font-size="200">p</text>
	
		<text transform="matrix(1.982 0.268 -0.2035 1.4861 360.6797 902.6357)" display="inline" fill="#AECBEC" font-family="'AlwaysInMyHeart'" font-size="200">p</text>
	
		<text transform="matrix(1.9834 -0.2574 0.1955 1.4872 512.5039 919.1943)" display="inline" fill="#AECBEC" font-family="'AlwaysInMyHeart'" font-size="200">e</text>
	
		<text transform="matrix(1.8625 -0.7287 0.546 1.3971 625.8105 904.1045)" display="inline" fill="#AECBEC" font-family="'AlwaysInMyHeart'" font-size="200">r</text>
</g>
<g id="Monterey" display="none">
	<path display="inline" fill="none" d="M998.884,416.861c0-276.142-223.857-500-500-500c-276.142,0-500,223.857-500,500
		c0,276.145,223.857,500.002,500,500.002C775.026,916.863,998.884,693.006,998.884,416.861z"/>
	
		<text transform="matrix(0.5787 0.8155 -0.8162 0.5778 36.8462 629.8037)" display="inline" fill="#FFFFFF" font-family="'MontereyMediumFLF'" font-size="300">S</text>
	
		<text transform="matrix(0.5681 0.4089 -0.4084 0.5685 184.769 806.8682)" display="inline" fill="#FFFFFF" font-family="'MontereyMediumFLF'" font-size="300">i</text>
	
		<text transform="matrix(0.6531 0.2519 -0.2518 0.6532 255.1396 858.8916)" display="inline" fill="#FFFFFF" font-family="'MontereyMediumFLF'" font-size="300">p</text>
	
		<text transform="matrix(0.6997 0.0214 -0.0219 0.6997 414.8306 914.5303)" display="inline" fill="#FFFFFF" font-family="'MontereyMediumFLF'" font-size="300">p</text>
	
		<text transform="matrix(0.6722 -0.1953 0.1957 0.6721 583.7285 913.0225)" display="inline" fill="#FFFFFF" font-family="'MontereyMediumFLF'" font-size="300">e</text>
	
		<text transform="matrix(0.5822 -0.3886 0.3879 0.5827 723.1797 868.3604)" display="inline" fill="#FFFFFF" font-family="'MontereyMediumFLF'" font-size="300">r</text>
</g>
<g id="InLogo" display="none">
	<path display="inline" fill="#FFFFFF" d="M265.448,595.056c-1.816-10.17-6.407-20.119-13.775-29.837
		c-9.306-12.275-18.806-20.003-28.501-23.193c-9.699-3.187-18.93-1.459-27.693,5.186c-7.811,5.921-11.555,13.148-11.228,21.688
		c0.321,8.539,3.534,18.649,9.638,30.34c5.533,10.61,9.987,21.04,13.363,31.281c3.372,10.243,5.014,20.105,4.924,29.584
		c-0.093,9.482-2.148,18.441-6.159,26.884c-4.019,8.439-10.566,16.104-19.65,22.992c-7.972,6.043-16.393,9.663-25.265,10.871
		c-8.875,1.205-17.79,0.37-26.743-2.501c-8.956-2.873-17.734-7.578-26.324-14.112c-8.593-6.539-16.457-14.506-23.584-23.908
		c-6.647-8.767-11.439-17.492-14.387-26.176c-2.947-8.682-4.649-17.058-5.11-25.113c-0.464-8.061-0.111-15.539,1.053-22.446
		c1.165-6.906,2.67-12.941,4.526-18.113l11.422,4.142c-1.46,4.366-2.752,9.615-3.878,15.739c-1.13,6.129-1.496,12.676-1.098,19.655
		c0.396,6.977,1.881,14.321,4.465,22.027c2.577,7.706,6.771,15.385,12.57,23.035c10.391,13.705,20.608,21.394,30.66,23.061
		c10.046,1.667,19.854-1.124,29.417-8.372c9.084-6.889,13.935-15.713,14.562-26.477c0.621-10.765-2.602-22.628-9.665-35.59
		c-5.133-9.416-9.339-18.773-12.627-28.075c-3.291-9.306-5.136-18.194-5.539-26.672c-0.406-8.48,1.022-16.527,4.284-24.143
		c3.259-7.618,8.872-14.445,16.844-20.487c7.649-5.801,15.66-9.302,24.036-10.505c8.369-1.204,16.796-0.44,25.272,2.297
		c8.473,2.734,16.806,7.27,25.001,13.61c8.192,6.336,15.853,14.206,22.984,23.611c5.437,7.172,9.614,14.17,12.529,20.994
		c2.916,6.826,4.906,13.346,5.982,19.561c1.069,6.211,1.389,11.934,0.959,17.154c-0.434,5.224-1.161,9.975-2.175,14.261
		l-11.653-2.458C267.07,615.157,267.258,605.225,265.448,595.056z"/>
	<path display="inline" fill="#FFFFFF" d="M269.022,659.101l21.163,18.547l-96.888,110.551l-21.163-18.547L269.022,659.101z"/>
	<path display="inline" fill="#FFFFFF" d="M263.362,836.419l-25.66-12.055l62.502-133.051l55.691,26.162
		c8.616,4.047,15.57,8.59,20.86,13.627c5.29,5.039,9.219,10.172,11.791,15.4c2.568,5.23,3.854,10.395,3.855,15.5
		c-0.001,5.104-1.013,9.812-3.036,14.119c-2.024,4.309-5.001,8.092-8.928,11.352c-3.931,3.258-8.728,5.568-14.392,6.928
		c-5.668,1.361-12.112,1.582-19.336,0.662c-7.226-0.918-15.146-3.404-23.762-7.451l-30.032-14.107L263.362,836.419z
		 M323.289,778.491c4.687,2.201,9.147,3.41,13.381,3.619c4.229,0.209,8.132-0.357,11.701-1.697c3.566-1.34,6.741-3.404,9.524-6.197
		c2.779-2.791,5.034-6.025,6.761-9.701c1.726-3.674,2.775-7.473,3.15-11.396c0.371-3.924-0.051-7.717-1.265-11.385
		c-1.218-3.664-3.26-7.059-6.121-10.184c-2.866-3.121-6.642-5.787-11.328-7.988l-26.8-12.59l-25.804,54.93L323.289,778.491z"/>
	<path display="inline" fill="#FFFFFF" d="M420.322,888.399l-28.27-2.125l11.022-146.586l61.356,4.613
		c9.492,0.715,17.608,2.482,24.346,5.307c6.737,2.822,12.237,6.221,16.502,10.189c4.262,3.973,7.303,8.342,9.123,13.111
		c1.816,4.77,2.547,9.531,2.189,14.275c-0.357,4.746-1.791,9.342-4.301,13.785c-2.512,4.445-6.172,8.312-10.98,11.6
		c-4.811,3.291-10.754,5.793-17.833,7.504c-7.079,1.715-15.365,2.215-24.857,1.5l-33.087-2.486L420.322,888.399z M455.69,812.931
		c5.163,0.387,9.762-0.072,13.792-1.385c4.027-1.311,7.472-3.23,10.331-5.752c2.855-2.523,5.085-5.584,6.692-9.184
		c1.604-3.598,2.56-7.422,2.863-11.473c0.305-4.049-0.068-7.973-1.115-11.773c-1.05-3.797-2.795-7.191-5.236-10.186
		c-2.444-2.99-5.56-5.436-9.346-7.336c-3.79-1.898-8.267-3.043-13.43-3.432l-29.527-2.221l-4.551,60.52L455.69,812.931z"/>
	<path display="inline" fill="#FFFFFF" d="M549.576,747.083l14.861,55.152l60.83-16.391l2.186,8.109l-60.83,16.393l16.828,62.451
		l64.885-17.484l2.186,8.111l-92.258,24.861l-38.248-141.938l92.26-24.861l2.186,8.111L549.576,747.083z"/>
	<path display="inline" fill="#FFFFFF" d="M701.936,836.751L619.57,714.993l43.658-29.533c7.42-5.02,14.418-8.484,20.986-10.393
		s12.574-2.588,18.014-2.045c5.439,0.547,10.293,2.164,14.564,4.854c4.268,2.689,7.777,6.062,10.523,10.121
		c3.059,4.521,4.98,9.18,5.773,13.969c0.787,4.791,0.637,9.375-0.461,13.748c-1.096,4.379-2.973,8.477-5.625,12.299
		c-2.654,3.824-5.893,7.029-9.721,9.619l76.666,36.875l-27.307,18.473l-82.57-39.98l17.045-11.531
		c3.479-2.354,6.023-5.088,7.633-8.205s2.473-6.402,2.584-9.861c0.111-3.455-0.396-6.957-1.527-10.502
		c-1.131-3.547-2.715-6.824-4.756-9.842c-2.117-3.131-4.592-5.85-7.422-8.162c-2.83-2.309-5.93-4.016-9.297-5.121
		c-3.367-1.102-6.854-1.447-10.461-1.035c-3.609,0.414-7.211,1.836-10.805,4.266l-19.307,13.061l77.658,114.801L701.936,836.751z"/>
</g>
<g id="SIPPER_ORIGINAL" display="none">
	<g display="inline">
		<path fill="#098A9B" d="M242.53,772.476c-6.418-3.275-13.882-4.916-22.39-4.916c-10.743,0-19.041,2.023-24.9,6.067
			c-5.858,4.047-8.788,9.906-8.788,17.576c0,6.836,2.439,11.963,7.324,15.38c4.881,3.419,11.854,5.895,20.924,7.428
			c8.229,1.396,15.902,3.315,23.017,5.754c7.114,2.442,13.288,5.687,18.519,9.73c5.231,4.047,9.344,8.965,12.346,14.752
			c2.997,5.789,4.498,12.658,4.498,20.61c0,6.977-1.536,13.182-4.604,18.623c-3.069,5.439-7.29,10.042-12.659,13.81
			c-5.371,3.767-11.685,6.662-18.936,8.683c-7.256,2.021-14.997,3.034-23.227,3.034c-7.673,0-14.543-1.014-20.61-3.034
			c-6.068-2.021-11.439-4.603-16.112-7.741c-4.675-3.139-8.683-6.487-12.031-10.044c-3.348-3.558-6.068-6.938-8.16-10.148
			l7.114-4.603c1.812,2.65,4.185,5.58,7.114,8.787c2.93,3.211,6.415,6.173,10.462,8.894c4.045,2.72,8.753,4.989,14.124,6.8
			c5.368,1.815,11.403,2.72,18.1,2.72c11.995,0,20.574-2.438,25.736-7.322c5.16-4.881,7.743-11.509,7.743-19.878
			c0-7.952-2.861-14.366-8.579-19.251c-5.722-4.881-13.673-8.088-23.854-9.625c-7.396-1.115-14.369-2.721-20.924-4.813
			c-6.559-2.092-12.277-4.812-17.158-8.16c-4.884-3.348-8.755-7.532-11.613-12.554c-2.86-5.022-4.289-11.019-4.289-17.996
			c0-6.695,1.429-12.623,4.289-17.785c2.858-5.159,6.833-9.521,11.927-13.078c5.091-3.557,11.123-6.277,18.1-8.16
			c6.974-1.883,14.576-2.825,22.808-2.825c6.277,0,11.928,0.628,16.949,1.884s9.484,2.896,13.392,4.917
			c3.903,2.023,7.219,4.257,9.938,6.696c2.721,2.441,5.055,4.848,7.01,7.219l-6.277,5.439
			C254.385,780.045,248.944,775.755,242.53,772.476z"/>
		<path fill="#098A9B" d="M293.583,760.025h28.038v146.471h-28.038V760.025z"/>
		<path fill="#098A9B" d="M373.929,906.496h-28.248V760.025h61.309c9.484,0,17.681,1.151,24.586,3.453
			c6.904,2.302,12.623,5.268,17.157,8.894c4.532,3.629,7.88,7.741,10.044,12.345c2.161,4.604,3.244,9.278,3.244,14.019
			c0,4.745-1.083,9.417-3.244,14.021c-2.164,4.603-5.512,8.719-10.044,12.345c-4.534,3.629-10.253,6.559-17.157,8.789
			c-6.905,2.232-15.102,3.347-24.586,3.347h-33.061V906.496z M403.432,826.442c5.159,0,9.694-0.802,13.601-2.406
			c3.904-1.603,7.184-3.767,9.835-6.486c2.648-2.721,4.636-5.928,5.963-9.625c1.325-3.695,1.988-7.565,1.988-11.614
			c0-4.044-0.663-7.915-1.988-11.612c-1.327-3.694-3.314-6.938-5.963-9.729c-2.651-2.789-5.931-4.986-9.835-6.592
			c-3.906-1.602-8.441-2.406-13.601-2.406h-29.503v60.472H403.432z"/>
		<path fill="#098A9B" d="M510.354,906.496h-28.248V760.025h61.308c9.485,0,17.682,1.151,24.587,3.453
			c6.904,2.302,12.624,5.268,17.159,8.894c4.53,3.629,7.877,7.741,10.043,12.345c2.16,4.604,3.242,9.278,3.242,14.019
			c0,4.745-1.082,9.417-3.242,14.021c-2.166,4.603-5.513,8.719-10.043,12.345c-4.535,3.629-10.255,6.559-17.159,8.789
			c-6.905,2.232-15.102,3.347-24.587,3.347h-33.06V906.496z M539.855,826.442c5.161,0,9.696-0.802,13.602-2.406
			c3.903-1.603,7.183-3.767,9.835-6.486c2.648-2.721,4.636-5.928,5.964-9.625c1.324-3.695,1.987-7.565,1.987-11.614
			c0-4.044-0.663-7.915-1.987-11.612c-1.328-3.694-3.315-6.938-5.964-9.729c-2.652-2.789-5.932-4.986-9.835-6.592
			c-3.905-1.602-8.44-2.406-13.602-2.406h-29.502v60.472H539.855z"/>
		<path fill="#098A9B" d="M645.941,768.396v56.915h62.773v8.369h-62.773v64.447h66.958v8.369h-95.205V760.025h95.205v8.37H645.941z"
			/>
		<path fill="#098A9B" d="M732.568,906.496V760.025h52.52c8.926,0,16.635,1.047,23.121,3.14c6.487,2.093,11.823,4.884,16.008,8.369
			c4.185,3.488,7.287,7.532,9.312,12.137c2.021,4.603,3.034,9.348,3.034,14.229c0,5.44-1.014,10.356-3.034,14.751
			c-2.024,4.395-4.708,8.092-8.057,11.091c-3.349,3-7.186,5.336-11.508,7.009c-4.326,1.675-8.788,2.512-13.393,2.512l42.687,73.234
			h-32.851l-45.824-79.094h20.505c4.185,0,7.811-0.837,10.88-2.512c3.067-1.673,5.615-3.903,7.638-6.695
			c2.021-2.788,3.558-5.963,4.604-9.521c1.047-3.557,1.57-7.146,1.57-10.775c0-3.767-0.523-7.393-1.57-10.881
			c-1.046-3.485-2.651-6.624-4.812-9.416c-2.165-2.789-4.849-5.022-8.058-6.695c-3.209-1.675-6.977-2.512-11.299-2.512h-23.226
			v138.101H732.568z"/>
	</g>
</g>
<g id="SIPPER_MODIF">
	<g>
		<path fill="#098A9B" d="M265.059,828.015c-6.079-2.504-12.667-4.486-20.43-4.486c-9.804,0-16.982,2.494-22.722,5.537
			c-4.896,2.596-8.02,7.467-8.02,12.389c0,6.236,2.226,9.09,6.684,12.209c4.453,3.119,10.817,5.379,19.093,6.777
			c7.51,1.273,14.511,3.025,21.003,5.25c6.491,2.229,12.125,5.189,16.897,8.879c4.774,3.693,8.526,8.182,11.266,13.461
			c2.735,5.283,4.104,11.551,4.104,18.809c0,6.365-1.401,12.027-4.2,16.992c-2.801,4.965-6.652,9.164-11.552,12.602
			c-4.901,3.438-10.662,6.08-17.278,7.924c-6.621,1.844-13.686,2.768-21.194,2.768c-7.002,0-13.271-0.924-18.808-2.768
			s-10.438-4.201-14.702-7.064c-4.266-2.863-7.923-5.92-10.979-9.166c-3.055-3.246-5.537-6.33-7.446-9.26l6.492-7.85
			c1.652,2.418,3.818,5.092,6.491,8.018c2.674,2.93,5.854,5.633,9.547,8.115c3.691,2.482,7.987,4.553,12.888,6.205
			c4.898,1.656,10.406,2.482,16.517,2.482c10.945,0,18.773-2.225,23.484-6.682c4.708-4.453,7.065-6.852,7.065-14.488
			c0-7.256-2.611-13.109-7.828-17.566c-5.222-4.455-12.477-7.381-21.768-8.783c-6.748-1.018-13.112-2.482-19.093-4.393
			c-5.985-1.908-11.203-4.391-15.657-7.445c-4.456-3.055-7.988-6.873-10.597-11.455c-2.61-4.584-3.914-10.055-3.914-16.422
			c0-6.109,1.304-11.52,3.914-16.229c2.608-4.709,6.234-8.688,10.883-11.936c4.646-3.244,10.149-5.727,16.516-7.445
			c6.364-1.719,13.301-2.578,20.812-2.578c5.728,0,10.884,0.572,15.466,1.719s8.654,2.643,12.22,4.486
			c3.562,1.848,6.587,3.885,9.069,6.111c2.482,2.229,4.612,4.424,6.396,6.588l-6.641,7.699
			C273.873,832.833,269.479,829.835,265.059,828.015z"/>
		<path fill="#098A9B" d="M311.645,811.179h25.585v133.654h-25.585V811.179z"/>
		<path fill="#098A9B" d="M384.96,944.833h-25.776V811.179h55.944c8.654,0,16.134,1.051,22.435,3.15
			c6.3,2.102,11.519,4.807,15.656,8.115c4.136,3.312,7.19,7.064,9.165,11.266c1.972,4.201,2.96,8.467,2.96,12.791
			c0,4.33-0.988,13.156-2.96,17.357c-1.975,4.199-5.029,7.955-9.165,11.264c-4.138,3.312-9.356,5.984-15.656,8.02
			c-6.301,2.037-13.78,3.055-22.435,3.055H384.96V944.833z M411.882,871.784c4.707,0,8.846-0.73,12.41-2.195
			c3.562-1.463,6.555-3.438,8.975-5.92c2.417-2.482,4.229-5.408,5.441-8.781c1.209-3.373,1.813-6.904,1.813-10.598
			c0-3.691-0.604-7.223-1.813-10.598c-1.212-3.371-3.024-6.33-5.441-8.877c-2.42-2.545-5.412-4.551-8.975-6.016
			c-3.564-1.461-7.703-2.195-12.41-2.195H384.96v55.18H411.882z"/>
		<path fill="#098A9B" d="M509.447,944.833h-25.776V811.179h55.944c8.654,0,16.135,1.051,22.436,3.15
			c6.299,2.102,11.52,4.807,15.658,8.115c4.133,3.312,7.188,7.064,9.164,11.266c1.971,4.201,2.957,8.467,2.957,12.791
			c0,4.33-0.986,13.156-2.957,17.357c-1.977,4.199-5.031,7.955-9.164,11.264c-4.139,3.312-9.359,5.984-15.658,8.02
			c-6.301,2.037-13.781,3.055-22.436,3.055h-30.168V944.833z M536.369,871.784c4.709,0,8.848-0.73,12.41-2.195
			c3.562-1.463,6.555-3.438,8.975-5.92c2.418-2.482,4.23-5.408,5.443-8.781c1.207-3.373,1.812-6.904,1.812-10.598
			c0-3.691-0.605-7.223-1.812-10.598c-1.213-3.371-3.025-6.33-5.443-8.877c-2.42-2.545-5.412-4.551-8.975-6.016
			c-3.562-1.461-7.701-2.195-12.41-2.195h-26.922v55.18H536.369z"/>
		<path fill="#098A9B" d="M633.172,818.817v51.934h57.281v12.199h-57.281v49.684h61.1v12.199h-86.875V811.179h86.875v7.639H633.172z
			"/>
		<path fill="#098A9B" d="M712.219,944.833V811.179h47.924c8.145,0,15.18,0.955,21.098,2.865c5.92,1.91,10.789,4.457,14.607,7.637
			c3.818,3.184,6.65,6.873,8.498,11.074c1.844,4.201,2.768,8.531,2.768,12.984c0,4.965-0.924,14.012-2.768,18.021
			c-1.848,4.012-4.297,7.385-7.352,10.121c-3.057,2.738-6.559,4.869-10.502,6.396c-3.947,1.527-8.02,2.291-12.221,2.291
			l38.951,62.264h-29.977l-41.814-72.172h18.711c3.818,0,7.127-0.764,9.928-2.293c2.799-1.525,5.125-3.562,6.971-6.109
			c1.844-2.545,3.246-5.441,4.199-8.688c0.957-3.246,1.434-6.521,1.434-9.832c0-3.438-0.477-6.746-1.434-9.93
			c-0.953-3.18-2.418-6.043-4.391-8.592c-1.975-2.545-4.424-4.582-7.352-6.109s-6.365-2.291-10.311-2.291h-21.193v126.016H712.219z"
			/>
	</g>
</g>
<g id="Layer_14" display="none">
	
		<text transform="matrix(0.9 0 0 0.75 154.9194 905.875)" display="inline" fill="#098A9B" font-family="'MontereyFLF'" font-size="259" letter-spacing="25.556">SIPPER</text>
</g>
</svg>
