<?xml version="1.0" encoding="utf-8"?>
<!-- Generator: Adobe Illustrator 16.0.0, SVG Export Plug-In . SVG Version: 6.00 Build 0)  -->
<!DOCTYPE svg PUBLIC "-//W3C//DTD SVG 1.1//EN" "http://www.w3.org/Graphics/SVG/1.1/DTD/svg11.dtd">
<svg version="1.1" id="Layer_1" xmlns="http://www.w3.org/2000/svg" xmlns:xlink="http://www.w3.org/1999/xlink" x="0px" y="0px"
	 width="600px" height="226px" viewBox="0 0 600 226" enable-background="new 0 0 600 226" xml:space="preserve">
<path fill="#088A9B" d="M156,227c-50.333,0-100.667-0.044-151,0.098c-3.425,0.01-4.103-0.673-4.097-4.098
	c0.127-72.667,0.127-145.333,0-218C0.897,1.575,1.577,0.903,5,0.905c197.333,0.106,394.667,0.106,592,0
	c3.424-0.002,4.105,0.67,4.098,4.095C600.959,59.333,601,113.667,601,168c-11.009-8.503-22.05-16.965-33.02-25.519
	c-22.859-17.824-45.697-35.676-68.514-53.555c-17.341-13.588-34.592-27.29-51.968-40.833c-10.05-7.832-20.269-15.448-30.412-23.161
	c-2.032-3.254-5.301-2.934-8.465-2.934c-77.44,0.002-154.882,0.002-232.323,0.002c-0.832,0-1.667-0.031-2.497,0.008
	c-5.713,0.27-7.23,2.802-4.301,7.739c3.563,6.005,8.133,11.511,11,17.81c4.419,9.705,11.121,13.727,21.535,11.558
	c-0.005,0.969-0.011,1.938-0.017,2.908c-0.998-0.029-1.997-0.078-2.996-0.085c-10.927-0.076-10.908-0.075-10.93,11.102
	c-0.056,28.649-0.128,57.3-0.194,85.949c-8.237-4.676-15.183-11.156-22.97-16.454c-5.159-3.51-9.428-8.334-15.474-10.538
	c-5.072-13.684-14.494-22.397-28.999-25.17c-2.6-0.497-3.646-1.644-3.444-4.324c0.22-2.919-1.746-3.539-4.239-3.529
	c-2.395,0.01-4.108,0.915-3.809,3.431c0.426,3.581-1.534,4.273-4.431,5.077c-17.727,4.913-28.749,20.17-27.428,38.449
	c1.019,14.092,8.716,24.021,20.901,30.709c-0.132,1.626,1.143,2.235,2.153,3.09C118.783,195.476,137.39,211.239,156,227z"/>
<path fill-rule="evenodd" clip-rule="evenodd" fill="#086D75" d="M156,227c-18.61-15.761-37.217-31.524-55.839-47.271
	c-1.01-0.854-2.286-1.464-2.153-3.089c14.705,5.933,28.575,4.652,40.569-6.023c11.645-10.363,14.872-23.599,10.879-38.62
	c6.046,2.204,10.314,7.028,15.474,10.538c7.787,5.298,14.732,11.778,22.97,16.455c0.059,11.155,0.12,22.312,0.176,33.467
	c0.032,6.445,1.098,7.522,7.531,7.522c64.289,0.002,128.579,0.001,192.868,0c7.397,0,8.281-0.883,8.281-8.322
	c0.002-38.807-0.053-77.614,0.024-116.421c0.03-14.826,0.14-13.423-13.734-13.28c0.635-1.698,2.132-1.227,3.38-1.317
	c6.451-0.469,11.624-2.248,14.874-8.905c3.461-7.092,8.366-13.476,12.603-20.193c1.308-2.075,3.098-3.938,3.185-6.608
	c10.144,7.714,20.362,15.33,30.412,23.162c17.376,13.543,34.627,27.245,51.968,40.833c22.816,17.879,45.654,35.73,68.514,53.555
	c10.97,8.554,22.011,17.016,33.02,25.519c0,18.148-0.113,36.299,0.095,54.445c0.042,3.646-0.65,4.662-4.532,4.658
	C474.351,226.978,352.139,227,229.927,227C205.284,227,180.643,227,156,227z M483.987,122.241c0.084-4.712-3.322-8.359-8.839-9.253
	c-7.497-1.215-14.949-2.76-22.479-3.704c-3.784-0.475-7.647-2.247-11.58,0.334c-4.272,2.804-4.345,7.221-5.053,11.37
	c-3.974,23.286-7.782,46.602-11.766,69.887c-1.093,6.384,2.131,11.136,8.56,12.131c9.141,1.413,18.273,2.878,27.398,4.386
	c5.482,0.906,9.807-1.993,10.773-7.528c2.671-15.302,5.317-30.607,7.891-45.926C480.644,143.515,482.253,133.068,483.987,122.241z"
	/>
<path fill-rule="evenodd" clip-rule="evenodd" fill="#FCFCFC" d="M383.046,61.956c13.874-0.143,13.765-1.546,13.734,13.28
	c-0.077,38.807-0.022,77.614-0.024,116.421c0,7.439-0.884,8.322-8.281,8.322c-64.289,0.001-128.579,0.002-192.868,0
	c-6.434,0-7.499-1.077-7.531-7.522c-0.056-11.155-0.117-22.312-0.176-33.467c0.066-28.65,0.139-57.301,0.194-85.95
	c0.021-11.177,0.003-11.178,10.93-11.102c0.999,0.007,1.998,0.056,2.996,0.084l-0.01-0.004c-0.038,8.179-0.033,7.902,7.236,8.02
	c6.723,0.109,4.028-4.87,4.853-7.994c52.236,0.019,104.473,0.038,156.709,0.057c0.798,3.194-1.675,8.158,5.071,7.949
	C382.927,69.831,382.937,70.151,383.046,61.956z M292.517,152.949c-9.479,0-18.96,0.076-28.438-0.046
	c-2.923-0.037-4.195,0.802-4.132,3.947c0.164,8.146,0.179,16.301-0.002,24.445c-0.081,3.682,1.836,4.624,4.911,4.624
	c18.461,0.003,36.922-0.014,55.382,0.012c3.634,0.005,4.886-1.709,4.793-5.284c-0.194-7.479-0.257-14.974,0.018-22.447
	c0.157-4.302-1.592-5.421-5.591-5.322C310.482,153.1,301.497,152.947,292.517,152.949z M214.268,133.032
	c2.647,0,5.305-0.136,7.941,0.033c3.373,0.216,4.839-1.078,4.759-4.565c-0.076-3.349-1.096-5.447-4.805-5.429
	c-5.13,0.027-10.26,0.02-15.39,0.004c-3.729-0.011-4.674,2.153-4.756,5.476c-0.087,3.539,1.481,4.729,4.805,4.513
	C209.295,132.903,211.785,133.032,214.268,133.032z M308.979,194.927c3.814,0,7.63-0.019,11.444,0.007
	c2.378,0.015,4.614,0.322,4.632-3.361c0.016-3.411-1.716-3.688-4.366-3.657c-7.795,0.091-15.592,0.053-23.388,0.02
	c-2.286-0.01-4.309-0.09-4.256,3.223c0.051,3.238,1.787,3.854,4.488,3.79C301.348,194.858,305.164,194.925,308.979,194.927z
	 M275.205,194.921c4.154,0,8.312-0.097,12.462,0.035c2.666,0.085,3.407-1.106,3.426-3.589c0.02-2.616-1.015-3.483-3.555-3.452
	c-7.976,0.1-15.954,0.087-23.93,0.005c-2.416-0.025-3.638,0.593-3.674,3.329c-0.037,2.862,1.04,3.827,3.806,3.715
	C267.556,194.809,271.383,194.925,275.205,194.921z M362.962,112.005c-2.16,0-4.33,0.134-6.477-0.03
	c-3.573-0.274-4.586,1.443-4.574,4.765c0.011,3.311,0.547,5.515,4.591,5.275c3.642-0.215,7.312-0.172,10.96-0.006
	c3.494,0.159,5.6-0.472,5.63-4.788c0.031-4.313-1.679-5.673-5.647-5.244C365.967,112.137,364.457,112.003,362.962,112.005z
	 M362.79,99.01c1.492,0,2.993-0.11,4.474,0.021c3.729,0.334,5.843-0.507,5.839-5.036c-0.004-4.607-2.284-5.19-5.929-4.987
	c-2.975,0.166-5.979,0.205-8.946-0.009c-3.812-0.274-5.303,1.1-5.321,5.084c-0.02,4.106,1.716,5.303,5.41,4.946
	C359.795,98.887,361.298,99.006,362.79,99.01z M211.474,112.002c-0.996,0-1.993,0.031-2.988-0.005
	c-3.462-0.126-6.677-0.423-6.512,4.852c0.148,4.747,2.625,5.465,6.461,5.151c1.979-0.161,3.994-0.168,5.972,0.002
	c3.816,0.327,5.696-0.694,5.798-5.13c0.107-4.684-2.094-5.272-5.744-4.886C213.475,112.091,212.47,112.002,211.474,112.002z
	 M210.135,110.074c8.168-0.001,8.012,0.002,7.928-5.506c-0.044-2.855-1.247-4.245-3.829-3.552c-4.021,1.08-9.833-3.36-11.974,2.995
	C200.61,108.91,202.473,110.075,210.135,110.074z M353.74,133.032c0.83,0,1.326-0.021,1.82,0.003
	c3.128,0.156,5.753,0.34,5.662-4.388c-0.083-4.362-1.488-6.123-5.779-5.591c-0.976,0.12-1.993,0.124-2.967-0.002
	c-4.438-0.577-5.555,1.482-5.633,5.702C346.728,135.118,351.25,132.366,353.74,133.032z M341.448,134.968
	c-1.79,1.162-6.412-2.445-6.589,3.771c-0.134,4.688,1.262,7.045,6.1,6.138c2.919-0.547,7.481,2.322,8.104-3.545
	C349.7,135.327,349.305,134.968,341.448,134.968z M208.472,135.035c-3.284-0.21-6.631-0.71-6.483,4.605
	c0.129,4.635,2.606,5.367,6.424,5.343c3.698-0.023,6.403-0.446,6.586-5.177C215.198,134.646,212.11,134.714,208.472,135.035z
	 M368.256,110.064c1.83,0.032,4.953,0.806,4.861-4.412c-0.094-5.299-3.273-4.602-6.612-4.765c-3.588-0.175-5.756,0.152-5.747,4.856
	C360.767,111.03,363.966,110.031,368.256,110.064z M285.876,128.015c0.575-3.808-1.179-4.965-4.816-5.035
	c-4-0.076-5.13,1.485-5.175,5.313c-0.044,3.731,1.104,4.922,4.846,4.849C284.506,133.067,286.549,132.075,285.876,128.015z
	 M264.078,139.362c-0.537,3.67,0.436,5.763,4.696,5.648c3.384-0.09,5.293-0.73,5.259-4.699c-0.032-3.661-0.839-5.608-5.019-5.433
	C265.77,135.016,263.181,135.126,264.078,139.362z M255.916,116.939c0.577-3.729-1.059-4.982-4.723-5.031
	c-3.842-0.051-5.312,1.215-5.251,5.151c0.056,3.594,1.21,4.998,4.911,5.003C254.645,122.066,256.598,120.947,255.916,116.939z
	 M258.064,116.597c-0.531,3.601,0.549,5.584,4.733,5.46c3.347-0.1,5.373-0.707,5.21-4.661c-0.128-3.091-0.167-5.61-4.376-5.451
	C260.388,112.066,257.398,111.977,258.064,116.597z M298.209,121.913c3.764,0.578,4.824-1.241,4.89-4.819
	c0.072-3.893-1.297-5.171-5.183-5.203c-4.196-0.036-4.9,1.907-4.925,5.481C292.966,121.245,294.723,122.4,298.209,121.913z
	 M305.103,117.11c-0.574,3.831,1.268,4.877,4.833,4.954c3.964,0.087,5.168-1.438,5.145-5.258c-0.021-3.703-1.392-4.864-4.996-4.898
	C306.177,111.871,304.461,113.226,305.103,117.11z M322.374,112.063c-3.563-0.526-5.597,0.498-5.455,4.71
	c0.11,3.284,0.565,5.35,4.582,5.283c3.517-0.059,5.713-0.611,5.517-4.868C326.868,113.956,326.542,111.46,322.374,112.063z
	 M315.934,135.076c-3.897-0.896-4.952,1.173-4.976,4.938c-0.022,3.589,1.164,5.062,4.88,4.992c3.349-0.062,5.302-0.711,5.213-4.655
	C320.973,136.87,320.521,134.318,315.934,135.076z M261.888,139.715c0.856-3.979-1.427-4.771-5.08-4.831
	c-3.751-0.062-4.802,1.454-4.865,5.006c-0.071,3.962,1.465,5.174,5.272,5.127C260.9,144.97,262.465,143.622,261.888,139.715z
	 M273.883,127.812c0.712-3.65-1.122-4.744-4.714-4.825c-3.864-0.087-5.28,1.262-5.227,5.169c0.05,3.601,1.215,4.975,4.911,4.97
	C272.64,133.12,274.594,132.013,273.883,127.812z M207.227,89.116c-3.032-0.429-5.312,0.168-5.208,4.251
	c0.082,3.237,0.076,5.927,4.567,5.713c3.103-0.147,5.558-0.232,5.409-4.377C211.88,91.492,211.982,88.502,207.227,89.116z
	 M332.87,127.755c0.744-3.718-1.232-4.669-4.761-4.766c-3.911-0.107-5.223,1.349-5.183,5.213c0.038,3.659,1.323,4.907,4.964,4.924
	C331.738,133.143,333.569,131.907,332.87,127.755z M249.943,140.041c0.443-3.217-0.05-5.412-4.225-5.159
	c-3.243,0.196-5.877,0.134-5.717,4.595c0.131,3.651,1.393,5.427,5.231,5.509C248.87,145.063,250.526,143.733,249.943,140.041z
	 M221.886,135.034c-3.362-0.574-5.192,0.336-4.995,4.341c0.163,3.335,0.308,5.792,4.688,5.626c3.729-0.142,5.312-1.585,5.396-5.348
	C227.057,135.919,225.513,134.485,221.886,135.034z M339.337,132.961c3.525,0.465,5.818-0.239,5.675-4.55
	c-0.123-3.729-1.577-5.298-5.34-5.404c-3.798-0.106-4.791,1.586-4.749,5.068C334.963,131.312,335.19,133.818,339.337,132.961z
	 M320.942,128.533c0.375-3.324-0.182-5.563-4.265-5.529c-3.954,0.034-5.619,1.532-5.681,5.562c-0.061,3.994,2.006,4.472,5.271,4.546
	C319.787,133.193,321.753,132.335,320.942,128.533z M323.101,139.608c-0.466,3.168,0.104,5.407,4.193,5.382
	c3.917-0.023,5.662-1.454,5.724-5.519c0.06-3.959-1.931-4.531-5.235-4.584C324.32,134.833,322.24,135.567,323.101,139.608z
	 M304.563,135.042c-3.635-0.53-5.708,0.452-5.561,4.652c0.134,3.789,1.746,5.196,5.446,5.301c3.911,0.111,4.619-1.805,4.636-5.17
	C309.103,136.459,308.592,134.191,304.563,135.042z M261.932,128.638c0.49-3.559-0.297-5.785-4.576-5.635
	c-3.757,0.133-5.248,1.665-5.35,5.396c-0.104,3.83,1.652,4.732,5.101,4.712C260.41,133.092,262.793,132.721,261.932,128.638z
	 M238.94,121.959c2.834,0.275,5.253-0.116,5.13-4.316c-0.096-3.302-0.131-6.015-4.64-5.694c-2.782,0.197-5.644-0.075-5.303,3.954
	C234.37,118.761,233.968,122.28,238.94,121.959z M229.089,128.172c-0.647,3.062-0.001,4.886,4.146,5.009
	c4.347,0.128,5.551-1.889,5.644-5.505c0.088-3.399-1.846-4.527-5.022-4.65C230.279,122.886,228.439,124.1,229.089,128.172z
	 M308.97,128.675c0.476-3.551-0.271-5.786-4.575-5.686c-3.515,0.083-4.609,1.523-4.512,4.823c0.088,2.969-0.188,5.559,4.213,5.319
	C307.336,132.955,309.832,132.812,308.97,128.675z M288.036,128.207c-0.652,3.477,0.54,4.941,4.421,4.952
	c3.785,0.01,4.843-1.274,4.708-4.888c-0.122-3.28-0.608-5.302-4.586-5.283C288.761,123.005,287.514,124.643,288.036,128.207z
	 M375.05,139.215c-0.257,3.221-0.124,5.76,4.165,5.791c3.747,0.028,4.932-1.399,4.909-5.031c-0.021-3.353-0.412-5.326-4.549-5.117
	C376.302,135.022,374.318,135.593,375.05,139.215z M349.973,116.773c0.687-3.539-0.661-4.859-4.475-4.898
	c-3.884-0.039-4.745,1.442-4.649,4.963c0.09,3.332,0.693,5.243,4.638,5.225C349.379,122.045,350.462,120.281,349.973,116.773z
	 M337.996,116.814c0.68-3.54-0.605-4.966-4.454-4.922c-3.922,0.044-4.603,1.846-4.655,5.206c-0.056,3.627,1.236,4.872,4.89,4.982
	C337.961,122.207,338.469,120.101,337.996,116.814z M296.978,139.95c0.523-3.31-0.236-5.162-4.303-5.106
	c-3.616,0.049-5.037,0.984-4.826,4.764c0.176,3.155,0.358,5.427,4.457,5.4C295.995,144.983,297.544,143.62,296.978,139.95z
	 M284.968,139.646c0.791-3.234-0.327-4.796-4.273-4.795c-3.646,0-5.012,1.023-4.814,4.776c0.167,3.166,0.376,5.415,4.468,5.38
	C284.045,144.976,285.564,143.579,284.968,139.646z M286.408,112.089c-4.175-0.875-4.528,1.543-4.548,4.841
	c-0.021,3.445,0.873,5.129,4.719,5.136c4.028,0.007,4.461-2.056,4.542-5.307C291.208,113.23,290.338,111.258,286.408,112.089z
	 M279.006,116.875c0.644-3.488-0.503-5.041-4.412-4.984c-3.875,0.057-4.659,1.757-4.692,5.163c-0.035,3.571,1.124,4.932,4.834,5.028
	C278.854,122.189,279.516,120.211,279.006,116.875z M383.973,128.604c0.357-3.311-0.106-5.596-4.285-5.617
	c-3.887-0.021-4.72,1.688-4.786,5.17c-0.068,3.566,0.778,5.1,4.704,4.994C383.096,133.057,384.65,132.059,383.973,128.604z
	 M237.935,139.646c0.802-3.252-0.346-4.787-4.279-4.795c-3.66-0.008-4.992,1.039-4.797,4.78c0.165,3.177,0.398,5.402,4.477,5.378
	C237.05,144.985,238.535,143.563,237.935,139.646z M249.982,128.6c0.345-3.293-0.094-5.6-4.229-5.606
	c-3.659-0.006-4.98,1.322-4.894,4.958c0.075,3.147,0.146,5.373,4.376,5.193C248.65,133,250.809,132.489,249.982,128.6z
	 M223.01,93.884c0.451-3.109-0.165-5.01-4.063-4.943c-3.672,0.062-5.002,1.322-4.955,4.993c0.044,3.438,0.855,5.103,4.75,5.189
	C222.946,99.218,223.46,97.144,223.01,93.884z M237.984,93.568c-0.248,3.062-0.452,5.684,4.044,5.546
	c3.646-0.111,5.027-1.258,4.98-4.953c-0.043-3.423-0.813-5.211-4.728-5.221C238.681,88.932,237.379,90.231,237.984,93.568z
	 M280.988,94.168c0.462-3.287-0.099-5.342-4.287-5.241c-3.905,0.095-4.684,1.803-4.726,5.23c-0.045,3.688,1.306,4.897,4.974,4.955
	C280.874,99.174,281.438,97.255,280.988,94.168z M304.011,94.064c0.348-3.02,0.115-5.219-3.938-5.122
	c-3.549,0.085-5.157,1.075-5.062,4.867c0.083,3.309,0.604,5.244,4.624,5.312C303.679,99.189,304.58,97.43,304.011,94.064z
	 M318.999,94.094c-0.577,3.372,0.357,5.101,4.393,5.03c4.019-0.07,4.549-1.998,4.627-5.312c0.09-3.804-1.551-4.775-5.086-4.866
	C318.865,88.841,318.666,91.073,318.999,94.094z M224.682,101.008c-3.542-0.462-5.803,0.265-5.703,4.571
	c0.081,3.479,1.456,4.655,4.789,4.547c2.957-0.096,5.579,0.202,5.328-4.207C228.914,102.722,228.859,100.148,224.682,101.008z
	 M236.183,109.952c3.294,0.772,4.954-0.29,4.891-4.264c-0.06-3.717-1.477-4.852-5.032-4.835c-3.468,0.017-5.045,0.952-5.121,4.753
	C230.842,109.547,232.475,110.617,236.183,109.952z M247.52,109.963c3.441,0.628,5.567-0.276,5.498-4.528
	c-0.056-3.484-1.45-4.66-4.782-4.549c-2.946,0.098-5.587-0.224-5.331,4.196C243.09,108.272,243.135,110.856,247.52,109.963z
	 M287.913,105.415c0.871-4.155-1.517-4.534-4.826-4.558c-3.474-0.023-5.109,0.938-5.116,4.745c-0.007,4.005,2.048,4.465,5.308,4.552
	C286.843,110.25,288.731,109.298,287.913,105.415z M231.984,116.748c0.707-3.568-0.697-4.928-4.499-4.853
	c-3.323,0.064-4.775,0.873-4.62,4.462c0.143,3.292,0.194,5.786,4.645,5.711C231.413,122.004,232.463,120.248,231.984,116.748z
	 M306.788,101.008c-3.472-0.658-4.911,0.563-4.919,4.433c-0.008,3.765,1.235,4.861,4.869,4.726c3.288-0.123,5.295-0.625,5.272-4.596
	C311.99,101.774,310.393,100.479,306.788,101.008z M353.63,110.008c3.437,0.435,5.403-0.421,5.416-4.398
	c0.012-3.809-1.625-4.742-5.098-4.76c-3.373-0.019-5.163,0.531-5.052,4.553C348.997,109.009,349.907,110.796,353.63,110.008z
	 M341.902,110.015c3.202,0.422,5.316-0.047,5.213-4.229c-0.086-3.479-0.75-5.191-4.66-4.931c-3.074,0.204-5.507,0.196-5.473,4.37
	C337.013,108.804,338.148,110.59,341.902,110.015z M364.006,139.29c-0.45,3.513,0.217,5.808,4.556,5.721
	c3.587-0.071,4.477-1.644,4.478-4.882c0.001-3.313-0.603-5.312-4.595-5.252C365.135,134.926,363.276,135.663,364.006,139.29z
	 M360.989,139.795c0.354-2.72,0.309-5.052-3.804-4.918c-3.35,0.108-5.355,0.703-5.189,4.646c0.129,3.072,0.138,5.52,4.347,5.483
	C360.046,144.976,361.57,143.587,360.989,139.795z M372.913,128.098c0.523-3.581-0.863-5.097-4.633-5.106
	c-4.134-0.012-4.323,2.297-4.415,5.442c-0.095,3.268,0.691,4.778,4.368,4.702C371.94,133.059,373.46,131.718,372.913,128.098z
	 M257.922,94.246c0.48-3.156-0.169-5.269-4.256-5.293c-3.866-0.023-4.697,1.697-4.721,5.133c-0.024,3.56,1.091,4.993,4.832,5.024
	C257.454,99.142,258.53,97.671,257.922,94.246z M260.992,93.697c-0.09,2.828-0.579,5.468,3.707,5.409
	c3.682-0.05,5.556-0.926,5.332-5.013c-0.163-2.971-0.385-5.111-4.216-5.124C262.237,88.959,260.428,90.092,260.992,93.697z
	 M284.044,94.12c-0.379,2.985-0.039,5.089,3.95,4.983c3.479-0.092,5.188-0.959,5.064-4.78c-0.104-3.192-0.38-5.39-4.475-5.37
	C284.737,88.973,283.533,90.629,284.044,94.12z M315.956,94.726c0.232-3.176,0.186-5.747-4.104-5.765
	c-3.648-0.016-5,1.245-4.933,4.919c0.062,3.341,0.661,5.269,4.632,5.223C314.936,99.062,316.649,98.187,315.956,94.726z
	 M338.948,94.569c0.325-3.035,0.205-5.562-4.049-5.603c-3.633-0.035-5.023,1.221-4.949,4.899c0.067,3.31,0.624,5.292,4.612,5.235
	C337.915,99.053,339.681,98.227,338.948,94.569z M350.899,94.026c0.524-3.596-0.913-5.053-4.653-5.068
	c-4.193-0.017-4.229,2.399-4.347,5.477c-0.128,3.298,0.739,4.736,4.38,4.675C350.043,99.047,351.422,97.579,350.899,94.026z
	 M383.972,94.403c0.402-3.346-0.286-5.436-4.349-5.452c-3.894-0.017-4.67,1.748-4.708,5.168c-0.041,3.619,1.184,4.952,4.882,4.993
	C383.506,99.153,384.523,97.613,383.972,94.403z M294.334,110.022c3.229,0.271,5.708,0.052,5.722-4.189
	c0.013-3.64-1.218-5.033-4.922-4.98c-3.415,0.048-5.238,0.796-5.199,4.714C289.968,108.943,290.825,110.704,294.334,110.022z
	 M383.983,117.138c0.212-2.88,0.365-5.379-3.822-5.223c-3.306,0.123-5.422,0.595-5.227,4.612c0.148,3.048,0.06,5.552,4.312,5.526
	C382.928,122.032,384.543,120.743,383.983,117.138z M234.944,94.104c0.521-3.481-0.691-5.176-4.574-5.146
	c-3.685,0.028-4.406,1.753-4.443,4.957c-0.039,3.438,0.769,5.25,4.708,5.18C234.289,99.027,235.381,97.417,234.944,94.104z
	 M263.98,105.354c0.729-3.664-1.078-4.42-4.393-4.522c-3.77-0.117-4.769,1.233-4.744,4.85c0.022,3.5,1.214,4.466,4.592,4.498
	C263.109,110.213,264.754,109.095,263.98,105.354z M266.982,105.002c-0.269,2.924-0.27,5.384,3.838,5.139
	c2.96-0.176,5.519,0.154,5.317-4.225c-0.149-3.262-0.38-5.349-4.491-5.07C268.653,101.049,266.243,101.131,266.982,105.002z
	 M379.943,101.004c-3.059-0.398-5.181-0.022-5.039,3.987c0.114,3.248,0.273,5.394,4.481,5.192c3.222-0.154,4.947-0.682,4.728-4.417
	C383.939,102.809,383.998,100.235,379.943,101.004z M318.787,109.946c3.477,0.875,4.296-0.898,4.378-4.269
	c0.087-3.627-0.972-4.938-4.737-4.854c-3.381,0.076-4.598,1.021-4.575,4.519C313.876,108.877,314.697,110.802,318.787,109.946z
	 M330.213,110.002c3.127,0.467,5.042-0.16,4.911-4.017c-0.109-3.193-0.255-5.272-4.415-5.172c-3.537,0.086-5.047,0.876-4.885,4.709
	C325.959,108.729,326.5,110.741,330.213,110.002z M206.975,87.91c2.943,0.286,5.07-0.282,5.012-4.085
	c-0.056-3.582-2.159-3.801-4.887-3.837c-2.972-0.039-5.151,0.31-5.073,4.141C202.1,87.688,204.151,88.126,206.975,87.91z
	 M368.279,87.893c3.16,0.343,4.774-0.71,4.737-4.113c-0.04-3.724-2.353-3.675-5.027-3.8c-2.964-0.139-4.098,0.844-4.143,3.955
	C363.796,87.432,365.297,88.389,368.279,87.893z M379.675,80.09c-2.767-0.336-4.687,0.285-4.728,3.823
	c-0.04,3.493,1.8,4.042,4.689,4.078c3.125,0.039,4.426-1.084,4.47-4.334C384.151,80.314,382.489,79.72,379.675,80.09z
	 M222.924,83.997c0.303-3.055-1.282-4.006-4.128-4.011c-2.83-0.004-4.797,0.448-4.764,3.958c0.028,3.004,1.337,4.052,4.206,4.035
	C221.055,87.964,223.239,87.544,222.924,83.997z M254.923,84.009c0.304-3.065-1.281-4.016-4.127-4.022
	c-2.838-0.007-4.795,0.462-4.766,3.963c0.024,3.012,1.351,4.046,4.214,4.03C253.059,87.964,255.253,87.557,254.923,84.009z
	 M282.676,87.909c2.853,0.264,4.281-0.792,4.328-3.863c0.053-3.443-1.756-4.075-4.664-4.064c-2.804,0.011-4.268,0.876-4.308,3.938
	C277.987,87.338,279.767,88.209,282.676,87.909z M310.108,83.663c-0.249,2.667,0.637,4.37,3.769,4.294
	c2.55-0.062,5.069,0.173,5.105-3.57c0.026-2.718-0.646-4.464-3.807-4.379C312.617,80.077,310.003,79.838,310.108,83.663z
	 M346.868,87.888c2.718,0.348,4.072-0.797,4.133-3.839c0.069-3.441-1.74-4.078-4.65-4.067c-2.805,0.01-4.264,0.873-4.305,3.934
	C342.001,87.324,343.759,88.217,346.868,87.888z M307.961,83.679c0.556-3.211-1.312-3.654-4.042-3.717
	c-2.955-0.067-4.096,0.905-4.015,3.946c0.08,2.963,1.271,4.072,4.159,4.066C307.048,87.968,308.286,86.664,307.961,83.679z
	 M293.641,80.063c-2.713-0.216-4.61,0.327-4.652,3.569c-0.036,2.768,0.761,4.324,3.852,4.35c2.658,0.021,4.452-0.339,4.286-3.665
	C297,81.803,297.043,79.542,293.641,80.063z M272.011,80.085c-2.916-0.471-4.188,0.613-4.106,3.727
	c0.077,2.89,1.098,4.163,4.062,4.166c2.931,0.002,4.038-1.185,4.102-4.115C276.133,80.809,274.984,79.594,272.011,80.085z
	 M261.254,80.071c-3.02-0.303-4.263,0.97-4.278,3.945c-0.015,3.062,1.444,3.878,4.239,3.984c3.095,0.117,3.918-1.172,3.919-4.063
	C265.136,80.99,264.229,79.554,261.254,80.071z M325.623,80.064c-2.725-0.221-4.598,0.348-4.638,3.584
	c-0.034,2.782,0.79,4.307,3.869,4.335c2.675,0.024,4.433-0.373,4.272-3.683C329.005,81.768,329.008,79.539,325.623,80.064z
	 M240.514,80.066c-2.512-0.165-4.743-0.246-4.602,3.323c0.103,2.573,0.38,4.556,3.63,4.569c2.608,0.011,4.507-0.435,4.496-3.681
	C244.029,81.703,243.896,79.533,240.514,80.066z M335.954,87.896c2.655,0.292,4.061-0.775,4.118-3.841
	c0.055-2.873-0.747-4.207-3.868-4.091c-2.61,0.097-4.443,0.297-4.296,3.66C332.027,86.343,332.637,88.148,335.954,87.896z
	 M232.965,83.905c0.603-2.681-0.448-4.025-3.599-3.929c-2.693,0.082-4.376,0.661-4.388,3.821c-0.012,2.889,1.049,4.16,4.023,4.191
	C231.795,88.02,233.552,87.395,232.965,83.905z M357.31,87.9c3.008,0.523,3.897-1.005,3.816-3.914
	c-0.067-2.447-0.354-4.089-3.434-4.013c-2.842,0.069-4.757,0.521-4.719,4.003C353.007,86.994,354.325,88.166,357.31,87.9z"/>
<path fill-rule="evenodd" clip-rule="evenodd" fill="#CDCDCD" d="M383.046,61.956c-0.109,8.195-0.119,7.875-7.167,8.094
	c-6.746,0.209-4.273-4.755-5.07-7.949c0.371-0.121,0.741-0.242,1.109-0.361c-0.423,3.766,0.666,5.536,5.04,5.46
	c4.166-0.073,5.593-1.326,5.041-5.391c-0.283-2.083,0.022-4.245,0.062-6.371l-0.227-0.196l0.144-0.264
	c5.126,1.314,8.729,0.01,11.174-5.161c2.256-4.772,5.452-9.096,8.177-13.65c0.83-1.387,2.407-3.281,1.999-4.25
	c-0.818-1.94-3.23-0.853-4.92-0.854c-68.211-0.055-136.422-0.05-204.633-0.03c-1.979,0.001-3.958,0.244-5.937,0.374
	c-2.225,0-4.45,0-7.454,0c3.691,6.046,7.155,11.111,9.974,16.513c2.563,4.911,5.543,8.488,11.675,7.583
	c0.001,1.205,0.002,2.409,0.003,3.614c-10.414,2.169-17.116-1.853-21.535-11.558c-2.867-6.299-7.437-11.805-11-17.81
	c-2.93-4.938-1.412-7.47,4.301-7.739c0.83-0.039,1.665-0.008,2.497-0.008c77.441,0,154.883,0,232.323-0.002
	c3.164,0,6.433-0.32,8.465,2.934c-0.087,2.67-1.877,4.532-3.185,6.607c-4.236,6.718-9.142,13.102-12.603,20.193
	c-3.25,6.657-8.423,8.437-14.874,8.905C385.178,60.729,383.681,60.258,383.046,61.956z M172.635,23.463c0,0.33,0,0.66,0,0.99
	c79.91,0,159.82,0,239.73,0c0-0.33,0-0.66,0-0.99C332.455,23.463,252.545,23.463,172.635,23.463z"/>
<path fill-rule="evenodd" clip-rule="evenodd" fill="#FCFCFC" d="M149.456,131.997c3.993,15.021,0.766,28.257-10.879,38.62
	c-11.994,10.676-25.865,11.956-40.569,6.023c-12.185-6.688-19.883-16.618-20.901-30.71c-1.321-18.279,9.701-33.536,27.428-38.449
	c2.897-0.804,4.857-1.496,4.431-5.077c-0.299-2.516,1.415-3.421,3.809-3.431c2.493-0.01,4.459,0.61,4.239,3.529
	c-0.202,2.681,0.844,3.827,3.444,4.324C134.962,109.6,144.384,118.313,149.456,131.997z M140.128,142.923
	c-0.021-14.37-11.601-25.962-25.976-26.004c-14.674-0.043-26.289,11.537-26.28,26.2c0.009,15.001,11.134,26.038,26.226,26.02
	C129.12,169.121,140.151,158.011,140.128,142.923z"/>
<path fill-rule="evenodd" clip-rule="evenodd" fill="#FCFCFC" d="M202.036,59.115c-0.001-1.205-0.002-2.409-0.003-3.614
	c3.62-0.456,7.239-0.479,10.858,0.004c0.051,1.23,0.103,2.461,0.153,3.691c0.005,0.866,0.009,1.733,0.013,2.6
	c0.499,3.935-0.974,5.203-5.15,5.455c-4.47,0.27-4.812-2.531-5.897-5.232l0.01,0.004C202.025,61.054,202.031,60.084,202.036,59.115z
	"/>
<path fill-rule="evenodd" clip-rule="evenodd" fill="#FCFCFC" d="M483.987,122.241c-1.734,10.827-3.344,21.273-5.094,31.696
	c-2.573,15.318-5.22,30.624-7.891,45.926c-0.967,5.535-5.291,8.435-10.773,7.528c-9.125-1.508-18.258-2.973-27.398-4.386
	c-6.429-0.995-9.652-5.747-8.56-12.131c3.983-23.285,7.792-46.601,11.766-69.887c0.708-4.149,0.78-8.566,5.053-11.37
	c3.933-2.581,7.796-0.809,11.58-0.334c7.529,0.944,14.981,2.489,22.479,3.704C480.665,113.882,484.071,117.529,483.987,122.241z
	 M439.984,118.989c-0.484,2.432-1.033,4.853-1.444,7.297c-3.353,19.936-6.662,39.878-10.048,59.809
	c-0.276,1.63-0.639,2.713,1.662,3.078c11.941,1.895,23.864,3.91,35.778,5.974c2.78,0.481,3.143-0.875,2.812-3.058
	c2.452-6.006,2.585-12.482,3.685-18.75c2.706-15.42,5.03-30.907,7.739-46.327c0.466-2.651-0.124-3.58-2.605-3.982
	c-11.561-1.878-23.107-3.842-34.664-5.749C441.519,117.052,439.688,116.265,439.984,118.989z M447.251,202.875
	c1.615-0.676,3.718-1.162,3.739-3.702c0.021-2.538-1.409-4.06-3.942-4.151c-2.482-0.09-3.619,1.752-3.741,3.815
	C443.174,201.098,444.771,202.369,447.251,202.875z M451.761,113.747c6.108,1.404,12.104,3.567,18.591,2.459
	C464.218,114.965,458.254,112.597,451.761,113.747z M438.804,199.204c1.102-0.375,2.715,0.254,2.875-1.363
	c0.239-2.416-1.861-1.896-3.129-1.867c-2.499,0.056-6.551-2.998-7.053,0.475C431.128,198.997,436.319,197.999,438.804,199.204z
	 M456.762,198.87c-1.285,0.291-3.211-0.7-3.379,1.142c-0.182,2.008,1.944,2.26,3.214,1.939c2.174-0.548,5.571,3.063,6.139-0.572
	C463.093,199.096,458.916,199.421,456.762,198.87z"/>
<path fill-rule="evenodd" clip-rule="evenodd" fill="#CDCDCD" d="M292.517,152.948c8.98-0.001,17.966,0.151,26.94-0.07
	c3.999-0.099,5.748,1.021,5.591,5.322c-0.274,7.474-0.212,14.969-0.018,22.447c0.093,3.575-1.159,5.289-4.793,5.284
	c-18.46-0.025-36.921-0.009-55.382-0.012c-3.075,0-4.992-0.942-4.911-4.624c0.181-8.145,0.166-16.299,0.002-24.445
	c-0.063-3.146,1.209-3.984,4.132-3.947C273.557,153.025,283.037,152.949,292.517,152.948z"/>
<path fill-rule="evenodd" clip-rule="evenodd" fill="#088A9B" d="M213.058,61.796c-0.004-0.866-0.008-1.733-0.012-2.601
	c37.643-0.02,75.285-0.052,112.929-0.049c15.32,0.002,30.641,0.082,45.961,0.127c-0.006,0.821-0.012,1.643-0.017,2.464
	c-0.369,0.121-0.739,0.242-1.11,0.363c-52.237-0.019-104.474-0.038-156.711-0.057C213.751,61.962,213.404,61.879,213.058,61.796z"/>
<path fill-rule="evenodd" clip-rule="evenodd" fill="#CDCDCD" d="M214.268,133.032c-2.482,0-4.973-0.129-7.445,0.031
	c-3.323,0.216-4.892-0.974-4.805-4.513c0.082-3.322,1.027-5.486,4.756-5.476c5.13,0.016,10.26,0.023,15.39-0.004
	c3.709-0.019,4.729,2.08,4.805,5.429c0.08,3.487-1.386,4.781-4.759,4.565C219.572,132.896,216.915,133.032,214.268,133.032z"/>
<path fill-rule="evenodd" clip-rule="evenodd" fill="#CDCDCD" d="M308.979,194.926c-3.815-0.001-7.632-0.067-11.445,0.021
	c-2.701,0.063-4.438-0.552-4.488-3.79c-0.053-3.312,1.97-3.232,4.256-3.223c7.796,0.033,15.593,0.071,23.388-0.02
	c2.65-0.03,4.382,0.246,4.366,3.657c-0.018,3.684-2.254,3.376-4.632,3.361C316.609,194.908,312.794,194.927,308.979,194.926z"/>
<path fill-rule="evenodd" clip-rule="evenodd" fill="#CDCDCD" d="M275.205,194.923c-3.822,0.002-7.649-0.114-11.465,0.041
	c-2.766,0.112-3.843-0.853-3.806-3.715c0.036-2.736,1.258-3.354,3.674-3.329c7.976,0.082,15.954,0.095,23.93-0.005
	c2.54-0.031,3.574,0.836,3.555,3.452c-0.019,2.482-0.76,3.674-3.426,3.589C283.518,194.824,279.359,194.921,275.205,194.923z"/>
<path fill-rule="evenodd" clip-rule="evenodd" fill="#CDCDCD" d="M362.962,112.004c1.495-0.001,3.005,0.133,4.482-0.027
	c3.969-0.429,5.679,0.931,5.647,5.244c-0.03,4.316-2.136,4.947-5.63,4.788c-3.647-0.166-7.318-0.209-10.96,0.006
	c-4.044,0.239-4.58-1.965-4.591-5.275c-0.012-3.321,1.001-5.039,4.574-4.765C358.632,112.139,360.802,112.005,362.962,112.004z"/>
<path fill-rule="evenodd" clip-rule="evenodd" fill="#CDCDCD" d="M362.79,99.008c-1.492-0.002-2.995-0.121-4.474,0.021
	c-3.694,0.356-5.43-0.84-5.41-4.946c0.019-3.984,1.509-5.358,5.321-5.084c2.968,0.214,5.972,0.175,8.946,0.009
	c3.645-0.203,5.925,0.38,5.929,4.987c0.004,4.529-2.11,5.37-5.839,5.036C365.783,98.899,364.282,99.01,362.79,99.008z"/>
<path fill-rule="evenodd" clip-rule="evenodd" fill="#CDCDCD" d="M211.474,112.002c0.996,0,2.001,0.089,2.986-0.016
	c3.65-0.387,5.852,0.202,5.744,4.886c-0.102,4.436-1.981,5.457-5.798,5.13c-1.978-0.17-3.992-0.163-5.972-0.002
	c-3.836,0.313-6.312-0.404-6.461-5.151c-0.165-5.274,3.05-4.978,6.512-4.852C209.48,112.033,210.478,112.002,211.474,112.002z"/>
<path fill-rule="evenodd" clip-rule="evenodd" fill="#CDCDCD" d="M210.135,110.074c-7.662,0.001-9.524-1.164-7.875-6.062
	c2.141-6.355,7.953-1.915,11.974-2.995c2.582-0.693,3.785,0.696,3.829,3.552C218.146,110.076,218.303,110.073,210.135,110.074z"/>
<path fill-rule="evenodd" clip-rule="evenodd" fill="#CDCDCD" d="M353.74,133.032c-2.49-0.666-7.013,2.086-6.896-4.275
	c0.078-4.22,1.194-6.279,5.633-5.702c0.974,0.126,1.991,0.122,2.967,0.002c4.291-0.532,5.696,1.229,5.779,5.591
	c0.091,4.728-2.534,4.544-5.662,4.388C355.066,133.011,354.57,133.032,353.74,133.032z"/>
<path fill-rule="evenodd" clip-rule="evenodd" fill="#CDCDCD" d="M341.448,134.968c7.856,0,8.252,0.359,7.615,6.364
	c-0.623,5.867-5.186,2.998-8.104,3.545c-4.838,0.907-6.233-1.45-6.1-6.138C335.036,132.522,339.658,136.13,341.448,134.968z"/>
<path fill-rule="evenodd" clip-rule="evenodd" fill="#CDCDCD" d="M208.472,135.035c3.639-0.321,6.727-0.39,6.526,4.771
	c-0.183,4.73-2.888,5.153-6.586,5.177c-3.817,0.024-6.295-0.708-6.424-5.343C201.841,134.325,205.188,134.825,208.472,135.035z"/>
<path fill-rule="evenodd" clip-rule="evenodd" fill="#CDCDCD" d="M368.256,110.064c-4.29-0.033-7.489,0.966-7.498-4.32
	c-0.009-4.704,2.159-5.031,5.747-4.856c3.339,0.163,6.519-0.534,6.612,4.765C373.209,110.87,370.086,110.097,368.256,110.064z"/>
<path fill-rule="evenodd" clip-rule="evenodd" fill="#CDCDCD" d="M285.876,128.015c0.673,4.061-1.37,5.053-5.146,5.127
	c-3.742,0.073-4.89-1.117-4.846-4.849c0.045-3.828,1.175-5.39,5.175-5.313C284.697,123.05,286.451,124.207,285.876,128.015z"/>
<path fill-rule="evenodd" clip-rule="evenodd" fill="#CDCDCD" d="M264.078,139.362c-0.897-4.236,1.691-4.347,4.937-4.483
	c4.18-0.176,4.986,1.771,5.019,5.433c0.034,3.969-1.875,4.609-5.259,4.699C264.514,145.125,263.541,143.032,264.078,139.362z"/>
<path fill-rule="evenodd" clip-rule="evenodd" fill="#CDCDCD" d="M255.916,116.939c0.682,4.008-1.271,5.127-5.062,5.123
	c-3.701-0.005-4.855-1.409-4.911-5.003c-0.061-3.937,1.409-5.202,5.251-5.151C254.857,111.957,256.493,113.21,255.916,116.939z"/>
<path fill-rule="evenodd" clip-rule="evenodd" fill="#CDCDCD" d="M258.064,116.597c-0.666-4.62,2.323-4.53,5.567-4.652
	c4.209-0.159,4.248,2.36,4.376,5.451c0.163,3.954-1.863,4.562-5.21,4.661C258.613,122.181,257.533,120.197,258.064,116.597z"/>
<path fill-rule="evenodd" clip-rule="evenodd" fill="#CDCDCD" d="M298.209,121.913c-3.486,0.487-5.243-0.668-5.218-4.541
	c0.024-3.574,0.729-5.518,4.925-5.481c3.886,0.032,5.255,1.311,5.183,5.203C303.033,120.672,301.973,122.491,298.209,121.913z"/>
<path fill-rule="evenodd" clip-rule="evenodd" fill="#CDCDCD" d="M305.103,117.11c-0.642-3.885,1.074-5.239,4.981-5.202
	c3.604,0.034,4.975,1.195,4.996,4.898c0.023,3.819-1.181,5.345-5.145,5.258C306.37,121.987,304.528,120.941,305.103,117.11z"/>
<path fill-rule="evenodd" clip-rule="evenodd" fill="#CDCDCD" d="M322.374,112.063c4.168-0.604,4.494,1.893,4.644,5.125
	c0.196,4.257-2,4.81-5.517,4.868c-4.017,0.066-4.472-1.999-4.582-5.283C316.777,112.562,318.811,111.537,322.374,112.063z"/>
<path fill-rule="evenodd" clip-rule="evenodd" fill="#CDCDCD" d="M315.934,135.076c4.588-0.758,5.039,1.794,5.117,5.275
	c0.089,3.944-1.864,4.593-5.213,4.655c-3.716,0.069-4.902-1.403-4.88-4.992C310.981,136.249,312.036,134.18,315.934,135.076z"/>
<path fill-rule="evenodd" clip-rule="evenodd" fill="#CDCDCD" d="M261.888,139.715c0.577,3.907-0.987,5.255-4.673,5.302
	c-3.808,0.047-5.344-1.165-5.272-5.127c0.063-3.552,1.114-5.068,4.865-5.006C260.461,134.944,262.744,135.736,261.888,139.715z"/>
<path fill-rule="evenodd" clip-rule="evenodd" fill="#CDCDCD" d="M273.883,127.812c0.711,4.201-1.243,5.309-5.029,5.313
	c-3.696,0.005-4.861-1.369-4.911-4.97c-0.054-3.907,1.362-5.256,5.227-5.169C272.761,123.067,274.595,124.161,273.883,127.812z"/>
<path fill-rule="evenodd" clip-rule="evenodd" fill="#CDCDCD" d="M207.227,89.116c4.756-0.614,4.653,2.376,4.769,5.587
	c0.148,4.145-2.307,4.229-5.409,4.377c-4.491,0.214-4.485-2.476-4.567-5.713C201.914,89.284,204.194,88.688,207.227,89.116z"/>
<path fill-rule="evenodd" clip-rule="evenodd" fill="#CDCDCD" d="M332.87,127.755c0.699,4.152-1.132,5.388-4.979,5.371
	c-3.641-0.017-4.926-1.265-4.964-4.924c-0.04-3.864,1.271-5.32,5.183-5.213C331.638,123.086,333.614,124.037,332.87,127.755z"/>
<path fill-rule="evenodd" clip-rule="evenodd" fill="#CDCDCD" d="M249.943,140.041c0.583,3.692-1.073,5.022-4.71,4.944
	c-3.839-0.082-5.101-1.857-5.231-5.509c-0.16-4.461,2.474-4.398,5.717-4.595C249.894,134.629,250.387,136.824,249.943,140.041z"/>
<path fill-rule="evenodd" clip-rule="evenodd" fill="#CDCDCD" d="M221.886,135.034c3.627-0.549,5.171,0.885,5.089,4.619
	c-0.084,3.763-1.668,5.206-5.396,5.348c-4.38,0.166-4.524-2.291-4.688-5.626C216.693,135.37,218.523,134.46,221.886,135.034z"/>
<path fill-rule="evenodd" clip-rule="evenodd" fill="#CDCDCD" d="M339.337,132.961c-4.146,0.857-4.374-1.649-4.414-4.886
	c-0.042-3.482,0.951-5.175,4.749-5.068c3.763,0.106,5.217,1.676,5.34,5.404C345.155,132.722,342.862,133.426,339.337,132.961z"/>
<path fill-rule="evenodd" clip-rule="evenodd" fill="#CDCDCD" d="M320.942,128.533c0.811,3.802-1.155,4.66-4.675,4.579
	c-3.265-0.074-5.331-0.552-5.271-4.546c0.062-4.03,1.727-5.528,5.681-5.562C320.761,122.97,321.317,125.209,320.942,128.533z"/>
<path fill-rule="evenodd" clip-rule="evenodd" fill="#CDCDCD" d="M323.101,139.608c-0.86-4.041,1.22-4.775,4.682-4.721
	c3.305,0.053,5.295,0.625,5.235,4.584c-0.062,4.064-1.807,5.495-5.724,5.519C323.205,145.016,322.635,142.776,323.101,139.608z"/>
<path fill-rule="evenodd" clip-rule="evenodd" fill="#CDCDCD" d="M304.563,135.042c4.028-0.851,4.539,1.417,4.521,4.783
	c-0.017,3.365-0.725,5.281-4.636,5.17c-3.7-0.104-5.312-1.512-5.446-5.301C298.855,135.494,300.929,134.512,304.563,135.042z"/>
<path fill-rule="evenodd" clip-rule="evenodd" fill="#CDCDCD" d="M261.932,128.638c0.861,4.083-1.521,4.454-4.825,4.474
	c-3.448,0.021-5.204-0.882-5.101-4.712c0.102-3.731,1.593-5.264,5.35-5.396C261.635,122.853,262.422,125.079,261.932,128.638z"/>
<path fill-rule="evenodd" clip-rule="evenodd" fill="#CDCDCD" d="M238.94,121.959c-4.973,0.321-4.57-3.198-4.812-6.057
	c-0.341-4.029,2.521-3.757,5.303-3.954c4.509-0.32,4.544,2.393,4.64,5.694C244.193,121.843,241.774,122.234,238.94,121.959z"/>
<path fill-rule="evenodd" clip-rule="evenodd" fill="#CDCDCD" d="M229.089,128.172c-0.649-4.072,1.19-5.286,4.768-5.146
	c3.177,0.123,5.11,1.251,5.022,4.65c-0.093,3.616-1.297,5.633-5.644,5.505C229.088,133.058,228.441,131.234,229.089,128.172z"/>
<path fill-rule="evenodd" clip-rule="evenodd" fill="#CDCDCD" d="M308.97,128.675c0.862,4.138-1.634,4.28-4.874,4.457
	c-4.4,0.239-4.125-2.351-4.213-5.319c-0.098-3.3,0.997-4.74,4.512-4.823C308.698,122.889,309.445,125.124,308.97,128.675z"/>
<path fill-rule="evenodd" clip-rule="evenodd" fill="#CDCDCD" d="M288.036,128.207c-0.522-3.564,0.725-5.202,4.543-5.219
	c3.978-0.019,4.464,2.003,4.586,5.283c0.135,3.613-0.923,4.897-4.708,4.888C288.576,133.148,287.384,131.684,288.036,128.207z"/>
<path fill-rule="evenodd" clip-rule="evenodd" fill="#CDCDCD" d="M375.05,139.215c-0.731-3.622,1.252-4.192,4.525-4.357
	c4.137-0.209,4.528,1.765,4.549,5.117c0.022,3.632-1.162,5.06-4.909,5.031C374.926,144.975,374.793,142.436,375.05,139.215z"/>
<path fill-rule="evenodd" clip-rule="evenodd" fill="#CDCDCD" d="M349.973,116.773c0.489,3.508-0.594,5.271-4.486,5.289
	c-3.944,0.019-4.548-1.893-4.638-5.225c-0.096-3.521,0.766-5.002,4.649-4.963C349.312,111.914,350.659,113.234,349.973,116.773z"/>
<path fill-rule="evenodd" clip-rule="evenodd" fill="#CDCDCD" d="M337.996,116.814c0.473,3.286-0.035,5.393-4.22,5.267
	c-3.653-0.11-4.945-1.355-4.89-4.982c0.053-3.36,0.733-5.162,4.655-5.206C337.391,111.849,338.676,113.274,337.996,116.814z"/>
<path fill-rule="evenodd" clip-rule="evenodd" fill="#CDCDCD" d="M296.978,139.95c0.566,3.67-0.982,5.033-4.672,5.058
	c-4.099,0.026-4.281-2.245-4.457-5.4c-0.211-3.779,1.21-4.715,4.826-4.764C296.741,134.788,297.501,136.641,296.978,139.95z"/>
<path fill-rule="evenodd" clip-rule="evenodd" fill="#CDCDCD" d="M284.968,139.646c0.597,3.933-0.923,5.329-4.62,5.361
	c-4.092,0.035-4.301-2.214-4.468-5.38c-0.197-3.753,1.169-4.776,4.814-4.776C284.641,134.851,285.759,136.412,284.968,139.646z"/>
<path fill-rule="evenodd" clip-rule="evenodd" fill="#CDCDCD" d="M286.408,112.089c3.93-0.831,4.8,1.142,4.713,4.67
	c-0.081,3.251-0.514,5.313-4.542,5.307c-3.846-0.007-4.739-1.69-4.719-5.136C281.88,113.632,282.233,111.214,286.408,112.089z"/>
<path fill-rule="evenodd" clip-rule="evenodd" fill="#CDCDCD" d="M279.006,116.875c0.51,3.336-0.152,5.314-4.271,5.207
	c-3.71-0.097-4.869-1.457-4.834-5.028c0.033-3.406,0.817-5.106,4.692-5.163C278.503,111.834,279.649,113.387,279.006,116.875z"/>
<path fill-rule="evenodd" clip-rule="evenodd" fill="#CDCDCD" d="M383.973,128.604c0.678,3.455-0.877,4.453-4.367,4.547
	c-3.926,0.105-4.772-1.428-4.704-4.994c0.066-3.482,0.899-5.19,4.786-5.17C383.866,123.008,384.33,125.293,383.973,128.604z"/>
<path fill-rule="evenodd" clip-rule="evenodd" fill="#CDCDCD" d="M237.935,139.646c0.601,3.918-0.885,5.34-4.6,5.363
	c-4.078,0.024-4.312-2.201-4.477-5.378c-0.195-3.741,1.137-4.788,4.797-4.78C237.589,134.858,238.736,136.394,237.935,139.646z"/>
<path fill-rule="evenodd" clip-rule="evenodd" fill="#CDCDCD" d="M249.982,128.6c0.826,3.89-1.332,4.4-4.747,4.545
	c-4.23,0.18-4.301-2.046-4.376-5.193c-0.087-3.636,1.234-4.964,4.894-4.958C249.889,123,250.327,125.307,249.982,128.6z"/>
<path fill-rule="evenodd" clip-rule="evenodd" fill="#CDCDCD" d="M223.01,93.884c0.45,3.26-0.063,5.334-4.269,5.239
	c-3.895-0.087-4.706-1.752-4.75-5.189c-0.047-3.671,1.283-4.932,4.955-4.993C222.845,88.874,223.461,90.774,223.01,93.884z"/>
<path fill-rule="evenodd" clip-rule="evenodd" fill="#CDCDCD" d="M237.984,93.568c-0.605-3.337,0.696-4.637,4.297-4.628
	c3.914,0.01,4.685,1.798,4.728,5.221c0.047,3.695-1.335,4.842-4.98,4.953C237.532,99.252,237.736,96.631,237.984,93.568z"/>
<path fill-rule="evenodd" clip-rule="evenodd" fill="#CDCDCD" d="M280.988,94.168c0.45,3.087-0.114,5.006-4.039,4.944
	c-3.668-0.058-5.019-1.267-4.974-4.955c0.042-3.428,0.82-5.136,4.726-5.23C280.89,88.826,281.45,90.881,280.988,94.168z"/>
<path fill-rule="evenodd" clip-rule="evenodd" fill="#CDCDCD" d="M304.011,94.064c0.569,3.365-0.332,5.125-4.376,5.057
	c-4.02-0.067-4.541-2.003-4.624-5.312c-0.095-3.792,1.514-4.782,5.062-4.867C304.126,88.846,304.358,91.045,304.011,94.064z"/>
<path fill-rule="evenodd" clip-rule="evenodd" fill="#CDCDCD" d="M318.999,94.094c-0.333-3.021-0.134-5.253,3.934-5.148
	c3.535,0.091,5.176,1.062,5.086,4.866c-0.078,3.314-0.608,5.242-4.627,5.312C319.356,99.194,318.422,97.466,318.999,94.094z"/>
<path fill-rule="evenodd" clip-rule="evenodd" fill="#CDCDCD" d="M224.682,101.008c4.178-0.859,4.232,1.714,4.414,4.911
	c0.251,4.409-2.371,4.111-5.328,4.207c-3.333,0.108-4.708-1.067-4.789-4.547C218.879,101.272,221.14,100.546,224.682,101.008z"/>
<path fill-rule="evenodd" clip-rule="evenodd" fill="#CDCDCD" d="M236.183,109.952c-3.708,0.665-5.341-0.405-5.263-4.346
	c0.076-3.801,1.653-4.736,5.121-4.753c3.556-0.017,4.973,1.118,5.032,4.835C241.137,109.662,239.477,110.725,236.183,109.952z"/>
<path fill-rule="evenodd" clip-rule="evenodd" fill="#CDCDCD" d="M247.52,109.963c-4.385,0.894-4.43-1.69-4.615-4.881
	c-0.256-4.42,2.385-4.099,5.331-4.196c3.332-0.111,4.727,1.064,4.782,4.549C253.087,109.687,250.961,110.591,247.52,109.963z"/>
<path fill-rule="evenodd" clip-rule="evenodd" fill="#CDCDCD" d="M287.913,105.415c0.818,3.883-1.07,4.835-4.635,4.739
	c-3.26-0.087-5.314-0.547-5.308-4.552c0.007-3.808,1.643-4.769,5.116-4.745C286.396,100.881,288.784,101.26,287.913,105.415z"/>
<path fill-rule="evenodd" clip-rule="evenodd" fill="#CDCDCD" d="M231.984,116.748c0.479,3.5-0.571,5.256-4.475,5.32
	c-4.45,0.075-4.502-2.419-4.645-5.711c-0.155-3.589,1.297-4.397,4.62-4.462C231.287,111.82,232.691,113.18,231.984,116.748z"/>
<path fill-rule="evenodd" clip-rule="evenodd" fill="#CDCDCD" d="M306.788,101.008c3.604-0.529,5.202,0.767,5.223,4.562
	c0.022,3.971-1.984,4.473-5.272,4.596c-3.634,0.136-4.877-0.961-4.869-4.726C301.877,101.571,303.316,100.35,306.788,101.008z"/>
<path fill-rule="evenodd" clip-rule="evenodd" fill="#CDCDCD" d="M353.63,110.008c-3.723,0.788-4.633-0.999-4.733-4.605
	c-0.111-4.021,1.679-4.571,5.052-4.553c3.473,0.018,5.109,0.951,5.098,4.76C359.033,109.587,357.066,110.442,353.63,110.008z"/>
<path fill-rule="evenodd" clip-rule="evenodd" fill="#CDCDCD" d="M341.902,110.015c-3.754,0.575-4.89-1.211-4.92-4.79
	c-0.034-4.174,2.398-4.166,5.473-4.37c3.91-0.261,4.574,1.452,4.66,4.931C347.219,109.968,345.104,110.437,341.902,110.015z"/>
<path fill-rule="evenodd" clip-rule="evenodd" fill="#CDCDCD" d="M364.006,139.29c-0.729-3.627,1.129-4.364,4.438-4.413
	c3.992-0.061,4.596,1.938,4.595,5.252c-0.001,3.238-0.891,4.811-4.478,4.882C364.223,145.098,363.556,142.803,364.006,139.29z"/>
<path fill-rule="evenodd" clip-rule="evenodd" fill="#CDCDCD" d="M360.989,139.795c0.581,3.792-0.943,5.181-4.646,5.212
	c-4.209,0.036-4.218-2.411-4.347-5.483c-0.166-3.943,1.84-4.538,5.189-4.646C361.298,134.743,361.343,137.075,360.989,139.795z"/>
<path fill-rule="evenodd" clip-rule="evenodd" fill="#CDCDCD" d="M372.913,128.098c0.547,3.62-0.973,4.961-4.68,5.038
	c-3.677,0.076-4.463-1.435-4.368-4.702c0.092-3.146,0.281-5.454,4.415-5.442C372.05,123.001,373.437,124.517,372.913,128.098z"/>
<path fill-rule="evenodd" clip-rule="evenodd" fill="#CDCDCD" d="M257.922,94.246c0.608,3.425-0.468,4.896-4.145,4.864
	c-3.741-0.031-4.856-1.465-4.832-5.024c0.023-3.436,0.854-5.156,4.721-5.133C257.753,88.978,258.402,91.09,257.922,94.246z"/>
<path fill-rule="evenodd" clip-rule="evenodd" fill="#CDCDCD" d="M260.992,93.697c-0.564-3.605,1.245-4.738,4.823-4.728
	c3.831,0.013,4.053,2.153,4.216,5.124c0.224,4.087-1.65,4.963-5.332,5.013C260.413,99.165,260.902,96.525,260.992,93.697z"/>
<path fill-rule="evenodd" clip-rule="evenodd" fill="#CDCDCD" d="M284.044,94.12c-0.511-3.491,0.693-5.147,4.54-5.167
	c4.095-0.02,4.371,2.178,4.475,5.37c0.123,3.821-1.585,4.688-5.064,4.78C284.005,99.209,283.665,97.105,284.044,94.12z"/>
<path fill-rule="evenodd" clip-rule="evenodd" fill="#CDCDCD" d="M315.956,94.726c0.693,3.461-1.021,4.337-4.404,4.377
	c-3.971,0.046-4.57-1.882-4.632-5.223c-0.067-3.674,1.284-4.935,4.933-4.919C316.142,88.979,316.188,91.55,315.956,94.726z"/>
<path fill-rule="evenodd" clip-rule="evenodd" fill="#CDCDCD" d="M338.948,94.569c0.732,3.657-1.033,4.483-4.386,4.532
	c-3.988,0.057-4.545-1.926-4.612-5.235c-0.074-3.679,1.316-4.935,4.949-4.899C339.153,89.008,339.273,91.534,338.948,94.569z"/>
<path fill-rule="evenodd" clip-rule="evenodd" fill="#CDCDCD" d="M350.899,94.026c0.522,3.553-0.856,5.021-4.62,5.083
	c-3.641,0.062-4.508-1.377-4.38-4.675c0.118-3.077,0.153-5.493,4.347-5.477C349.986,88.974,351.424,90.431,350.899,94.026z"/>
<path fill-rule="evenodd" clip-rule="evenodd" fill="#CDCDCD" d="M383.972,94.403c0.552,3.21-0.466,4.75-4.175,4.709
	c-3.698-0.041-4.923-1.374-4.882-4.993c0.038-3.42,0.814-5.185,4.708-5.168C383.686,88.968,384.374,91.058,383.972,94.403z"/>
<path fill-rule="evenodd" clip-rule="evenodd" fill="#CDCDCD" d="M294.334,110.022c-3.509,0.682-4.366-1.079-4.399-4.456
	c-0.039-3.918,1.784-4.666,5.199-4.714c3.704-0.053,4.935,1.341,4.922,4.98C300.042,110.074,297.563,110.293,294.334,110.022z"/>
<path fill-rule="evenodd" clip-rule="evenodd" fill="#CDCDCD" d="M383.983,117.138c0.56,3.605-1.056,4.895-4.736,4.916
	c-4.253,0.025-4.164-2.479-4.312-5.526c-0.195-4.018,1.921-4.489,5.227-4.612C384.349,111.759,384.195,114.258,383.983,117.138z"/>
<path fill-rule="evenodd" clip-rule="evenodd" fill="#CDCDCD" d="M234.944,94.104c0.437,3.313-0.655,4.924-4.31,4.99
	c-3.939,0.07-4.747-1.741-4.708-5.18c0.037-3.204,0.759-4.929,4.443-4.957C234.253,88.928,235.466,90.622,234.944,94.104z"/>
<path fill-rule="evenodd" clip-rule="evenodd" fill="#CDCDCD" d="M263.98,105.354c0.773,3.741-0.871,4.859-4.545,4.825
	c-3.378-0.032-4.569-0.998-4.592-4.498c-0.024-3.616,0.975-4.967,4.744-4.85C262.902,100.934,264.71,101.689,263.98,105.354z"/>
<path fill-rule="evenodd" clip-rule="evenodd" fill="#CDCDCD" d="M266.982,105.002c-0.739-3.871,1.671-3.953,4.664-4.156
	c4.111-0.278,4.342,1.809,4.491,5.07c0.201,4.379-2.357,4.049-5.317,4.225C266.713,110.386,266.714,107.926,266.982,105.002z"/>
<path fill-rule="evenodd" clip-rule="evenodd" fill="#CDCDCD" d="M379.943,101.004c4.055-0.769,3.996,1.805,4.17,4.763
	c0.22,3.735-1.506,4.263-4.728,4.417c-4.208,0.201-4.367-1.944-4.481-5.192C374.763,100.981,376.885,100.605,379.943,101.004z"/>
<path fill-rule="evenodd" clip-rule="evenodd" fill="#CDCDCD" d="M318.787,109.946c-4.09,0.855-4.911-1.069-4.935-4.604
	c-0.022-3.497,1.194-4.442,4.575-4.519c3.766-0.085,4.824,1.227,4.737,4.854C323.083,109.048,322.264,110.821,318.787,109.946z"/>
<path fill-rule="evenodd" clip-rule="evenodd" fill="#CDCDCD" d="M330.213,110.002c-3.713,0.739-4.254-1.273-4.389-4.479
	c-0.162-3.833,1.348-4.623,4.885-4.709c4.16-0.101,4.306,1.979,4.415,5.172C335.255,109.842,333.34,110.469,330.213,110.002z"/>
<path fill-rule="evenodd" clip-rule="evenodd" fill="#CDCDCD" d="M206.975,87.91c-2.823,0.216-4.875-0.222-4.948-3.781
	c-0.078-3.831,2.102-4.18,5.073-4.141c2.728,0.036,4.831,0.255,4.887,3.837C212.045,87.628,209.918,88.196,206.975,87.91z"/>
<path fill-rule="evenodd" clip-rule="evenodd" fill="#CDCDCD" d="M368.279,87.893c-2.982,0.496-4.483-0.461-4.433-3.958
	c0.045-3.111,1.179-4.094,4.143-3.955c2.675,0.125,4.987,0.076,5.027,3.8C373.054,87.183,371.439,88.235,368.279,87.893z"/>
<path fill-rule="evenodd" clip-rule="evenodd" fill="#CDCDCD" d="M379.675,80.09c2.814-0.37,4.477,0.225,4.432,3.567
	c-0.044,3.25-1.345,4.373-4.47,4.334c-2.89-0.036-4.729-0.585-4.689-4.078C374.988,80.375,376.908,79.754,379.675,80.09z"/>
<path fill-rule="evenodd" clip-rule="evenodd" fill="#CDCDCD" d="M222.924,83.997c0.315,3.547-1.869,3.967-4.686,3.982
	c-2.869,0.017-4.178-1.031-4.206-4.035c-0.033-3.51,1.934-3.962,4.764-3.958C221.642,79.991,223.227,80.942,222.924,83.997z"/>
<path fill-rule="evenodd" clip-rule="evenodd" fill="#CDCDCD" d="M254.923,84.009c0.33,3.548-1.864,3.955-4.679,3.971
	c-2.863,0.016-4.189-1.019-4.214-4.03c-0.029-3.501,1.928-3.97,4.766-3.963C253.642,79.993,255.227,80.943,254.923,84.009z"/>
<path fill-rule="evenodd" clip-rule="evenodd" fill="#CDCDCD" d="M282.676,87.909c-2.909,0.3-4.688-0.571-4.644-3.989
	c0.04-3.062,1.504-3.928,4.308-3.938c2.908-0.011,4.717,0.621,4.664,4.064C286.957,87.117,285.528,88.173,282.676,87.909z"/>
<path fill-rule="evenodd" clip-rule="evenodd" fill="#CDCDCD" d="M310.108,83.663c-0.105-3.825,2.509-3.586,5.067-3.655
	c3.161-0.085,3.833,1.661,3.807,4.379c-0.036,3.743-2.556,3.508-5.105,3.57C310.745,88.033,309.859,86.33,310.108,83.663z"/>
<path fill-rule="evenodd" clip-rule="evenodd" fill="#CDCDCD" d="M346.868,87.888c-3.109,0.329-4.867-0.563-4.822-3.973
	c0.041-3.061,1.5-3.924,4.305-3.934c2.91-0.011,4.72,0.626,4.65,4.067C350.94,87.091,349.586,88.235,346.868,87.888z"/>
<path fill-rule="evenodd" clip-rule="evenodd" fill="#CDCDCD" d="M307.961,83.679c0.325,2.985-0.913,4.289-3.897,4.296
	c-2.889,0.006-4.079-1.104-4.159-4.066c-0.081-3.041,1.06-4.014,4.015-3.946C306.649,80.024,308.517,80.468,307.961,83.679z"/>
<path fill-rule="evenodd" clip-rule="evenodd" fill="#CDCDCD" d="M293.641,80.063c3.402-0.521,3.359,1.739,3.485,4.254
	c0.166,3.326-1.628,3.687-4.286,3.665c-3.091-0.025-3.888-1.582-3.852-4.35C289.03,80.391,290.928,79.848,293.641,80.063z"/>
<path fill-rule="evenodd" clip-rule="evenodd" fill="#CDCDCD" d="M272.011,80.085c2.974-0.491,4.122,0.724,4.057,3.777
	c-0.063,2.931-1.171,4.117-4.102,4.115c-2.964-0.003-3.984-1.276-4.062-4.166C267.822,80.698,269.095,79.614,272.011,80.085z"/>
<path fill-rule="evenodd" clip-rule="evenodd" fill="#CDCDCD" d="M261.254,80.071c2.975-0.518,3.882,0.919,3.88,3.866
	c-0.001,2.892-0.824,4.181-3.919,4.063c-2.795-0.106-4.254-0.922-4.239-3.984C256.991,81.041,258.234,79.769,261.254,80.071z"/>
<path fill-rule="evenodd" clip-rule="evenodd" fill="#CDCDCD" d="M325.623,80.064c3.385-0.525,3.382,1.703,3.504,4.236
	c0.16,3.31-1.598,3.707-4.272,3.683c-3.079-0.028-3.903-1.553-3.869-4.335C321.025,80.412,322.898,79.844,325.623,80.064z"/>
<path fill-rule="evenodd" clip-rule="evenodd" fill="#CDCDCD" d="M240.514,80.066c3.382-0.533,3.516,1.637,3.524,4.212
	c0.011,3.246-1.888,3.691-4.496,3.681c-3.25-0.014-3.527-1.996-3.63-4.569C235.771,79.82,238.002,79.901,240.514,80.066z"/>
<path fill-rule="evenodd" clip-rule="evenodd" fill="#CDCDCD" d="M335.954,87.896c-3.317,0.253-3.927-1.553-4.046-4.271
	c-0.147-3.363,1.686-3.563,4.296-3.66c3.121-0.116,3.923,1.218,3.868,4.091C340.015,87.12,338.609,88.188,335.954,87.896z"/>
<path fill-rule="evenodd" clip-rule="evenodd" fill="#CDCDCD" d="M232.965,83.905c0.587,3.489-1.17,4.114-3.963,4.084
	c-2.975-0.031-4.035-1.303-4.023-4.191c0.012-3.16,1.694-3.739,4.388-3.821C232.517,79.88,233.567,81.225,232.965,83.905z"/>
<path fill-rule="evenodd" clip-rule="evenodd" fill="#CDCDCD" d="M357.31,87.9c-2.984,0.266-4.303-0.906-4.336-3.924
	c-0.038-3.482,1.877-3.934,4.719-4.003c3.079-0.076,3.366,1.565,3.434,4.013C361.207,86.896,360.317,88.424,357.31,87.9z"/>
<path fill-rule="evenodd" clip-rule="evenodd" fill="#CDCDCD" d="M213.058,61.796c0.347,0.083,0.693,0.166,1.04,0.248
	c-0.823,3.124,1.871,8.104-4.852,7.994c-7.27-0.117-7.274,0.159-7.236-8.02c1.085,2.701,1.428,5.502,5.897,5.232
	C212.084,66.999,213.557,65.73,213.058,61.796z"/>
<path fill-rule="evenodd" clip-rule="evenodd" fill="#4C4C4C" d="M187.839,31.405c1.979-0.13,3.958-0.373,5.937-0.374
	c68.211-0.02,136.422-0.024,204.633,0.03c1.689,0.002,4.102-1.086,4.92,0.854c0.408,0.969-1.169,2.863-1.999,4.25
	c-2.725,4.555-5.921,8.878-8.177,13.65c-2.444,5.171-6.048,6.476-11.174,5.161c-4.034-1.674-8.391-1.412-12.591-1.916
	c-16.117-1.935-32.277-3.511-48.405-5.362c-18.59-2.135-37.152-4.506-55.745-6.615c-22.221-2.521-44.484-4.695-66.672-7.477
	C195.045,33.166,190.904,34.459,187.839,31.405z"/>
<path fill-rule="evenodd" clip-rule="evenodd" fill="#010101" d="M187.839,31.405c3.065,3.054,7.206,1.761,10.727,2.202
	c22.188,2.781,44.451,4.956,66.672,7.477c18.593,2.109,37.155,4.48,55.745,6.615c16.128,1.852,32.288,3.428,48.405,5.362
	c4.2,0.504,8.557,0.242,12.591,1.916l-0.144,0.264l0.227,0.196c-3.011-0.012-6.022-0.024-9.034-0.036
	c-0.823-0.075-1.646-0.217-2.471-0.217c-51.405-0.011-102.812-0.012-154.217,0.004c-1.149,0.001-2.299,0.206-3.448,0.316
	c-3.619-0.482-7.238-0.46-10.858-0.004c-6.132,0.905-9.111-2.672-11.675-7.583c-2.818-5.401-6.282-10.467-9.974-16.513
	C183.389,31.405,185.614,31.405,187.839,31.405z"/>
<path fill-rule="evenodd" clip-rule="evenodd" fill="#FCFCFC" d="M172.635,23.463c79.91,0,159.82,0,239.73,0c0,0.33,0,0.66,0,0.99
	c-79.91,0-159.82,0-239.73,0C172.635,24.123,172.635,23.793,172.635,23.463z"/>
<path fill-rule="evenodd" clip-rule="evenodd" fill="#FCFCFC" d="M373.027,55.401c3.012,0.012,6.023,0.024,9.034,0.036
	c-0.04,2.126-0.346,4.288-0.062,6.371c0.552,4.064-0.875,5.317-5.041,5.391c-4.374,0.076-5.463-1.694-5.04-5.46
	c0.006-0.823,0.012-1.645,0.017-2.468C371.883,57.862,372.128,56.539,373.027,55.401z"/>
<path fill-rule="evenodd" clip-rule="evenodd" fill="#CDCDCD" d="M140.128,142.923c0.023,15.088-11.008,26.198-26.03,26.216
	c-15.092,0.019-26.216-11.019-26.226-26.02c-0.009-14.663,11.606-26.243,26.28-26.2
	C128.527,116.961,140.106,128.553,140.128,142.923z M136.223,143.478c0.059-12.857-9.497-22.567-22.212-22.57
	c-12.536-0.004-22.174,9.559-22.223,22.047c-0.049,12.623,9.379,22.188,21.951,22.272
	C126.392,165.31,136.167,155.854,136.223,143.478z"/>
<path fill-rule="evenodd" clip-rule="evenodd" fill="#CDCDCD" d="M373.027,55.401c-0.899,1.138-1.145,2.461-1.093,3.87
	c-15.319-0.043-30.64-0.123-45.96-0.125c-37.644-0.003-75.286,0.029-112.929,0.049c-0.052-1.229-0.104-2.46-0.154-3.69
	c1.149-0.11,2.299-0.315,3.448-0.316c51.405-0.016,102.812-0.015,154.217-0.004C371.381,55.185,372.204,55.326,373.027,55.401z"/>
<path fill-rule="evenodd" clip-rule="evenodd" fill="#010101" d="M468.745,192.089c0.33,2.183-0.032,3.539-2.812,3.058
	c-11.914-2.063-23.837-4.079-35.778-5.974c-2.301-0.365-1.938-1.448-1.662-3.078c3.386-19.931,6.695-39.873,10.048-59.809
	c0.411-2.444,0.96-4.865,1.444-7.297c1.758,1.247,2.107,3.312,2.761,5.111c7.682,21.147,15.27,42.328,22.931,63.481
	C466.299,189.3,466.162,191.657,468.745,192.089z"/>
<path fill-rule="evenodd" clip-rule="evenodd" fill="#4C4C4C" d="M468.745,192.089c-2.583-0.432-2.446-2.789-3.069-4.507
	c-7.661-21.153-15.249-42.334-22.931-63.481c-0.653-1.799-1.003-3.864-2.761-5.111c-0.297-2.725,1.534-1.938,2.915-1.709
	c11.557,1.907,23.104,3.871,34.664,5.749c2.481,0.402,3.071,1.331,2.605,3.982c-2.709,15.42-5.033,30.907-7.739,46.327
	C471.33,179.606,471.197,186.083,468.745,192.089z"/>
<path fill-rule="evenodd" clip-rule="evenodd" fill="#CDCDCD" d="M447.251,202.875c-2.48-0.506-4.077-1.777-3.944-4.038
	c0.122-2.063,1.259-3.905,3.741-3.815c2.533,0.092,3.964,1.613,3.942,4.151C450.969,201.713,448.866,202.199,447.251,202.875z"/>
<path fill-rule="evenodd" clip-rule="evenodd" fill="#CDCDCD" d="M451.761,113.747c6.493-1.15,12.457,1.218,18.591,2.459
	C463.864,117.314,457.869,115.151,451.761,113.747z"/>
<path fill-rule="evenodd" clip-rule="evenodd" fill="#CDCDCD" d="M438.804,199.204c-2.484-1.205-7.676-0.207-7.307-2.756
	c0.502-3.473,4.554-0.419,7.053-0.475c1.268-0.028,3.368-0.549,3.129,1.867C441.519,199.458,439.905,198.829,438.804,199.204z"/>
<path fill-rule="evenodd" clip-rule="evenodd" fill="#CDCDCD" d="M456.762,198.87c2.154,0.551,6.331,0.226,5.974,2.509
	c-0.567,3.636-3.965,0.024-6.139,0.572c-1.27,0.32-3.396,0.068-3.214-1.939C453.551,198.17,455.477,199.161,456.762,198.87z"/>
<path fill-rule="evenodd" clip-rule="evenodd" fill="#4C4C4C" d="M136.223,143.478c-0.056,12.377-9.832,21.832-22.484,21.749
	c-12.572-0.084-22-9.649-21.951-22.272c0.048-12.488,9.687-22.051,22.223-22.047C126.726,120.91,136.282,130.62,136.223,143.478z"/>
<path fill-rule="evenodd" clip-rule="evenodd" fill="#1D8B9A" d="M361.661,166.08c-0.156,0.073-0.276,0.192-0.399,0.307
	c-0.096-0.094-0.19-0.188-0.287-0.28c-0.06-0.058-0.12-0.128-0.195-0.019c-0.16,0.343-0.458,0.448-0.804,0.544
	c-2.509,0.695-4.935,1.638-7.377,2.53c-0.953,0.348-1.896,0.722-2.85,1.068c-0.229,0.083-0.353,0.223-0.423,0.444
	c-0.185,0.593-0.26,1.162,0.276,1.631c0.114,0.144,0.25,0.253,0.438,0.287c0.176,0.133,0.354,0.113,0.554,0.038
	c1.506-0.572,3.018-1.129,4.521-1.706c0.741-0.283,1.499-0.523,2.22-0.861l-0.006,0.001c0.147-0.005,0.271-0.077,0.4-0.133
	c0.691-0.252,1.383-0.505,2.074-0.757c0.104-0.035,0.205-0.105,0.325-0.052c0.048,0.227,0.102,0.437,0.4,0.218
	c0.103-0.074,0.132,0.041,0.136,0.1c0.021,0.312,0.161,0.3,0.367,0.149c0.04-0.031,0.09-0.05,0.147-0.079
	c0.028,0.111,0.056,0.221,0.083,0.329c-0.011,0.158,0.082,0.087,0.151,0.066c0.099-0.026,0.174-0.147,0.297-0.072
	c1.031,1.635,2.063,3.269,3.093,4.905c2.019,3.211,4.035,6.426,6.053,9.638c0.45,0.718,0.9,1.437,1.358,2.149
	c0.076,0.117,0.093,0.187-0.023,0.284c-2.252,1.931-4.818,3.217-7.744,3.728c-4.016,0.7-7.787,0.02-11.284-2.092
	c-1.587-0.957-2.965-2.156-4.129-3.604c-0.625-0.777-1.21-1.58-1.652-2.472c-2.453-4.923-2.601-9.881-0.236-14.896
	c0.908-1.922,2.176-3.564,3.769-4.926c2.618-2.236,5.657-3.583,9.112-3.895c3.406-0.307,6.604,0.382,9.58,2.078
	c1.549,0.883,2.901,2.01,4.074,3.339c2.525,2.858,3.847,6.216,3.988,10.021c0.131,3.52-0.822,6.745-2.785,9.669
	c-0.287,0.429-0.592,0.847-0.97,1.263c-0.405-0.646-0.8-1.269-1.189-1.895c-2.125-3.412-4.251-6.825-6.374-10.239
	c-1.103-1.774-2.199-3.551-3.306-5.322c-0.074-0.118-0.117-0.224-0.07-0.346c0.122-0.316-0.052-0.345-0.294-0.315
	c-0.031,0.005-0.062,0.005-0.093,0.008c-0.142-0.133-0.007-0.34-0.126-0.479c-0.191-0.067-0.328,0.08-0.493,0.123
	c-0.119-0.103-0.083-0.3-0.231-0.385l0.001-0.003C361.773,166.088,361.75,166.056,361.661,166.08z"/>
<path fill-rule="evenodd" clip-rule="evenodd" fill="#AECBEB" d="M372.751,186.263c-0.169,0.25-0.273,0.198-0.43-0.051
	c-1.869-2.967-3.749-5.928-5.628-8.89c-1.503-2.368-3.011-4.731-4.509-7.101c-0.068-0.11-0.248-0.217-0.102-0.404
	c0.22-0.279,0.315-0.273,0.532,0.062c0.848,1.312,1.691,2.627,2.54,3.938c1.232,1.913,2.468,3.823,3.702,5.735
	c1.335,2.068,2.662,4.143,4.013,6.2C373.046,186.022,372.92,186.12,372.751,186.263z"/>
<path fill-rule="evenodd" clip-rule="evenodd" fill="#AECBEB" d="M350.04,172.593c-0.188-0.034-0.323-0.144-0.438-0.287
	c1.361-0.559,2.723-1.123,4.087-1.678c1.97-0.803,3.94-1.6,5.911-2.398c0.19-0.077,0.383-0.15,0.604-0.236
	c-0.027,0.396-0.053,0.764-0.077,1.13c-0.119-0.054-0.22,0.017-0.324,0.052c-0.691,0.252-1.383,0.505-2.074,0.757
	c-0.173-0.076-0.285,0.031-0.4,0.133l0.006-0.001c-0.108-0.062-0.204,0.006-0.297,0.038c-2.199,0.752-4.397,1.504-6.594,2.264
	C350.3,172.415,350.12,172.422,350.04,172.593z"/>
<path fill-rule="evenodd" clip-rule="evenodd" fill="#AECBEB" d="M360.779,166.088c0.075-0.109,0.136-0.039,0.195,0.019
	c0.097,0.093,0.191,0.187,0.287,0.28c-0.032,0.719-0.15,1.416-0.526,2.048c-0.053,0.088-0.111,0.171-0.168,0.257l-0.021-0.002
	c0.176-0.759,0.362-1.516,0.293-2.306C360.831,166.282,360.869,166.172,360.779,166.088z"/>
<path fill-rule="evenodd" clip-rule="evenodd" fill="#AECBEB" d="M361.736,166.174c0.148,0.085,0.112,0.282,0.231,0.385
	c-0.09,0.765-0.255,1.506-0.687,2.161c-0.033,0.051-0.069,0.098-0.106,0.15c-0.061-0.059-0.024-0.107-0.009-0.146
	c0.292-0.738,0.41-1.514,0.474-2.299C361.647,166.329,361.656,166.239,361.736,166.174z"/>
<path fill-rule="evenodd" clip-rule="evenodd" fill="#AECBEB" d="M362.461,166.436c0.119,0.14-0.016,0.347,0.126,0.479
	c-0.152,0.162-0.146,0.382-0.198,0.577c-0.143,0.532-0.351,1.029-0.716,1.453C362.043,168.141,362.215,167.277,362.461,166.436z"/>
<path fill-rule="evenodd" clip-rule="evenodd" fill="#AECBEB" d="M361.71,169.834c-0.123-0.075-0.198,0.046-0.297,0.072
	c-0.069,0.021-0.162,0.092-0.151-0.066c0.354-0.12,0.473-0.469,0.677-0.726c0.213-0.268,0.374-0.577,0.579-0.855
	c-0.103,0.403-0.253,0.782-0.518,1.105C361.882,169.508,361.771,169.654,361.71,169.834z"/>
<path fill-rule="evenodd" clip-rule="evenodd" fill="#AECBEB" d="M361.661,166.08c0.089-0.024,0.112,0.008,0.076,0.091
	C361.711,166.141,361.686,166.11,361.661,166.08z"/>
<path fill-rule="evenodd" clip-rule="evenodd" fill="#AECBEB" d="M360.567,168.691c-0.009,0.028-0.016,0.056-0.024,0.082
	c-0.002,0.003-0.02-0.001-0.03-0.001c0.012-0.027,0.022-0.056,0.034-0.083L360.567,168.691z"/>
<path fill-rule="evenodd" clip-rule="evenodd" fill="#FEFEFE" d="M350.04,172.593c0.08-0.171,0.26-0.178,0.403-0.228
	c2.196-0.76,4.395-1.512,6.594-2.264c0.093-0.032,0.188-0.1,0.297-0.038c-0.721,0.338-1.479,0.578-2.22,0.861
	c-1.503,0.577-3.015,1.134-4.521,1.706C350.395,172.706,350.216,172.726,350.04,172.593z"/>
<path fill-rule="evenodd" clip-rule="evenodd" fill="#FEFEFE" d="M357.328,170.064c0.115-0.102,0.228-0.209,0.4-0.133
	C357.599,169.987,357.476,170.06,357.328,170.064z"/>
</svg>
